<svg width="48" height="48" viewBox="0 0 48 48" fill="none" xmlns="http://www.w3.org/2000/svg">
    <path fill-rule="evenodd" clip-rule="evenodd" d="M36.1801 5.09804C35.0761 4.47804 33.9001 4.41804 32.6581 4.57204C31.4781 4.72004 30.0401 5.09204 28.3141 5.54204L24.2761 6.59004C22.5501 7.04004 21.1141 7.41204 20.0161 7.85804C18.8581 8.32604 17.8581 8.95404 17.2101 10.044C16.5581 11.14 16.4941 12.312 16.6561 13.536C16.8101 14.69 17.1961 16.09 17.6561 17.758L18.7421 21.686C19.2021 23.356 19.5901 24.754 20.0521 25.826C20.5421 26.966 21.1961 27.936 22.3081 28.56C23.4121 29.178 24.5881 29.24 25.8321 29.084C27.0121 28.938 28.4501 28.564 30.1761 28.114L34.2141 27.066C35.9401 26.618 37.3761 26.244 38.4741 25.798C39.6321 25.33 40.6321 24.702 41.2801 23.612C41.9321 22.516 41.9961 21.344 41.8341 20.122C41.6801 18.968 41.2941 17.566 40.8341 15.898L39.7481 11.97C39.2881 10.302 38.9001 8.90204 38.4381 7.83004C37.9481 6.69004 37.2901 5.72004 36.1801 5.09804ZM28.9701 8.47004C30.8201 7.99004 32.0661 7.67004 33.0301 7.55004C33.9521 7.43404 34.3941 7.53604 34.7161 7.71604C35.0301 7.89204 35.3321 8.19804 35.6821 9.01604C36.0521 9.87604 36.3881 11.074 36.8841 12.87L37.9121 16.596C38.4101 18.392 38.7381 19.592 38.8601 20.516C38.9761 21.394 38.8721 21.792 38.7001 22.078C38.5261 22.372 38.2101 22.67 37.3501 23.018C36.4541 23.38 35.2101 23.708 33.3601 24.188L29.5201 25.186C27.6701 25.666 26.4241 25.986 25.4601 26.106C24.5361 26.224 24.0961 26.122 23.7741 25.942C23.4601 25.766 23.1581 25.458 22.8081 24.642C22.4381 23.782 22.1021 22.582 21.6061 20.786L20.5781 17.062C20.0801 15.262 19.7521 14.064 19.6301 13.142C19.5141 12.262 19.6181 11.866 19.7901 11.578C19.9641 11.284 20.2801 10.986 21.1401 10.638C22.0361 10.276 23.2801 9.95004 25.1301 9.46804L28.9701 8.47004Z" fill="#1EBB5F"/>
    <path fill-rule="evenodd" clip-rule="evenodd" d="M6.40014 9.44989C6.02123 9.35699 5.62104 9.41538 5.28447 9.61265C4.94789 9.80993 4.70142 10.1306 4.59734 10.5066C4.49326 10.8826 4.53976 11.2843 4.72698 11.6266C4.9142 11.9688 5.2274 12.2247 5.60014 12.3399L9.00614 13.2859C9.85814 13.5219 10.4921 14.1659 10.7081 14.9479L14.6121 29.0739C14.4611 29.1038 14.311 29.1385 14.1621 29.1779C10.2081 30.2039 7.79214 34.1819 8.87614 38.1119C9.95614 42.0219 14.0641 44.2759 18.0021 43.2519C21.4501 42.3579 23.7281 39.2199 23.5361 35.8279L40.3761 31.4519C40.5668 31.4024 40.7459 31.3158 40.9031 31.1971C41.0603 31.0784 41.1926 30.9299 41.2924 30.76C41.3923 30.5902 41.4577 30.4023 41.4849 30.2072C41.5121 30.0121 41.5006 29.8136 41.4511 29.6229C41.4016 29.4322 41.315 29.2531 41.1963 29.0959C41.0776 28.9387 40.9291 28.8064 40.7593 28.7066C40.5894 28.6068 40.4016 28.5414 40.2065 28.5141C40.0114 28.4869 39.8128 28.4984 39.6221 28.5479L22.7461 32.9339C22.2413 31.9691 21.5307 31.1269 20.6647 30.4669C19.7986 29.8068 18.7982 29.3449 17.7341 29.1139L13.6001 14.1479C13.3464 13.2476 12.8637 12.4284 12.1991 11.7701C11.5346 11.1119 10.7108 10.637 9.80814 10.3919L6.40214 9.44789L6.40014 9.44989ZM14.9181 32.0799C17.3421 31.4519 19.7741 32.8579 20.3981 35.1179C21.0181 37.3579 19.6581 39.7239 17.2501 40.3499C14.8261 40.9799 12.3941 39.5719 11.7701 37.3119C11.1501 35.0719 12.5101 32.7059 14.9181 32.0799Z" fill="#1EBB5F"/>
</svg>
