<svg width="48" height="48" viewBox="0 0 48 48" fill="none" xmlns="http://www.w3.org/2000/svg">
    <path d="M29.9997 21.9998V22.0198M10.3457 16.7558C9.46846 16.0816 8.79474 15.178 8.39898 14.1448C8.00322 13.1117 7.90081 11.9893 8.10309 10.9015C8.30537 9.81384 8.80444 8.80324 9.54516 7.98145C10.2859 7.15965 11.2394 6.55865 12.3003 6.24489C13.3613 5.93112 14.4883 5.9168 15.5568 6.20351C16.6254 6.49022 17.5939 7.06679 18.3552 7.8695C19.1166 8.67221 19.6412 9.6698 19.871 10.752C20.1009 11.8342 20.027 12.9589 19.6577 14.0018" stroke="#1EBB5F" stroke-width="3" stroke-linecap="round" stroke-linejoin="round"/>
    <path d="M32 8V15.606C34.4752 17.0382 36.3597 19.3049 37.316 22H39.998C40.5285 22 41.0372 22.2107 41.4122 22.5858C41.7873 22.9609 41.998 23.4696 41.998 24V28C41.998 28.5304 41.7873 29.0391 41.4122 29.4142C41.0372 29.7893 40.5285 30 39.998 30H37.314C36.642 31.9 35.5 33.6 33.998 34.946V39C33.998 39.7957 33.682 40.5587 33.1193 41.1213C32.5567 41.6839 31.7937 42 30.998 42C30.2024 42 29.4393 41.6839 28.8767 41.1213C28.3141 40.5587 27.998 39.7957 27.998 39V37.834C27.3371 37.9447 26.6681 38.0002 25.998 38H17.998C17.3279 38.0002 16.6589 37.9447 15.998 37.834V39C15.998 39.7957 15.682 40.5587 15.1193 41.1213C14.5567 41.6839 13.7937 42 12.998 42C12.2024 42 11.4393 41.6839 10.8767 41.1213C10.3141 40.5587 9.99803 39.7957 9.99803 39V34.946C8.18595 33.3259 6.90858 31.1938 6.33499 28.8317C5.76141 26.4697 5.91865 23.9891 6.78591 21.7184C7.65317 19.4477 9.18955 17.4939 11.1917 16.1157C13.1938 14.7374 15.5673 13.9996 17.998 14H22.998L31.998 8H32Z" stroke="#1EBB5F" stroke-width="3" stroke-linecap="round" stroke-linejoin="round"/>
</svg>
