<svg width="49" height="48" viewBox="0 0 49 48" fill="none" xmlns="http://www.w3.org/2000/svg">
    <path d="M8.5 36C8.5 33.8783 9.34285 31.8434 10.8431 30.3431C12.3434 28.8429 14.3783 28 16.5 28H32.5C34.6217 28 36.6566 28.8429 38.1569 30.3431C39.6571 31.8434 40.5 33.8783 40.5 36C40.5 37.0609 40.0786 38.0783 39.3284 38.8284C38.5783 39.5786 37.5609 40 36.5 40H12.5C11.4391 40 10.4217 39.5786 9.67157 38.8284C8.92143 38.0783 8.5 37.0609 8.5 36Z" stroke="#1EBB5F" stroke-width="2.2" stroke-linejoin="round"/>
    <path d="M24.5 20C27.8137 20 30.5 17.3137 30.5 14C30.5 10.6863 27.8137 8 24.5 8C21.1863 8 18.5 10.6863 18.5 14C18.5 17.3137 21.1863 20 24.5 20Z" stroke="#1EBB5F" stroke-width="2.2"/>
    <path d="M34.5 7L38 10.5L45 3.5" stroke="#1EBB5F" stroke-width="2.2"/>
</svg>
