<svg width="48" height="48" viewBox="0 0 48 48" fill="none" xmlns="http://www.w3.org/2000/svg">
    <path fill-rule="evenodd" clip-rule="evenodd" d="M14.7446 37.5979C14.7446 37.1736 14.9072 36.7667 15.1965 36.4667C15.4858 36.1667 15.8783 35.9982 16.2874 35.9982H44.0576C44.4668 35.9982 44.8592 36.1667 45.1485 36.4667C45.4378 36.7667 45.6004 37.1736 45.6004 37.5979C45.6004 38.0222 45.4378 38.4291 45.1485 38.7291C44.8592 39.0291 44.4668 39.1976 44.0576 39.1976H16.2874C15.8783 39.1976 15.4858 39.0291 15.1965 38.7291C14.9072 38.4291 14.7446 38.0222 14.7446 37.5979ZM14.7446 24.8001C14.7446 24.3758 14.9072 23.9689 15.1965 23.6689C15.4858 23.3689 15.8783 23.2003 16.2874 23.2003H44.0576C44.4668 23.2003 44.8592 23.3689 45.1485 23.6689C45.4378 23.9689 45.6004 24.3758 45.6004 24.8001C45.6004 25.2243 45.4378 25.6312 45.1485 25.9312C44.8592 26.2312 44.4668 26.3998 44.0576 26.3998H16.2874C15.8783 26.3998 15.4858 26.2312 15.1965 25.9312C14.9072 25.6312 14.7446 25.2243 14.7446 24.8001ZM14.7446 12.0022C14.7446 11.578 14.9072 11.1711 15.1965 10.8711C15.4858 10.5711 15.8783 10.4025 16.2874 10.4025H44.0576C44.4668 10.4025 44.8592 10.5711 45.1485 10.8711C45.4378 11.1711 45.6004 11.578 45.6004 12.0022C45.6004 12.4265 45.4378 12.8334 45.1485 13.1334C44.8592 13.4334 44.4668 13.602 44.0576 13.602H16.2874C15.8783 13.602 15.4858 13.4334 15.1965 13.1334C14.9072 12.8334 14.7446 12.4265 14.7446 12.0022ZM11.2086 7.67018C11.3522 7.81878 11.4662 7.99531 11.544 8.18966C11.6218 8.38401 11.6618 8.59236 11.6618 8.80278C11.6618 9.0132 11.6218 9.22155 11.544 9.41591C11.4662 9.61026 11.3522 9.78679 11.2086 9.93539L6.58021 14.7346C6.4369 14.8836 6.26665 15.0017 6.07921 15.0824C5.89178 15.163 5.69084 15.2046 5.48791 15.2046C5.28498 15.2046 5.08405 15.163 4.89661 15.0824C4.70918 15.0017 4.53893 14.8836 4.39562 14.7346L2.85283 13.1348C2.70939 12.9861 2.59561 12.8095 2.51798 12.6152C2.44035 12.4209 2.40039 12.2126 2.40039 12.0022C2.40039 11.7919 2.44035 11.5836 2.51798 11.3893C2.59561 11.1949 2.70939 11.0184 2.85283 10.8696C2.99628 10.7209 3.16657 10.6029 3.35398 10.5224C3.5414 10.4419 3.74227 10.4005 3.94513 10.4005C4.14798 10.4005 4.34886 10.4419 4.53627 10.5224C4.72369 10.6029 4.89398 10.7209 5.03742 10.8696L5.48791 11.34L9.02398 7.67018C9.16729 7.5212 9.33754 7.403 9.52498 7.32235C9.71241 7.24171 9.91335 7.2002 10.1163 7.2002C10.3192 7.2002 10.5201 7.24171 10.7076 7.32235C10.895 7.403 11.0653 7.5212 11.2086 7.67018ZM11.2086 20.468C11.3522 20.6166 11.4662 20.7931 11.544 20.9875C11.6218 21.1818 11.6618 21.3902 11.6618 21.6006C11.6618 21.811 11.6218 22.0194 11.544 22.2137C11.4662 22.4081 11.3522 22.5846 11.2086 22.7332L6.58021 27.5324C6.4369 27.6814 6.26665 27.7996 6.07921 27.8802C5.89178 27.9609 5.69084 28.0024 5.48791 28.0024C5.28498 28.0024 5.08405 27.9609 4.89661 27.8802C4.70918 27.7996 4.53893 27.6814 4.39562 27.5324L2.85283 25.9327C2.56314 25.6323 2.40039 25.2249 2.40039 24.8001C2.40039 24.3752 2.56314 23.9678 2.85283 23.6674C3.14253 23.3671 3.53544 23.1983 3.94513 23.1983C4.35482 23.1983 4.74773 23.3671 5.03742 23.6674L5.48791 24.1378L9.02398 20.468C9.16729 20.319 9.33754 20.2008 9.52498 20.1202C9.71241 20.0395 9.91335 19.998 10.1163 19.998C10.3192 19.998 10.5201 20.0395 10.7076 20.1202C10.895 20.2008 11.0653 20.319 11.2086 20.468ZM11.2086 33.2658C11.3522 33.4144 11.4662 33.591 11.544 33.7853C11.6218 33.9797 11.6618 34.188 11.6618 34.3984C11.6618 34.6088 11.6218 34.8172 11.544 35.0115C11.4662 35.2059 11.3522 35.3824 11.2086 35.531L6.58021 40.3302C6.4369 40.4792 6.26665 40.5974 6.07921 40.678C5.89178 40.7587 5.69084 40.8002 5.48791 40.8002C5.28498 40.8002 5.08405 40.7587 4.89661 40.678C4.70918 40.5974 4.53893 40.4792 4.39562 40.3302L2.85283 38.7305C2.56314 38.4301 2.40039 38.0227 2.40039 37.5979C2.40039 37.1731 2.56314 36.7657 2.85283 36.4653C3.14253 36.1649 3.53544 35.9961 3.94513 35.9961C4.35482 35.9961 4.74773 36.1649 5.03742 36.4653L5.48791 36.9356L9.02398 33.2658C9.16729 33.1168 9.33754 32.9986 9.52498 32.918C9.71241 32.8373 9.91335 32.7958 10.1163 32.7958C10.3192 32.7958 10.5201 32.8373 10.7076 32.918C10.895 32.9986 11.0653 33.1168 11.2086 33.2658Z" fill="#1EBB5F"/>
</svg>
