<svg width="48" height="48" viewBox="0 0 48 48" fill="none" xmlns="http://www.w3.org/2000/svg">
    <g clip-path="url(#clip0_164_530)">
        <path d="M10.2853 23.9998V14.9827C10.3121 13.2102 10.6883 11.4604 11.3925 9.83363C12.0967 8.20683 13.115 6.73497 14.3889 5.50238C15.6629 4.26979 17.1676 3.3007 18.8168 2.65063C20.466 2.00057 22.2272 1.6823 23.9996 1.71408C25.772 1.6823 27.5332 2.00057 29.1824 2.65063C30.8315 3.3007 32.3362 4.26979 33.6102 5.50238C34.8842 6.73497 35.9025 8.20683 36.6067 9.83363C37.3108 11.4604 37.6871 13.2102 37.7139 14.9827V23.9998M30.8567 41.9998C32.6754 41.9998 34.4195 41.2773 35.7055 39.9914C36.9914 38.7054 37.7139 36.9613 37.7139 35.1427V27.4284M30.8567 41.9998C30.8567 43.1364 30.4052 44.2265 29.6015 45.0303C28.7977 45.834 27.7077 46.2855 26.571 46.2855H21.4282C20.2915 46.2855 19.2014 45.834 18.3977 45.0303C17.594 44.2265 17.1424 43.1364 17.1424 41.9998C17.1424 40.8632 17.594 39.7731 18.3977 38.9693C19.2014 38.1656 20.2915 37.7141 21.4282 37.7141H26.571C27.7077 37.7141 28.7977 38.1656 29.6015 38.9693C30.4052 39.7731 30.8567 40.8632 30.8567 41.9998ZM5.14244 18.8569H8.57101C9.02567 18.8569 9.4617 19.0375 9.78319 19.359C10.1047 19.6805 10.2853 20.1166 10.2853 20.5712V30.8569C10.2853 31.3116 10.1047 31.7476 9.78319 32.0691C9.4617 32.3906 9.02567 32.5712 8.57101 32.5712H5.14244C4.23312 32.5712 3.36105 32.21 2.71807 31.567C2.07509 30.924 1.71387 30.052 1.71387 29.1427V22.2855C1.71387 21.3762 2.07509 20.5041 2.71807 19.8611C3.36105 19.2182 4.23312 18.8569 5.14244 18.8569ZM42.8567 32.5712H39.4282C38.9735 32.5712 38.5375 32.3906 38.216 32.0691C37.8945 31.7476 37.7139 31.3116 37.7139 30.8569V20.5712C37.7139 20.1166 37.8945 19.6805 38.216 19.359C38.5375 19.0375 38.9735 18.8569 39.4282 18.8569H42.8567C43.766 18.8569 44.6381 19.2182 45.2811 19.8611C45.9241 20.5041 46.2853 21.3762 46.2853 22.2855V29.1427C46.2853 30.052 45.9241 30.924 45.2811 31.567C44.6381 32.21 43.766 32.5712 42.8567 32.5712Z" stroke="#1EBB5F" stroke-width="3" stroke-linecap="round" stroke-linejoin="round"/>
    </g>
    <defs>
        <clipPath id="clip0_164_530">
            <rect width="48" height="48" fill="white"/>
        </clipPath>
    </defs>
</svg>
