<svg width="49" height="48" viewBox="0 0 49 48" fill="none" xmlns="http://www.w3.org/2000/svg">
    <path d="M45.4231 21.8158L28.8894 11.2839C28.4932 11.0326 28.0369 10.892 27.568 10.8769C27.0991 10.8617 26.6347 10.9725 26.2231 11.1977C25.8154 11.4209 25.4751 11.7495 25.2379 12.1493C25.0007 12.5491 24.8754 13.0053 24.875 13.4702V21.1577L9.38937 11.2839C8.99321 11.0326 8.53694 10.892 8.06802 10.8769C7.59911 10.8617 7.1347 10.9725 6.72312 11.1977C6.31536 11.4209 5.97508 11.7495 5.73791 12.1493C5.50074 12.5491 5.37539 13.0053 5.375 13.4702V34.5302C5.37539 34.995 5.50074 35.4512 5.73791 35.851C5.97508 36.2508 6.31536 36.5795 6.72312 36.8027C7.1347 37.0279 7.59911 37.1387 8.06802 37.1235C8.53694 37.1083 8.99321 36.9678 9.38937 36.7164L24.875 26.852V34.5302C24.8754 34.995 25.0007 35.4512 25.2379 35.851C25.4751 36.2508 25.8154 36.5795 26.2231 36.8027C26.6347 37.0279 27.0991 37.1387 27.568 37.1235C28.0369 37.1083 28.4932 36.9678 28.8894 36.7164L45.4231 26.1845C45.7914 25.9513 46.0947 25.6287 46.3049 25.2468C46.5151 24.8649 46.6253 24.4361 46.6253 24.0002C46.6253 23.5643 46.5151 23.1354 46.3049 22.7535C46.0947 22.3716 45.7914 22.049 45.4231 21.8158ZM24.7156 24.287L8.1875 34.817C8.13223 34.8536 8.06785 34.8741 8.0016 34.876C7.93535 34.878 7.86987 34.8615 7.8125 34.8283C7.75586 34.8019 7.70803 34.7598 7.67477 34.7069C7.64151 34.654 7.62422 34.5926 7.625 34.5302V13.4702C7.62422 13.4077 7.64151 13.3463 7.67477 13.2934C7.70803 13.2406 7.75586 13.1984 7.8125 13.172C7.86965 13.1397 7.93431 13.1228 8 13.1233C8.06695 13.125 8.13201 13.1458 8.1875 13.1833L24.7231 23.7133C24.772 23.7436 24.8123 23.7858 24.8402 23.836C24.8682 23.8862 24.8828 23.9427 24.8828 24.0002C24.8828 24.0576 24.8682 24.1141 24.8402 24.1643C24.8123 24.2145 24.772 24.2568 24.7231 24.287H24.7156ZM44.2156 24.287L27.6875 34.817C27.6322 34.8536 27.5679 34.8741 27.5016 34.876C27.4354 34.878 27.3699 34.8615 27.3125 34.8283C27.2559 34.8019 27.208 34.7598 27.1748 34.7069C27.1415 34.654 27.1242 34.5926 27.125 34.5302V13.4702C27.1242 13.4077 27.1415 13.3463 27.1748 13.2934C27.208 13.2406 27.2559 13.1984 27.3125 13.172C27.3697 13.1397 27.4343 13.1228 27.5 13.1233C27.5669 13.125 27.632 13.1458 27.6875 13.1833L44.2231 23.7133C44.272 23.7436 44.3123 23.7858 44.3402 23.836C44.3682 23.8862 44.3828 23.9427 44.3828 24.0002C44.3828 24.0576 44.3682 24.1141 44.3402 24.1643C44.3123 24.2145 44.272 24.2568 44.2231 24.287H44.2156Z" fill="#1EBB5F"/>
</svg>
