<svg width="49" height="48" viewBox="0 0 49 48" fill="none" xmlns="http://www.w3.org/2000/svg">
    <path d="M33.7498 18.8498C33.9751 18.6244 34.1017 18.3188 34.1017 18.0002C34.1017 17.6815 33.9751 17.3759 33.7498 17.1506C33.5245 16.9252 33.2189 16.7986 32.9002 16.7986C32.5815 16.7986 32.2759 16.9252 32.0506 17.1506L23.3002 25.9034L19.3498 21.9506C19.2382 21.839 19.1058 21.7505 18.96 21.6901C18.8142 21.6297 18.658 21.5986 18.5002 21.5986C18.3424 21.5986 18.1862 21.6297 18.0404 21.6901C17.8946 21.7505 17.7622 21.839 17.6506 21.9506C17.539 22.0621 17.4505 22.1946 17.3901 22.3404C17.3298 22.4861 17.2987 22.6424 17.2987 22.8002C17.2987 22.9579 17.3298 23.1142 17.3901 23.26C17.4505 23.4057 17.539 23.5382 17.6506 23.6498L22.4506 28.4498C22.5621 28.5615 22.6945 28.6502 22.8403 28.7107C22.9861 28.7712 23.1424 28.8023 23.3002 28.8023C23.458 28.8023 23.6143 28.7712 23.7601 28.7107C23.9059 28.6502 24.0383 28.5615 24.1498 28.4498L33.7498 18.8498ZM25.165 5.00176C24.9681 4.8707 24.7368 4.80078 24.5002 4.80078C24.2636 4.80078 24.0323 4.8707 23.8354 5.00176C19.3045 8.05623 14.1397 10.0429 8.7298 10.8122C8.44396 10.8532 8.18249 10.9959 7.99337 11.2141C7.80425 11.4323 7.70016 11.7114 7.7002 12.0002V22.8002C7.7002 32.1386 13.237 38.9522 24.0682 43.121C24.3462 43.2282 24.6542 43.2282 24.9322 43.121C35.7634 38.9522 41.3002 32.1362 41.3002 22.8002V12.0002C41.3002 11.711 41.1957 11.4317 41.0061 11.2134C40.8165 10.9951 40.5545 10.8526 40.2682 10.8122C34.8591 10.0425 29.6952 8.05589 25.165 5.00176ZM10.1002 13.0274C14.8547 12.2221 19.4144 10.5268 23.5402 8.03056L24.5002 7.43296L25.4602 8.03056C29.586 10.5268 34.1457 12.2221 38.9002 13.0274V22.8002C38.9002 30.941 34.177 36.8714 24.5002 40.7114C14.8234 36.8714 10.1002 30.9434 10.1002 22.8002V13.0274Z" fill="#1EBB5F"/>
</svg>
