<svg width="48" height="48" viewBox="0 0 48 48" fill="none" xmlns="http://www.w3.org/2000/svg">
    <g clip-path="url(#clip0_164_518)">
        <path d="M28.5254 47.9879C14.8926 47.9879 14.7877 47.4225 13.0994 46.1512C12.2039 45.4777 10.5142 45.0112 4.34248 44.6092C3.89473 44.58 3.46873 44.4082 3.18302 44.0617C3.05177 43.902 -0.0322266 39.4042 -0.0322266 32.2005C-0.0322266 25.1017 2.17502 21.8662 2.26948 21.7162C2.40413 21.5005 2.59148 21.3225 2.81388 21.1992C3.03628 21.0759 3.28642 21.0112 3.54073 21.0112C8.60848 21.0112 15.6337 14.5424 20.3565 3.25045C21.1732 1.29745 21.342 0.0126953 24.342 0.0126953C26.0482 0.0126953 27.9607 1.23445 28.905 2.80199C30.8422 6.00449 29.8582 12.8828 28.9484 16.5585C32.0422 16.5338 37.6424 16.4917 40.3072 16.4917C44.0137 16.4917 46.4669 18.702 46.5411 21.933C46.5659 22.9995 46.4256 24.3615 46.1174 25.0665C46.9334 25.8802 47.9857 27.1072 48.0314 28.6875C48.0884 30.7275 46.7526 32.2807 45.8999 33.1717C46.0956 33.7649 46.4871 34.5517 46.4488 35.4922C46.355 37.8052 44.5693 39.2955 43.4571 40.0732C43.5493 40.7062 43.6213 41.9002 43.4181 42.8234C42.6156 46.5082 37.2118 47.988 28.5253 47.988L28.5254 47.9879ZM5.13818 41.5673C10.5142 42.0121 13.3881 42.6143 14.9038 43.755C16.0768 44.6385 15.8961 44.9888 28.5253 44.9888C32.3773 44.9888 39.9111 44.8283 40.4886 42.1838C40.7181 41.1263 39.6029 40.0868 39.5991 40.0786C39.2946 39.3271 39.6336 38.445 40.3761 38.1203C40.3881 38.1143 43.3828 37.0418 43.4511 35.3678C43.4961 34.2976 42.7611 33.6548 42.7446 33.6278C42.3074 32.9498 42.4671 32.0198 43.1301 31.5578C43.1376 31.5518 45.0778 30.3758 45.0306 28.7723C44.9938 27.4988 43.3161 26.6025 43.2651 26.5726C42.8901 26.3581 42.6171 25.9868 42.5316 25.5623C42.4476 25.1386 42.5421 24.6938 42.8053 24.3496C42.8053 24.3496 43.5681 23.1376 43.5403 22.0006C43.4856 19.5668 40.8681 19.4903 40.3063 19.4903C36.5226 19.4903 26.8049 19.5286 26.8049 19.5286C26.2807 19.5308 25.8269 19.2833 25.5449 18.8641C25.2637 18.4448 25.2427 17.9243 25.4077 17.4473C26.8731 13.2271 27.6914 6.60609 26.3324 4.34409C25.9319 3.67734 25.8404 3.01134 24.3404 3.01134C24.1326 3.01134 23.6377 3.17559 23.1217 4.40559C18.1094 16.3981 10.6229 23.3348 4.49093 23.9603C3.96218 25.1663 2.96768 27.6653 2.96768 32.1998C2.96768 36.8281 4.43388 40.4085 5.13818 41.5673Z" fill="#1EBB5F"/>
    </g>
    <defs>
        <clipPath id="clip0_164_518">
            <rect width="48" height="48" fill="white"/>
        </clipPath>
    </defs>
</svg>
