<svg width="48" height="48" viewBox="0 0 48 48" fill="none" xmlns="http://www.w3.org/2000/svg">
    <path d="M21.75 33C21.75 33.3978 21.592 33.7794 21.3107 34.0607C21.0294 34.342 20.6478 34.5 20.25 34.5H15C14.6022 34.5 14.2206 34.342 13.9393 34.0607C13.658 33.7794 13.5 33.3978 13.5 33C13.5 32.6022 13.658 32.2206 13.9393 31.9393C14.2206 31.658 14.6022 31.5 15 31.5H20.25C20.6478 31.5 21.0294 31.658 21.3107 31.9393C21.592 32.2206 21.75 32.6022 21.75 33ZM33 31.5H27.75C27.3522 31.5 26.9706 31.658 26.6893 31.9393C26.408 32.2206 26.25 32.6022 26.25 33C26.25 33.3978 26.408 33.7794 26.6893 34.0607C26.9706 34.342 27.3522 34.5 27.75 34.5H33C33.3978 34.5 33.7794 34.342 34.0607 34.0607C34.342 33.7794 34.5 33.3978 34.5 33C34.5 32.6022 34.342 32.2206 34.0607 31.9393C33.7794 31.658 33.3978 31.5 33 31.5ZM46.5 40.5C46.5 40.8978 46.342 41.2794 46.0607 41.5607C45.7794 41.842 45.3978 42 45 42H3C2.60218 42 2.22064 41.842 1.93934 41.5607C1.65804 41.2794 1.5 40.8978 1.5 40.5C1.5 40.1022 1.65804 39.7206 1.93934 39.4393C2.22064 39.158 2.60218 39 3 39H6V16.5C6 16.2214 6.07757 15.9484 6.22402 15.7114C6.37048 15.4744 6.58002 15.2829 6.82918 15.1584C7.07834 15.0338 7.35727 14.981 7.63471 15.0061C7.91215 15.0311 8.17715 15.1329 8.4 15.3L18 22.5V16.5C18 16.2214 18.0776 15.9484 18.224 15.7114C18.3705 15.4744 18.58 15.2829 18.8292 15.1584C19.0783 15.0338 19.3573 14.981 19.6347 15.0061C19.9122 15.0311 20.1771 15.1329 20.4 15.3L27.6637 20.7469L29.8313 5.57625C29.9362 4.86254 30.2936 4.21012 30.8386 3.73742C31.3835 3.26473 32.0799 3.00309 32.8013 3H36.1987C36.9201 3.00309 37.6165 3.26473 38.1614 3.73742C38.7064 4.21012 39.0638 4.86254 39.1688 5.57625L41.9813 25.2881C41.9813 25.2881 41.9963 25.4344 41.9963 25.5V39H44.9963C45.1936 38.9995 45.389 39.0379 45.5714 39.1131C45.7538 39.1883 45.9197 39.2987 46.0593 39.438C46.199 39.5774 46.3098 39.7429 46.3855 39.9251C46.4611 40.1073 46.5 40.3027 46.5 40.5ZM30.4013 22.8L32.0006 24H38.7713L36.1987 6H32.8013L30.4013 22.8ZM9 39H39V27H31.5C31.1754 27 30.8596 26.8947 30.6 26.7L27.9 24.675L21 19.5V25.5C21 25.7786 20.9224 26.0516 20.776 26.2886C20.6295 26.5256 20.42 26.7171 20.1708 26.8416C19.9217 26.9662 19.6427 27.019 19.3653 26.9939C19.0879 26.9689 18.8229 26.8671 18.6 26.7L9 19.5V39Z" fill="#1EBB5F"/>
</svg>
