<svg width="49" height="48" viewBox="0 0 49 48" fill="none" xmlns="http://www.w3.org/2000/svg">
    <path d="M36.6125 11.9293L25.35 14.4321V39.9H29C29.2254 39.9 29.4416 39.9896 29.601 40.149C29.7604 40.3084 29.85 40.5246 29.85 40.75C29.85 40.9754 29.7604 41.1916 29.601 41.351C29.4416 41.5104 29.2254 41.6 29 41.6H20C19.7746 41.6 19.5584 41.5104 19.399 41.351C19.2396 41.1916 19.15 40.9754 19.15 40.75C19.15 40.5246 19.2396 40.3084 19.399 40.149C19.5584 39.9896 19.7746 39.9 20 39.9H23.65V14.8121L12.1603 17.3621L17.7884 31.4332L36.6125 11.9293ZM36.6125 11.9293L31.2116 25.4407L36.6125 11.9293ZM4.15 31.75V31.7499C4.15014 31.6414 4.17103 31.5341 4.21153 31.4335L4.15 31.75ZM4.15 31.75C4.15 33.7057 5.21102 35.0469 6.59399 35.8946C7.97371 36.7403 9.68006 37.1 11 37.1C12.3199 37.1 14.0263 36.7403 15.406 35.8946C16.789 35.0469 17.85 33.7057 17.85 31.75V31.7499M4.15 31.75L17.85 31.7499M17.85 31.7499C17.8499 31.6414 17.829 31.5341 17.7885 31.4335L17.85 31.7499ZM11 37C13.61 37 17.75 35.575 17.75 31.75L4.30438 31.4706C4.26858 31.5594 4.25013 31.6543 4.25 31.75C4.25 35.575 8.39 37 11 37ZM10.2115 16.4335L4.21163 31.4332L31.2115 25.441C31.1721 25.5389 31.1512 25.6433 31.15 25.7489V25.75C31.15 27.7057 32.211 29.0469 33.594 29.8946C34.9737 30.7403 36.6801 31.1 38 31.1C39.3199 31.1 41.0263 30.7403 42.406 29.8946C43.789 29.0469 44.85 27.7057 44.85 25.75V25.7499C44.8499 25.6414 44.8289 25.5339 44.7884 25.4332L38.7885 10.4335L38.7884 10.4332C38.7132 10.2468 38.5744 10.0931 38.3966 9.99933C38.2188 9.90558 38.0135 9.87786 37.8172 9.92109L37.8171 9.92112L25.35 12.6879V7.75C25.35 7.52457 25.2604 7.30837 25.101 7.14896C24.9416 6.98955 24.7254 6.9 24.5 6.9C24.2746 6.9 24.0584 6.98955 23.899 7.14896C23.7396 7.30837 23.65 7.52457 23.65 7.75V13.0679L10.8152 15.9211L10.8151 15.9211C10.6805 15.9512 10.5553 16.0135 10.4501 16.1027C10.345 16.1919 10.2631 16.3054 10.2116 16.4333L10.2115 16.4335ZM11 35.4C10.3409 35.4 9.07325 35.235 7.95935 34.7077C6.85232 34.1835 5.91626 33.3123 5.85084 31.904L11 19.0311L16.1492 31.904C16.0837 33.3123 15.1477 34.1835 14.0406 34.7077C12.9267 35.235 11.6591 35.4 11 35.4ZM38 29.4C37.3409 29.4 36.0733 29.235 34.9594 28.7077C33.8523 28.1835 32.9163 27.3123 32.8508 25.904L38 13.0311L43.1492 25.904C43.0837 27.3123 42.1477 28.1835 41.0406 28.7077C39.9267 29.235 38.6591 29.4 38 29.4Z" fill="#1EBB5F" stroke="#1EBB5F" stroke-width="0.2"/>
</svg>
