<svg width="100" height="71" viewBox="0 0 100 71" fill="none" xmlns="http://www.w3.org/2000/svg">
<g clip-path="url(#clip0_164_439)">
<path fill-rule="evenodd" clip-rule="evenodd" d="M86.1219 27.7617H88.9448L87.5498 30.7594H84.7269L86.1219 27.7617ZM91.2677 27.7617H94.0972L92.7022 30.7594H89.8858L91.2677 27.7617ZM79.9365 27.7617H83.5688L78.1532 40.0425H90.5438L96.5121 27.7617H100.019L93.551 41.38C93.2937 41.9013 92.9055 42.3466 92.4245 42.6724C91.9434 42.9981 91.386 43.193 90.807 43.2379H75.2645C73.8761 43.2379 73.6787 41.4393 74.4025 39.8515L79.9365 27.7617ZM50.0951 27.7617H33.6839C32.9856 27.779 32.3038 27.9775 31.7051 28.3378C31.1065 28.6981 30.6116 29.2079 30.2688 29.8173L24.7743 40.3917C23.9057 42.0783 24.6032 43.2379 26.1232 43.2379H42.3501L44.0149 39.9437H28.4987L29.9595 36.9855H50.7333L47.6538 43.2116H51.2269L57.1491 31.7345L58.906 38.7051H62.1961L70.0135 33.3619L65.1243 43.2445H68.7961L76.041 27.7617H71.9217L61.5052 35.6019L59.5246 27.7617H55.3066L52.3521 33.7374H31.5848L33.072 30.7594H48.5948L50.0951 27.7617ZM26.8207 27.7617H9.17251C8.65004 27.7709 8.13838 27.9123 7.6851 28.1726C7.23182 28.4329 6.85163 28.8038 6.5799 29.2507L0.19048 41.3734C-0.32278 42.3419 0.19048 43.2379 1.79606 43.2379H16.3121C17.8058 43.2379 19.4048 42.4012 20.4971 40.2468L23.7872 33.7374H14.6999L13.1601 36.9855H18.2138L16.7793 39.9239H4.60582L9.25148 30.7594H25.3007L26.8207 27.7617Z" fill="white"/>
</g>
<defs>
<clipPath id="clip0_164_439">
<rect width="100" height="15.4762" fill="white" transform="translate(0 27.7617)"/>
</clipPath>
</defs>
</svg>
