<svg width="120" height="100" viewBox="0 0 120 100" fill="none" xmlns="http://www.w3.org/2000/svg">
<g clip-path="url(#clip0_164_578)">
<path fill-rule="evenodd" clip-rule="evenodd" d="M96.1219 42.2617H98.9448L97.5498 45.2594H94.7269L96.1219 42.2617ZM101.268 42.2617H104.097L102.702 45.2594H99.8858L101.268 42.2617ZM89.9365 42.2617H93.5688L88.1532 54.5425H100.544L106.512 42.2617H110.019L103.551 55.88C103.294 56.4013 102.906 56.8466 102.424 57.1724C101.943 57.4981 101.386 57.693 100.807 57.7379H85.2645C83.8761 57.7379 83.6787 55.9393 84.4025 54.3515L89.9365 42.2617ZM60.0951 42.2617H43.6839C42.9856 42.279 42.3038 42.4775 41.7051 42.8378C41.1065 43.1981 40.6116 43.7079 40.2688 44.3173L34.7743 54.8917C33.9057 56.5783 34.6032 57.7379 36.1232 57.7379H52.3501L54.0149 54.4437H38.4987L39.9595 51.4855H60.7333L57.6538 57.7116H61.2269L67.1491 46.2345L68.906 53.2051H72.1961L80.0135 47.8619L75.1243 57.7445H78.7961L86.041 42.2617H81.9217L71.5052 50.1019L69.5246 42.2617H65.3066L62.3521 48.2374H41.5848L43.072 45.2594H58.5948L60.0951 42.2617ZM36.8207 42.2617H19.1725C18.65 42.2709 18.1384 42.4123 17.6851 42.6726C17.2318 42.9329 16.8516 43.3038 16.5799 43.7507L10.1905 55.8734C9.67722 56.8419 10.1905 57.7379 11.7961 57.7379H26.3121C27.8058 57.7379 29.4048 56.9012 30.4971 54.7468L33.7872 48.2374H24.6999L23.1601 51.4855H28.2138L26.7793 54.4239H14.6058L19.2515 45.2594H35.3007L36.8207 42.2617Z" fill="#1D2935"/>
</g>
<defs>
<clipPath id="clip0_164_578">
<rect width="100" height="15.4762" fill="white" transform="translate(10 42.2617)"/>
</clipPath>
</defs>
</svg>
