<svg width="120" height="100" viewBox="0 0 120 100" fill="none" xmlns="http://www.w3.org/2000/svg">
<g clip-path="url(#clip0_164_661)">
<path fill-rule="evenodd" clip-rule="evenodd" d="M33.9373 50C33.9373 56.5748 28.5788 61.9047 21.9687 61.9047C15.3586 61.9047 10 56.5748 10 50C10 43.4252 15.3586 38.0952 21.9687 38.0952C28.5788 38.0952 33.9373 43.4252 33.9373 50ZM30.9527 48.6533H29.2716L29.2574 48.6246C28.714 47.4866 27.5469 46.6945 26.2 46.6945C24.5988 46.6945 23.2512 47.8179 22.9035 49.3232H31.0827C31.0973 49.5749 31.1045 49.827 31.1045 50.0791C31.1045 52.78 28.9096 54.9765 26.1998 54.9765C23.7582 54.9765 21.722 53.1833 21.3601 50.8354H20.4037C20.4037 51.8223 20.0418 52.8303 19.5272 53.5289C18.7956 54.5154 17.6506 54.9765 16.4189 54.9765C15.1366 54.9765 14.0644 54.4578 13.3548 53.4495C12.442 52.1606 12.4051 50.6769 12.4202 49.3231H18.89V46.6583H17.926V45.1818H21.3678V46.6583H20.4183V49.3231H21.3604C21.7223 46.975 23.7585 45.1818 26.2001 45.1818C27.3883 45.1818 28.4749 45.5995 29.3222 46.2981V45.1747H30.9527V48.6533ZM14.0283 50.8352C14.0283 51.9156 14.6296 53.464 16.4407 53.464C17.4767 53.464 18.89 52.7725 18.89 50.8352H14.0283ZM22.9035 50.8352C23.2512 52.3406 24.5988 53.464 26.2 53.464C27.8081 53.464 29.1557 52.3406 29.5034 50.8352H22.9035Z" fill="#1D2935"/>
<path d="M69.1225 49.9997C69.1225 46.5095 70.9572 45.0248 74.2319 45.0248C76.1976 45.0248 77.3896 45.5976 78.163 46.3924L76.6957 47.864C76.1976 47.395 75.5552 46.9785 74.2185 46.9785C72.0964 46.9785 71.2712 48.0202 71.2712 50.0262C71.2712 52.1357 71.8474 53.1774 74.1921 53.1774C76.0784 53.1774 76.6297 52.5533 76.6297 51.1981V50.9901H73.9179V49.2184H78.7518V50.7947C78.7518 53.5432 77.6522 54.976 74.0888 54.976C70.21 54.9757 69.1225 53.2035 69.1225 49.9997ZM79.4995 51.3936V47.4604H81.557V51.4324C81.557 52.4609 81.5831 53.1773 83.0507 53.1773C84.5052 53.1773 84.5308 52.4478 84.5308 51.4192V47.4604H86.5482V51.3806C86.5482 53.9068 85.8671 54.9496 83.0376 54.9496C80.2071 54.9494 79.4995 53.9201 79.4995 51.3936ZM87.2583 51.1329C87.2583 49.0753 87.9388 47.291 91.1099 47.291C94.3712 47.291 94.4768 49.4526 94.4109 51.9143H89.2489C89.3667 52.8004 89.7988 53.3208 91.1232 53.3208C92.2625 53.3208 92.9037 53.0479 93.4546 52.6437L94.4902 53.9723C93.5341 54.6886 92.5894 54.9754 91.1232 54.9754C87.9122 54.9754 87.2583 53.2298 87.2583 51.1329ZM89.2489 50.4554H92.5381C92.4851 49.6094 92.3155 48.9971 91.044 48.9971C89.7723 48.997 89.3537 49.5574 89.2489 50.4554ZM94.8697 54.025L95.9177 52.5266C96.6914 53.0218 97.7006 53.2958 98.5378 53.2958C99.5736 53.2958 99.8745 53.1904 99.8745 52.6822C99.8745 52.2531 99.5737 52.1621 98.5644 52.0318C96.7307 51.7842 95.3281 51.5235 95.3281 49.5962C95.3281 48.0983 96.2197 47.2912 98.5644 47.2912C99.7565 47.2912 100.909 47.5256 101.696 47.9681L100.713 49.5574C100.188 49.2834 99.3775 49.0753 98.6302 49.0753C97.5814 49.0753 97.372 49.2576 97.372 49.6093C97.372 50.026 97.6344 50.117 98.5909 50.2474C100.477 50.5082 101.879 50.7295 101.879 52.5663C101.879 54.2595 100.962 54.9496 98.4077 54.9496C97.1361 54.9494 95.8648 54.6888 94.8697 54.025ZM102.029 47.4602H103.34L103.693 45.6628L105.291 45.337V47.4602H107.047V49.2056H105.291V52.2395C105.291 52.8138 105.37 53.1258 106.248 53.1258H107.047V54.8311C106.746 54.8574 106.196 54.8574 105.828 54.8574C103.825 54.8574 103.247 54.1805 103.247 52.5397V49.2056H102.029V47.4602ZM37.1611 54.8313V52.9824H38.3273C39.4407 52.9824 39.7812 52.6176 39.7812 51.7064V45.1809H41.9172V51.784C41.9172 54.22 40.5415 54.8574 38.5891 54.8574C37.7505 54.8574 37.6067 54.8574 37.1611 54.8313ZM42.6854 51.1329C42.6854 48.6586 43.7728 47.291 46.5638 47.291C49.3543 47.291 50.4285 48.6586 50.4285 51.1329C50.4285 53.6077 49.3542 54.9757 46.5638 54.9757C43.7728 54.9757 42.6854 53.6078 42.6854 51.1329ZM48.3715 51.1851C48.3715 49.9347 47.9787 49.1532 46.5638 49.1532C45.1353 49.1532 44.7557 49.9347 44.7557 51.1851C44.7557 52.4347 45.1353 53.2298 46.5638 53.2298C47.9786 53.2298 48.3715 52.4345 48.3715 51.1851ZM51.1761 44.7251H53.22V47.9548C53.5215 47.6294 54.2288 47.291 55.6309 47.291C57.8716 47.291 58.2908 48.5282 58.2908 50.3644V54.8313H56.2469V50.7683C56.2469 49.8693 56.1423 49.2182 54.8973 49.2182C53.4692 49.2182 53.2334 49.8826 53.2334 50.8596V54.8313H51.1762L51.1761 44.7251ZM59.2273 47.5775L60.825 47.4604L60.9959 48.0983C61.3892 47.6684 62.1096 47.291 63.6813 47.291C65.9226 47.291 66.3414 48.5282 66.3414 50.3644V54.8313H64.2983V50.7683C64.2983 49.8693 64.1925 49.2182 62.9471 49.2182C61.519 49.2182 61.2834 49.8826 61.2834 50.8596V54.8313H59.2273V47.5775ZM108.928 46.6582C109.117 46.6582 109.175 46.6148 109.175 46.4564C109.175 46.2911 109.117 46.2477 108.928 46.2477H108.566V46.6582H108.928ZM108.885 46.9103H108.566V47.3928H108.276V45.9956H108.943C109.407 45.9956 109.479 46.1756 109.479 46.4492C109.479 46.6436 109.435 46.8165 109.189 46.8815L109.479 47.3928H109.16L108.885 46.9103ZM109.798 46.6871C109.798 46.1254 109.537 45.686 108.841 45.686C108.146 45.686 107.871 46.1254 107.871 46.6871C107.871 47.249 108.146 47.6955 108.841 47.6955C109.537 47.6955 109.798 47.2488 109.798 46.6871ZM107.697 46.6871C107.697 46.0245 108.073 45.506 108.841 45.506C109.61 45.506 110 46.0245 110 46.6871C110 47.357 109.61 47.8682 108.841 47.8682C108.073 47.8681 107.697 47.357 107.697 46.6871Z" fill="#1D2935"/>
</g>
<defs>
<clipPath id="clip0_164_661">
<rect width="100" height="23.8095" fill="white" transform="translate(10 38.0952)"/>
</clipPath>
</defs>
</svg>
