<svg width="100" height="71" viewBox="0 0 100 71" fill="none" xmlns="http://www.w3.org/2000/svg">
<g clip-path="url(#clip0_164_415)">
<path fill-rule="evenodd" clip-rule="evenodd" d="M23.9373 35.5C23.9373 42.0748 18.5788 47.4047 11.9687 47.4047C5.35856 47.4047 0 42.0748 0 35.5C0 28.9252 5.35856 23.5952 11.9687 23.5952C18.5788 23.5952 23.9373 28.9252 23.9373 35.5ZM20.9527 34.1532H19.2716L19.2574 34.1246C18.714 32.9866 17.5469 32.1944 16.2 32.1944C14.5988 32.1944 13.2512 33.3179 12.9035 34.8232H21.0827C21.0973 35.0749 21.1045 35.3269 21.1045 35.579C21.1045 38.2799 18.9096 40.4765 16.1998 40.4765C13.7582 40.4765 11.722 38.6832 11.3601 36.3353H10.4037C10.4037 37.3223 10.0418 38.3302 9.52717 39.0289C8.79561 40.0154 7.65064 40.4765 6.41885 40.4765C5.13662 40.4765 4.06435 39.9577 3.35475 38.9495C2.44201 37.6606 2.40506 36.1769 2.42019 34.8231H8.88999V32.1583H7.92605V30.6817H11.3678V32.1583H10.4183V34.8231H11.3604C11.7223 32.475 13.7585 30.6817 16.2001 30.6817C17.3883 30.6817 18.4749 31.0995 19.3222 31.7981V30.6746H20.9527V34.1532ZM4.02829 36.3352C4.02829 37.4155 4.62957 38.9639 6.44067 38.9639C7.47672 38.9639 8.88999 38.2724 8.88999 36.3352H4.02829ZM12.9035 36.3352C13.2512 37.8405 14.5988 38.9639 16.2 38.9639C17.8081 38.9639 19.1557 37.8405 19.5034 36.3352H12.9035Z" fill="white"/>
<path d="M59.1225 35.4997C59.1225 32.0095 60.9572 30.5248 64.2319 30.5248C66.1976 30.5248 67.3896 31.0976 68.163 31.8924L66.6957 33.364C66.1976 32.895 65.5552 32.4785 64.2185 32.4785C62.0964 32.4785 61.2712 33.5202 61.2712 35.5262C61.2712 37.6357 61.8474 38.6774 64.1921 38.6774C66.0784 38.6774 66.6297 38.0533 66.6297 36.6981V36.4901H63.9179V34.7184H68.7518V36.2947C68.7518 39.0432 67.6522 40.476 64.0888 40.476C60.21 40.4757 59.1225 38.7035 59.1225 35.4997ZM69.4995 36.8936V32.9604H71.557V36.9324C71.557 37.9609 71.5831 38.6773 73.0507 38.6773C74.5052 38.6773 74.5308 37.9478 74.5308 36.9192V32.9604H76.5482V36.8806C76.5482 39.4068 75.8671 40.4496 73.0376 40.4496C70.2071 40.4494 69.4995 39.4201 69.4995 36.8936ZM77.2583 36.6329C77.2583 34.5753 77.9388 32.791 81.1099 32.791C84.3712 32.791 84.4768 34.9526 84.4109 37.4143H79.2489C79.3667 38.3004 79.7988 38.8208 81.1232 38.8208C82.2625 38.8208 82.9037 38.5479 83.4546 38.1437L84.4902 39.4723C83.5341 40.1886 82.5894 40.4754 81.1232 40.4754C77.9122 40.4754 77.2583 38.7298 77.2583 36.6329ZM79.2489 35.9554H82.5381C82.4851 35.1094 82.3155 34.4971 81.044 34.4971C79.7723 34.497 79.3537 35.0574 79.2489 35.9554ZM84.8697 39.525L85.9177 38.0266C86.6914 38.5218 87.7006 38.7958 88.5378 38.7958C89.5736 38.7958 89.8745 38.6904 89.8745 38.1822C89.8745 37.7531 89.5737 37.6621 88.5644 37.5318C86.7307 37.2842 85.3281 37.0235 85.3281 35.0962C85.3281 33.5983 86.2197 32.7912 88.5644 32.7912C89.7565 32.7912 90.9092 33.0256 91.6957 33.4681L90.7129 35.0574C90.1883 34.7834 89.3775 34.5753 88.6302 34.5753C87.5814 34.5753 87.372 34.7576 87.372 35.1093C87.372 35.526 87.6344 35.617 88.5909 35.7474C90.4772 36.0082 91.8786 36.2295 91.8786 38.0663C91.8786 39.7595 90.9617 40.4496 88.4077 40.4496C87.1361 40.4494 85.8648 40.1888 84.8697 39.525ZM92.0288 32.9602H93.3401L93.6926 31.1628L95.2913 30.837V32.9602H97.0466V34.7056H95.2913V37.7395C95.2913 38.3138 95.3695 38.6258 96.2478 38.6258H97.0466V40.3311C96.7457 40.3574 96.196 40.3574 95.828 40.3574C93.8248 40.3574 93.2474 39.6805 93.2474 38.0397V34.7056H92.0288V32.9602ZM27.1611 40.3313V38.4824H28.3273C29.4407 38.4824 29.7812 38.1176 29.7812 37.2064V30.6809H31.9172V37.284C31.9172 39.72 30.5415 40.3574 28.5891 40.3574C27.7505 40.3574 27.6067 40.3574 27.1611 40.3313ZM32.6854 36.6329C32.6854 34.1586 33.7728 32.791 36.5638 32.791C39.3543 32.791 40.4285 34.1586 40.4285 36.6329C40.4285 39.1077 39.3542 40.4757 36.5638 40.4757C33.7728 40.4757 32.6854 39.1078 32.6854 36.6329ZM38.3715 36.6851C38.3715 35.4347 37.9787 34.6532 36.5638 34.6532C35.1353 34.6532 34.7557 35.4347 34.7557 36.6851C34.7557 37.9347 35.1353 38.7298 36.5638 38.7298C37.9786 38.7298 38.3715 37.9345 38.3715 36.6851ZM41.1761 30.2251H43.22V33.4548C43.5215 33.1294 44.2288 32.791 45.6309 32.791C47.8716 32.791 48.2908 34.0282 48.2908 35.8644V40.3313H46.2469V36.2683C46.2469 35.3693 46.1423 34.7182 44.8973 34.7182C43.4692 34.7182 43.2334 35.3826 43.2334 36.3596V40.3313H41.1762L41.1761 30.2251ZM49.2273 33.0775L50.825 32.9604L50.9959 33.5983C51.3892 33.1684 52.1096 32.791 53.6813 32.791C55.9226 32.791 56.3414 34.0282 56.3414 35.8644V40.3313H54.2983V36.2683C54.2983 35.3693 54.1925 34.7182 52.9471 34.7182C51.519 34.7182 51.2834 35.3826 51.2834 36.3596V40.3313H49.2273V33.0775ZM98.9279 32.1582C99.1168 32.1582 99.1747 32.1148 99.1747 31.9564C99.1747 31.7911 99.1167 31.7477 98.9279 31.7477H98.5658V32.1582H98.9279ZM98.885 32.4103H98.566V32.8928H98.2763V31.4956H98.943C99.4066 31.4956 99.4787 31.6756 99.4787 31.9492C99.4787 32.1436 99.4351 32.3165 99.1891 32.3815L99.4787 32.8928H99.1603L98.885 32.4103ZM99.7978 32.1871C99.7978 31.6254 99.5366 31.186 98.8414 31.186C98.146 31.186 97.8706 31.6254 97.8706 32.1871C97.8706 32.749 98.146 33.1955 98.8414 33.1955C99.5366 33.1955 99.7978 32.7488 99.7978 32.1871ZM97.6969 32.1871C97.6969 31.5245 98.073 31.006 98.8414 31.006C99.6096 31.006 100 31.5245 100 32.1871C100 32.857 99.6096 33.3682 98.8414 33.3682C98.073 33.3681 97.6969 32.857 97.6969 32.1871Z" fill="white"/>
</g>
<defs>
<clipPath id="clip0_164_415">
<rect width="100" height="23.8095" fill="white" transform="translate(0 23.5952)"/>
</clipPath>
</defs>
</svg>
