<svg width="100" height="71" viewBox="0 0 100 71" fill="none" xmlns="http://www.w3.org/2000/svg">
<g clip-path="url(#clip0_340_6219)">
<path d="M38.848 35.2769V39.2964L34.9845 35.2769H32.1162V41.9306H33.9894V37.9696L37.8529 41.9306H40.7212V35.2769H38.848Z" fill="white"/>
<path d="M14.2044 36.6037H15.7263C16.5654 36.6037 17.0337 37.0134 17.0337 37.7159C17.0337 38.633 16.6044 38.9452 15.3556 38.9452L17.2483 41.9306H20.3313L18.38 39.1013C18.6727 39.0623 19.98 38.8866 19.98 37.15C19.98 35.2768 18.1068 35.2573 16.8971 35.2573H11.4336V41.9111H14.2239V36.6037H14.2044Z" fill="white"/>
<path d="M27.3167 35.2769V39.0037C27.3167 39.6281 27.1997 40.0769 26.9265 40.3501C26.6923 40.6038 26.3411 40.7208 25.8533 40.7208C25.3655 40.7208 25.0143 40.6038 24.7801 40.3501C24.5265 40.0769 24.3899 39.6281 24.3899 39.0037V35.2769H21.5801V39.1793C21.5801 40.233 21.7947 40.6818 22.2435 41.1306C22.9459 41.833 24.2923 42.1257 25.8533 42.1257C27.4338 42.1257 28.7802 41.833 29.4826 41.1306C29.9314 40.6818 30.146 40.233 30.146 39.1793V35.2769H27.3167Z" fill="white"/>
<path d="M47.0633 40.5647H45.6194V36.6232H47.0633C48.5658 36.6232 49.2682 37.2671 49.2682 38.594C49.2682 39.8623 48.5072 40.5647 47.0633 40.5647ZM47.3755 35.2769H42.8291V41.9306H47.3755C50.6926 41.9306 52.2536 41.2086 52.2536 38.594C52.2341 35.9598 50.6926 35.2769 47.3755 35.2769Z" fill="white"/>
<path d="M67.2586 40.7792C65.8342 40.7792 65.1123 40.0182 65.1123 38.5938C65.1123 37.1499 65.8147 36.4084 67.2586 36.4084C68.7221 36.4084 69.405 37.1499 69.405 38.5938C69.405 40.0962 68.7806 40.7792 67.2586 40.7792ZM67.2781 35.0815C63.6293 35.0815 62.0293 36.4084 62.0293 38.5743C62.0293 40.9743 63.6293 42.145 67.2781 42.145C70.8879 42.145 72.488 40.9743 72.488 38.5743C72.488 36.4084 70.8684 35.0815 67.2781 35.0815Z" fill="white"/>
<path d="M56.8 36.7013H60.6634L61.5415 35.2769H53.9316V41.9306H56.8V39.7647H59.961L60.8586 38.3403H56.8V36.7013Z" fill="white"/>
<path d="M6.76993 38.7304V40.6231C6.76993 40.6231 5.96992 40.7207 5.56016 40.7207C3.33574 40.7207 3.1016 39.5109 3.1016 38.6524C3.1016 37.2865 3.97966 36.5645 5.75529 36.5645C6.92603 36.5645 7.53092 36.6231 8.38947 36.7792L8.72118 36.8377L9.61875 35.3938C7.66751 35.1401 6.41871 35.1401 5.34553 35.1401C1.73572 35.1401 0.0966797 36.2719 0.0966797 38.7109C0.0966797 41.15 1.71621 42.1256 5.34553 42.1256C6.90652 42.1256 8.38947 42.0085 9.57973 41.7353V38.7499H6.76993V38.7304Z" fill="white"/>
<path d="M79.3176 37.7937C78.0103 37.5986 77.1908 37.5986 77.1908 36.9742C77.1908 36.3498 78.4981 36.3303 79.3371 36.3303C79.8445 36.3303 80.8201 36.4278 81.5811 36.5644L82.4006 35.2571C81.8347 35.179 80.3323 35.0229 78.6737 35.0229C75.6883 35.0229 73.7761 35.5498 73.7761 36.9937C73.7761 38.5352 75.3956 38.8084 77.0152 39.0815C78.2835 39.2767 79.103 39.3157 79.103 39.9206C79.103 40.6035 77.9908 40.7011 76.8786 40.7011C76.5664 40.7011 75.6103 40.6425 74.459 40.4084L73.5029 41.9304C74.7517 42.0669 75.3371 42.1645 77.6201 42.1645C80.9567 42.1645 82.5177 41.5596 82.5177 39.9206C82.5177 38.3986 80.8786 38.0279 79.3176 37.7937Z" fill="white"/>
<path d="M90.2641 41.9307H86.6934C89.2105 39.4136 91.6885 36.9355 91.6885 36.9355C91.6885 36.9355 91.9812 37.1112 92.6447 37.7551C93.3081 38.399 93.5032 38.7112 93.5032 38.7112L90.2641 41.9307Z" fill="white"/>
<path d="M88.6055 38.067C86.7128 35.7646 86.186 34.7499 85.6982 33.5597C85.386 32.7987 85.0152 31.2962 85.7957 30.5157C86.4982 29.8133 87.8641 30.0669 89.2299 30.6718C90.8104 31.3743 92.6251 32.6621 94.3422 34.2621L100.001 28.6035V32.1743L94.83 37.3451C94.83 37.3451 94.2641 36.7597 93.991 36.4865C90.947 33.5011 88.1372 32.0572 87.4348 32.7402C86.4982 33.6572 89.386 37.0329 89.5031 37.1695L88.6055 38.067Z" fill="white"/>
<path d="M100.001 41.9304H97.991C97.991 41.9304 97.7568 41.267 97.0544 40.1548C96.3519 39.0621 95.7275 38.4377 95.7275 38.4377L97.0934 37.0913C97.6398 37.7547 98.2251 38.5157 98.752 39.3743C99.2398 40.1743 99.6886 41.0328 100.001 41.9304Z" fill="white"/>
</g>
<defs>
<clipPath id="clip0_340_6219">
<rect width="100" height="33.3333" fill="white" transform="translate(0 18.8335)"/>
</clipPath>
</defs>
</svg>
