<svg width="120" height="100" viewBox="0 0 120 100" fill="none" xmlns="http://www.w3.org/2000/svg">
<path d="M60 21.4287L10 37.0793V62.921L60 78.5716L110 62.921V37.0793L60 21.4287Z" stroke="#1D2935"/>
<path fill-rule="evenodd" clip-rule="evenodd" d="M13.3086 39.991L59.9998 25.0684L106.691 39.991V60.0092L59.9998 74.9319L13.3086 60.0092V39.991ZM20.6615 44.7226V41.8109H32.4262V44.7226H28.7498V57.8254H25.0733V44.7226H20.6615ZM33.8968 57.8254V41.8109H44.9262V44.7226H38.3086V48.3623H42.7204V51.274H38.3086V54.9137H44.9262V57.8254H33.8968ZM59.6321 57.8254V41.8109H63.3086V48.3623H66.9851V41.8109H70.6615V57.8254H66.9851V51.274H63.3086V57.8254H59.6321ZM75.8086 57.8254H72.4998L76.1762 41.8109H78.3821H80.588L84.2645 57.8254H80.9556L80.2204 54.9137H78.3821H76.5439L75.8086 57.8254ZM57.4262 47.6343H53.7498C53.7498 46.1785 53.6762 43.9947 51.9115 43.9947C49.7057 43.9947 50.0733 47.2704 50.0733 50.5461C50.0733 53.8218 50.0733 55.6416 51.9115 55.6416C53.7498 55.6416 54.4851 54.1857 54.4851 52.7299H57.4262C57.6713 54.671 56.9115 58.5533 51.9115 58.5533C46.9115 58.5533 45.6615 55.1563 45.6615 53.4578V47.6343C45.6615 46.1785 46.3968 41.0829 51.9115 41.0829C56.3233 41.0829 57.4262 45.4505 57.4262 47.6343ZM86.838 57.8254V41.8109H94.9262C96.1517 41.8109 98.6027 42.7572 98.6027 46.5424C98.6027 50.3277 96.1517 51.274 94.9262 51.274H90.5145V57.8254H86.838Z" fill="#1D2935"/>
<path d="M90.5145 44.7226V48.3623H94.1909C94.436 48.3623 94.9262 47.9983 94.9262 46.5424C94.9262 45.0866 94.436 44.7226 94.1909 44.7226H90.5145Z" fill="#1D2935"/>
<path d="M78.3821 45.4505L76.9115 52.0019H78.3821H79.8527L78.3821 45.4505Z" fill="#1D2935"/>
</svg>
