<svg width="120" height="100" viewBox="0 0 120 100" fill="none" xmlns="http://www.w3.org/2000/svg">
<path fill-rule="evenodd" clip-rule="evenodd" d="M48.9212 46.4884C51.5704 46.4884 53.731 48.3529 53.731 50.6399C53.731 52.9269 51.5704 54.7912 48.9212 54.7912C46.272 54.7912 44.1115 52.9266 44.1115 50.6399C44.1115 48.3532 46.272 46.4884 48.9212 46.4884ZM48.7842 22.8232H72.3651C78.6693 22.8232 83.828 27.2758 83.828 32.7179V50.7576C83.828 56.1997 78.6696 60.6525 72.3651 60.6525H68.6516V54.7909H72.3651C74.9349 54.7909 77.0372 52.9763 77.0372 50.7576V32.7179C77.0372 30.4997 74.9349 28.6848 72.3651 28.6848H48.7842C46.2144 28.6848 44.1118 30.4997 44.1118 32.7179V34.9665L40.7164 32.0357L37.3213 34.9665V32.7179C37.3213 27.2758 42.4794 22.8232 48.7842 22.8232ZM44.1115 36.9226V41.5312C45.6203 40.9336 47.2611 40.6249 48.9212 40.6265C55.3102 40.6265 60.5212 45.1246 60.5212 50.6393C60.5212 52.1193 60.1445 53.5248 59.4714 54.7906H67.0491V60.6522H48.7842C42.4794 60.6522 37.3213 56.1997 37.3213 50.7573V36.922L40.7164 33.9918L44.1115 36.9226ZM79.1826 64.8224C81.2512 64.8224 82.9395 66.329 82.9395 68.1759C82.9395 69.3077 82.3037 70.3124 81.336 70.9193C82.3037 71.5271 82.9395 72.5314 82.9395 73.6638C82.9395 75.5107 81.2512 77.0173 79.1826 77.0173H68.6513V74.8033H69.8983V67.0359H68.6513V64.8224H79.1826ZM74.8851 67.0362H77.2018C77.337 67.0365 77.4666 67.083 77.5622 67.1655C77.6578 67.248 77.7117 67.3599 77.712 67.4766V69.4405C77.7117 69.5572 77.6578 69.6691 77.5622 69.7516C77.4666 69.8341 77.337 69.8806 77.2018 69.881H74.8851V67.0362ZM74.8851 71.9591H77.2018C77.3371 71.9594 77.4668 72.006 77.5624 72.0886C77.6581 72.1713 77.7118 72.2833 77.712 72.4001V74.3634C77.7117 74.4801 77.6578 74.592 77.5622 74.6745C77.4666 74.7571 77.337 74.8036 77.2018 74.8039H74.8851V71.9591ZM64.2666 64.8224H67.0495V68.6407H64.2673V68.6401C64.2666 68.6401 64.2666 68.6407 64.2666 68.6407C62.6473 67.2018 58.9577 66.207 58.3472 67.3435C57.5212 68.8813 61.6568 68.8153 64.6473 69.4914C68.7408 70.417 68.6344 74.588 65.3666 76.2884C64.1912 76.9006 62.6504 77.2498 60.9351 77.1646C59.3172 77.0842 57.8373 76.8695 56.5576 76.4651C56.3422 76.3971 56.36 76.4895 56.36 76.5932V77.0194H53.5775V73.2005H56.36V73.201C57.9793 74.64 62.2731 75.402 62.8829 74.2649C64.0879 72.0218 53.3725 73.588 53.3725 68.6117C53.3725 66.1774 55.9063 64.3424 59.6911 64.5313C61.3098 64.6123 62.7894 64.9717 64.0694 65.3761C64.2845 65.4441 64.2666 65.3523 64.2673 65.248L64.2666 64.8224ZM38.2092 74.8036H39.3048V67.0362H38.2092V64.8227H45.3878V67.0362H44.2922V69.7371L47.0741 67.0362H46.1414V64.8227H52.5778V67.0362H50.9952C50.8064 67.0362 50.7303 66.9958 50.4931 67.2517L47.7587 70.17L49.6445 70.2575C50.6836 70.3057 51.078 70.8885 51.2002 71.8768C51.3035 72.7121 51.1915 73.5314 51.2281 74.3498C51.2463 74.767 51.1413 74.8036 51.6004 74.8036H52.5102V77.0176H49.7832C46.9367 77.0176 46.3716 76.3218 46.3447 74.7989C46.3346 74.2237 46.3252 73.563 46.3164 72.8446C46.3154 72.7618 46.2579 72.6952 46.1229 72.6999H44.2922V74.8033H45.3878V77.0173H38.2092V74.8036Z" fill="#1D2935"/>
</svg>
