<svg width="120" height="100" viewBox="0 0 120 100" fill="none" xmlns="http://www.w3.org/2000/svg">
<g clip-path="url(#clip0_164_653)">
<path fill-rule="evenodd" clip-rule="evenodd" d="M15.6431 52.3428C14.6967 52.3428 14.1666 52.9892 14.1666 53.9079V54.5449H13.2916V55.4185H14.1666V59.1494H15.3697V55.4185H16.4087V54.5449H15.3697V53.9807C15.3697 53.624 15.4965 53.2709 15.8983 53.2709C16.1579 53.2709 16.3015 53.3721 16.4087 53.4347L16.5181 52.452C16.2855 52.3988 15.9472 52.3428 15.6431 52.3428ZM33.1791 52.452V59.1494H34.3639V52.452H33.1791ZM11.1406 52.5794V53.7077H12.3437V52.5794H11.1406ZM63.2564 52.5794V53.7077H64.4412V52.5794H63.2564ZM46.5589 53.2527L45.3558 53.6349V54.5449H44.4808V55.4185H45.3558V57.7662C45.3558 58.6762 45.8757 59.2586 46.8141 59.2586C47.1714 59.2586 47.4572 59.2207 47.7073 59.1494L47.6709 58.203C47.5462 58.2831 47.3384 58.3304 47.124 58.3304C46.6683 58.3304 46.5589 57.9584 46.5589 57.566V55.4185H47.6162V54.5449H46.5589V53.2527ZM19.8357 54.4539C19.3894 54.4539 18.8441 54.6381 18.4685 55.2001H18.4503V54.5449H17.3201V59.1494H18.5232V56.9108C18.5232 56.3132 18.6209 55.3639 19.4164 55.3639C20.104 55.3639 20.1091 55.9732 20.1091 56.4013V59.1494H21.294V56.9108C21.294 56.3132 21.3917 55.3639 22.1872 55.3639C22.8748 55.3639 22.8799 55.9732 22.8799 56.4013V59.1494H24.083V56.2557C24.083 55.2299 23.7592 54.4539 22.6247 54.4539C22.0618 54.4539 21.461 54.7014 21.1846 55.2547C20.925 54.684 20.4788 54.4539 19.8357 54.4539ZM29.8797 54.4539C28.4506 54.4539 27.7469 55.5452 27.7469 56.8744C27.7469 58.3814 28.6343 59.2586 30.1531 59.2586C30.7962 59.2586 31.3015 59.1356 31.739 58.8946V57.9118C31.2928 58.1615 30.7889 58.385 30.2078 58.385C29.467 58.385 28.9493 57.9599 28.8953 57.2202H32.0671C32.0671 55.6143 31.5859 54.4539 29.8797 54.4539ZM37.6086 54.4539C36.1795 54.4539 35.4759 55.5452 35.4759 56.8744C35.4759 58.3814 36.3633 59.2586 37.8821 59.2586C38.5252 59.2586 39.0122 59.1356 39.4497 58.8946V57.9118C39.0035 58.1615 38.4996 58.385 37.9185 58.385C37.177 58.385 36.66 57.9599 36.6061 57.2202H39.7961C39.7961 55.6143 39.3148 54.4539 37.6086 54.4539ZM42.8038 54.4539C41.3659 54.4539 40.5799 55.4913 40.5799 56.8198C40.5799 58.2205 41.3302 59.2586 42.8403 59.2586C43.331 59.2586 43.6948 59.2018 44.0434 59.0948L43.9887 58.112C43.7838 58.2016 43.3981 58.3304 43.059 58.3304C42.219 58.3304 41.8195 57.6672 41.8195 56.8198C41.8194 55.955 42.2992 55.3639 43.0408 55.3639C43.4068 55.3639 43.6285 55.4476 43.8428 55.5459L43.9522 54.5995C43.6219 54.5012 43.2865 54.4539 42.8038 54.4539ZM50.952 54.4539C50.2374 54.4539 49.7475 55.1732 49.6942 55.6005H49.676V54.5449H48.6005V59.1494H49.8036V57.4568C49.8036 56.7973 49.8145 55.5823 50.788 55.5823C51.0031 55.5823 51.2094 55.6289 51.3166 55.6915V54.4721C51.1912 54.4364 51.0679 54.4539 50.952 54.4539ZM54.142 54.4539C52.7844 54.4539 51.7358 55.3581 51.7358 56.8744C51.7359 58.195 52.6239 59.2586 54.142 59.2586C55.6703 59.2586 56.5482 58.195 56.5482 56.8744C56.5482 55.3581 55.5092 54.4539 54.142 54.4539ZM60.2851 54.4539C59.6602 54.4539 59.1476 54.6556 58.7721 55.1819H58.7539V54.5449H57.6237V59.1494H58.8268V56.8926C58.8268 56.3037 59.0171 55.3639 59.884 55.3639C60.6526 55.3639 60.6497 56.1305 60.6497 56.6925V59.1494H61.8527V56.2557C61.8527 55.2212 61.3752 54.4539 60.2851 54.4539ZM67.7771 54.4539C66.3392 54.4539 65.5532 55.4913 65.5532 56.8198C65.5532 58.2205 66.3035 59.2586 67.8135 59.2586C68.3042 59.2586 68.6688 59.2018 69.0166 59.0948L68.9619 58.112C68.7563 58.2016 68.372 58.3304 68.0323 58.3304C67.193 58.3304 66.7927 57.6672 66.7927 56.8198C66.7927 55.955 67.2725 55.3639 68.014 55.3639C68.3808 55.3639 68.6017 55.4476 68.8161 55.5459L68.9255 54.5995C68.5952 54.5012 68.2598 54.4539 67.7771 54.4539ZM11.1406 54.5449V59.1494H12.3437V54.5449H11.1406ZM63.2564 54.5449V59.1494H64.4412V54.5449H63.2564ZM29.9526 55.3275C30.6227 55.3275 30.883 55.8218 30.9187 56.4013H28.8953C28.9493 55.7861 29.2832 55.3275 29.9526 55.3275ZM37.6815 55.3275C38.3516 55.3275 38.6127 55.8218 38.6477 56.4013H36.6061C36.66 55.7861 37.0115 55.3275 37.6815 55.3275ZM54.142 55.3639C54.9288 55.3639 55.3087 56.0242 55.3087 56.7289C55.3086 57.4961 55.0622 58.3304 54.142 58.3304C53.2313 58.3304 52.9936 57.4874 52.9936 56.7289C52.9936 56.0416 53.3655 55.3639 54.142 55.3639Z" fill="#1D2935"/>
<path d="M72.1104 49.7626C72.1104 39.79 80.2075 31.7065 90.1954 31.7065C100.184 31.7065 108.28 39.79 108.28 49.7626C108.28 59.7345 100.184 67.8187 90.1954 67.8187C80.2075 67.8187 72.1104 59.7345 72.1104 49.7626Z" stroke="#1D2935" stroke-width="2.11301" stroke-miterlimit="3.864"/>
<path fill-rule="evenodd" clip-rule="evenodd" d="M72.1104 49.7626C72.1104 39.79 80.2075 31.7065 90.1954 31.7065C100.184 31.7065 108.28 39.79 108.28 49.7626C108.28 59.7345 100.184 67.8187 90.1954 67.8187C80.2075 67.8187 72.1104 59.7345 72.1104 49.7626ZM83.162 36.0358C81.644 36.0358 80.4095 37.2683 80.4095 38.7839V39.4742C79.9022 39.1498 79.3005 38.9614 78.655 38.9614C76.842 38.9614 75.3738 40.4485 75.3738 42.2601C75.3738 44.0702 76.8419 45.536 78.655 45.536C80.4687 45.536 81.9361 44.0702 81.9361 42.2601C81.9361 41.7212 81.8063 41.2111 81.5761 40.7603V38.7839C81.5761 37.9067 82.2834 37.2006 83.162 37.2006H89.7973V39.5119H86.1151C85.5558 39.5119 85.0943 39.9545 85.0943 40.5129V43.989C85.0943 44.5481 85.5558 44.99 86.1151 44.99H89.7973V46.5915H86.1151C85.5865 46.5915 85.1584 46.9868 85.1125 47.5015C85.1115 47.5152 85.1076 47.5291 85.1036 47.543L85.1036 47.543C85.099 47.5595 85.0943 47.576 85.0943 47.5925V58.0026H81.5761V47.5925C81.5761 47.5823 81.5765 47.5721 81.5768 47.562C81.5774 47.5419 81.5781 47.5219 81.5761 47.5015C81.5302 46.9861 81.0847 46.5915 80.5553 46.5915H75.7247V59.1492H76.8914V47.7381H80.1179C80.2783 47.7381 80.4095 47.8699 80.4095 48.0293V58.0026H77.894V59.1492H90.9457V51.2324C90.9457 51.137 91.0317 51.0686 91.128 51.0686H91.7842C91.8797 51.0686 91.9665 51.137 91.9665 51.2324V59.1492H97.7997V51.2324C97.7997 51.137 97.8857 51.0686 97.9819 51.0686H98.6382C98.7344 51.0686 98.8204 51.137 98.8205 51.2324V59.1492H104.672V47.5925C104.672 47.5756 104.667 47.559 104.663 47.5423C104.659 47.5288 104.655 47.5152 104.654 47.5015C104.608 46.9861 104.18 46.5915 103.651 46.5915H91.9665V47.7381H103.214C103.373 47.7381 103.505 47.8699 103.505 48.0293V58.0026H99.9689V50.923C99.9689 50.3646 99.5255 49.9038 98.9663 49.9038H97.6538C97.0946 49.9038 96.6512 50.3646 96.6512 50.923V58.0026H93.1149V50.923C93.1149 50.3646 92.6716 49.9038 92.1123 49.9038H90.7998C90.2406 49.9038 89.7973 50.3646 89.7973 50.923V58.0026H86.2609V48.0293C86.2609 47.8699 86.3929 47.7381 86.5526 47.7381H90.9457V43.8434H86.4432C86.3469 43.8434 86.2609 43.7568 86.2609 43.6614V40.8405C86.2609 40.7444 86.347 40.6585 86.4432 40.6585H90.9457V36.0358H83.162ZM80.569 42.2601C80.569 43.3212 79.7185 44.171 78.655 44.171C77.5922 44.171 76.7182 43.3211 76.7182 42.2601C76.7182 41.1983 77.5922 40.3264 78.655 40.3264C79.7185 40.3264 80.569 41.1982 80.569 42.2601Z" fill="#1D2935"/>
</g>
<defs>
<clipPath id="clip0_164_653">
<rect width="100" height="39" fill="white" transform="translate(10 30.5)"/>
</clipPath>
</defs>
</svg>
