<svg width="102" height="71" viewBox="0 0 102 71" fill="none" xmlns="http://www.w3.org/2000/svg">
<path d="M51 6.92871L1 22.5793V48.421L51 64.0716L101 48.421V22.5793L51 6.92871Z" stroke="white"/>
<path fill-rule="evenodd" clip-rule="evenodd" d="M4.30859 25.491L50.9998 10.5684L97.6909 25.491V45.5092L50.9998 60.4319L4.30859 45.5092V25.491ZM11.6615 30.2226V27.3109H23.4262V30.2226H19.7498V43.3254H16.0733V30.2226H11.6615ZM24.8968 43.3254V27.3109H35.9262V30.2226H29.3086V33.8623H33.7204V36.774H29.3086V40.4137H35.9262V43.3254H24.8968ZM50.6321 43.3254V27.3109H54.3086V33.8623H57.9851V27.3109H61.6615V43.3254H57.9851V36.774H54.3086V43.3254H50.6321ZM66.8086 43.3254H63.4998L67.1762 27.3109H69.3821H71.588L75.2645 43.3254H71.9556L71.2204 40.4137H69.3821H67.5439L66.8086 43.3254ZM48.4262 33.1343H44.7498C44.7498 31.6785 44.6762 29.4947 42.9115 29.4947C40.7056 29.4947 41.0733 32.7704 41.0733 36.0461C41.0733 39.3218 41.0733 41.1416 42.9115 41.1416C44.7498 41.1416 45.4851 39.6857 45.4851 38.2299H48.4262C48.6713 40.171 47.9115 44.0533 42.9115 44.0533C37.9115 44.0533 36.6615 40.6563 36.6615 38.9578V33.1343C36.6615 31.6785 37.3968 26.5829 42.9115 26.5829C47.3233 26.5829 48.4262 30.9505 48.4262 33.1343ZM77.838 43.3254V27.3109H85.9262C87.1517 27.3109 89.6027 28.2572 89.6027 32.0424C89.6027 35.8277 87.1517 36.774 85.9262 36.774H81.5145V43.3254H77.838Z" fill="white"/>
<path d="M81.5145 30.2226V33.8623H85.1909C85.436 33.8623 85.9262 33.4983 85.9262 32.0424C85.9262 30.5866 85.436 30.2226 85.1909 30.2226H81.5145Z" fill="white"/>
<path d="M69.3821 30.9505L67.9115 37.5019H69.3821H70.8527L69.3821 30.9505Z" fill="white"/>
</svg>
