<svg width="120" height="100" viewBox="0 0 120 100" fill="none" xmlns="http://www.w3.org/2000/svg">
<g clip-path="url(#clip0_340_6300)">
<path d="M48.848 49.7769V53.7964L44.9845 49.7769H42.1162V56.4306H43.9894V52.4696L47.8529 56.4306H50.7212V49.7769H48.848Z" fill="#1D2935"/>
<path d="M24.2044 51.1037H25.7263C26.5654 51.1037 27.0337 51.5134 27.0337 52.2159C27.0337 53.133 26.6044 53.4452 25.3556 53.4452L27.2483 56.4306H30.3313L28.38 53.6013C28.6727 53.5623 29.98 53.3866 29.98 51.65C29.98 49.7768 28.1068 49.7573 26.8971 49.7573H21.4336V56.4111H24.2239V51.1037H24.2044Z" fill="#1D2935"/>
<path d="M37.3167 49.7769V53.5037C37.3167 54.1281 37.1997 54.5769 36.9265 54.8501C36.6923 55.1038 36.3411 55.2208 35.8533 55.2208C35.3655 55.2208 35.0143 55.1038 34.7801 54.8501C34.5265 54.5769 34.3899 54.1281 34.3899 53.5037V49.7769H31.5801V53.6793C31.5801 54.733 31.7947 55.1818 32.2435 55.6306C32.9459 56.333 34.2923 56.6257 35.8533 56.6257C37.4338 56.6257 38.7802 56.333 39.4826 55.6306C39.9314 55.1818 40.146 54.733 40.146 53.6793V49.7769H37.3167Z" fill="#1D2935"/>
<path d="M57.0633 55.0647H55.6194V51.1232H57.0633C58.5658 51.1232 59.2682 51.7671 59.2682 53.094C59.2682 54.3623 58.5072 55.0647 57.0633 55.0647ZM57.3755 49.7769H52.8291V56.4306H57.3755C60.6926 56.4306 62.2536 55.7086 62.2536 53.094C62.2341 50.4598 60.6926 49.7769 57.3755 49.7769Z" fill="#1D2935"/>
<path d="M77.2586 55.2792C75.8342 55.2792 75.1123 54.5182 75.1123 53.0938C75.1123 51.6499 75.8147 50.9084 77.2586 50.9084C78.7221 50.9084 79.405 51.6499 79.405 53.0938C79.405 54.5962 78.7806 55.2792 77.2586 55.2792ZM77.2781 49.5815C73.6293 49.5815 72.0293 50.9084 72.0293 53.0743C72.0293 55.4743 73.6293 56.645 77.2781 56.645C80.8879 56.645 82.488 55.4743 82.488 53.0743C82.488 50.9084 80.8684 49.5815 77.2781 49.5815Z" fill="#1D2935"/>
<path d="M66.8 51.2013H70.6634L71.5415 49.7769H63.9316V56.4306H66.8V54.2647H69.961L70.8586 52.8403H66.8V51.2013Z" fill="#1D2935"/>
<path d="M16.7699 53.2304V55.1231C16.7699 55.1231 15.9699 55.2207 15.5602 55.2207C13.3357 55.2207 13.1016 54.0109 13.1016 53.1524C13.1016 51.7865 13.9797 51.0645 15.7553 51.0645C16.926 51.0645 17.5309 51.1231 18.3895 51.2792L18.7212 51.3377L19.6187 49.8938C17.6675 49.6401 16.4187 49.6401 15.3455 49.6401C11.7357 49.6401 10.0967 50.7719 10.0967 53.2109C10.0967 55.65 11.7162 56.6256 15.3455 56.6256C16.9065 56.6256 18.3895 56.5085 19.5797 56.2353V53.2499H16.7699V53.2304Z" fill="#1D2935"/>
<path d="M89.3176 52.2942C88.0103 52.0991 87.1908 52.0991 87.1908 51.4747C87.1908 50.8503 88.4981 50.8308 89.3371 50.8308C89.8445 50.8308 90.8201 50.9283 91.5811 51.0649L92.4006 49.7576C91.8347 49.6795 90.3323 49.5234 88.6737 49.5234C85.6883 49.5234 83.7761 50.0503 83.7761 51.4942C83.7761 53.0357 85.3956 53.3088 87.0152 53.582C88.2835 53.7771 89.103 53.8162 89.103 54.4211C89.103 55.104 87.9908 55.2016 86.8786 55.2016C86.5664 55.2016 85.6103 55.143 84.459 54.9089L83.5029 56.4308C84.7517 56.5674 85.3371 56.665 87.6201 56.665C90.9567 56.665 92.5177 56.0601 92.5177 54.4211C92.5177 52.8991 90.8786 52.5283 89.3176 52.2942Z" fill="#1D2935"/>
<path d="M100.264 56.4307H96.6934C99.2105 53.9136 101.689 51.4355 101.689 51.4355C101.689 51.4355 101.981 51.6112 102.645 52.2551C103.308 52.899 103.503 53.2112 103.503 53.2112L100.264 56.4307Z" fill="#1D2935"/>
<path d="M98.6055 52.567C96.7128 50.2646 96.186 49.2499 95.6982 48.0597C95.386 47.2987 95.0152 45.7962 95.7957 45.0157C96.4982 44.3133 97.8641 44.5669 99.2299 45.1718C100.81 45.8743 102.625 47.1621 104.342 48.7621L110.001 43.1035V46.6743L104.83 51.8451C104.83 51.8451 104.264 51.2597 103.991 50.9865C100.947 48.0011 98.1372 46.5572 97.4348 47.2402C96.4982 48.1572 99.386 51.5329 99.5031 51.6695L98.6055 52.567Z" fill="#1D2935"/>
<path d="M110.001 56.4309H107.991C107.991 56.4309 107.757 55.7675 107.054 54.6553C106.352 53.5626 105.728 52.9382 105.728 52.9382L107.093 51.5918C107.64 52.2552 108.225 53.0162 108.752 53.8748C109.24 54.6748 109.689 55.5333 110.001 56.4309Z" fill="#1D2935"/>
</g>
<defs>
<clipPath id="clip0_340_6300">
<rect width="100" height="33.3333" fill="white" transform="translate(10 33.3335)"/>
</clipPath>
</defs>
</svg>
