<svg width="52" height="20" viewBox="0 0 52 20" fill="none" xmlns="http://www.w3.org/2000/svg">
    <g clip-path="url(#clip0_640_827)">
        <path d="M14.5376 6.29492H16.8967V14.6114H14.5376V13.8138C14.3073 14.0847 14.1691 14.2441 13.7407 14.4668C13.2657 14.7224 12.4736 14.8493 11.9528 14.8493C11.432 14.8493 10.4671 14.77 9.91535 13.9735C9.50309 13.3685 9.42578 12.8748 9.42578 11.5202V6.29492H11.7997V11.4561C11.7997 11.8231 11.7997 12.1896 11.9832 12.4445C12.1214 12.635 12.5156 12.8999 13.0906 12.8999C13.2285 12.8999 13.6493 12.8575 14.0014 12.6502C14.5071 12.3319 14.5217 11.9178 14.5376 11.4725V6.29492H14.5376Z" fill="#506071"/>
        <path d="M2.30113 10.4299C2.30113 11.0352 2.39401 11.801 2.66938 12.2955C2.97549 12.8043 3.52771 13.0748 4.06416 13.0748C4.69138 13.0748 5.08966 12.7085 5.28951 12.4533C5.71791 11.8646 5.76371 10.7819 5.76371 10.4139C5.76371 9.09229 5.36472 7.81834 4.03188 7.89767C2.31726 7.99368 2.30113 9.93673 2.30113 10.4299ZM2.36306 3.40625V7.10156C2.69935 6.73614 3.29742 6.09874 4.66075 6.09874C5.94702 6.09874 8.11493 7.0217 8.11493 10.3345C8.11493 11.1795 7.97619 12.1674 7.62511 12.9001C7.21126 13.8387 6.17633 14.8904 4.58344 14.8904C3.17565 14.8904 2.53146 14.1264 2.24052 13.7916L2.33161 14.6674H0.0664062V3.40625H2.36306Z" fill="#506071"/>
        <path d="M21.0516 7.21335C21.5719 6.75161 22.139 6.3841 23.3646 6.25635V8.42406L22.5835 8.55102C21.4503 8.75885 21.113 8.93291 21.113 9.98522V14.6673H18.7539V6.33669H21.0515V7.21335H21.0516Z" fill="#506071"/>
        <path d="M24.5137 3.42236H26.8259V9.20286L29.4143 6.35172H32.2479L29.4906 9.31517L32.601 14.6671H29.874L27.821 11.0833L26.8096 12.0715V14.6671H24.5137V3.42236Z" fill="#506071"/>
        <path d="M38.286 9.47527C38.2394 9.12503 38.1769 8.66323 37.8412 8.29627C37.5499 7.99365 37.1062 7.83398 36.6936 7.83398C36.125 7.83398 35.7277 8.12115 35.497 8.37559C35.1761 8.74262 35.0998 9.12504 35.0225 9.47533H38.286V9.47527ZM40.6282 12.5499C40.3534 12.9794 40.0764 13.393 39.6629 13.7917C38.974 14.4603 37.9334 14.9696 36.6461 14.9696C34.2721 14.9696 32.6035 13.393 32.6035 10.6694C32.6035 8.66323 33.5515 6.08252 36.708 6.08252C37.1824 6.08252 38.5614 6.13042 39.5871 7.27719C40.6281 8.43942 40.6896 10.0647 40.7188 11.0039H35.0082C35.1381 12.0604 35.6167 13.0563 36.7976 13.0226C38.1432 12.9847 38.393 12.2259 38.8521 11.6091L40.6282 12.5499Z" fill="#506071"/>
        <path d="M44.3509 7.21335C44.8693 6.75161 45.4381 6.3841 46.6624 6.25635V8.42406L45.8823 8.55102C44.7491 8.75885 44.4112 8.93291 44.4112 9.98522V14.6673H42.0527V6.33669H44.3509V7.21335Z" fill="#506071"/>
        <path d="M48.1191 6.52714V3.94775H50.4634V6.54365H52.0118V8.37999H50.4471V11.7835C50.4327 12.2953 50.4327 12.7238 51.0598 12.7238L51.9027 12.6922V14.6033C51.3986 14.6829 51.092 14.7312 50.6615 14.7312C49.8497 14.7312 48.9627 14.6829 48.458 13.9177C48.136 13.4245 48.1191 12.8364 48.1191 12.039V6.4827" fill="#506071"/>
        <path d="M0.0507812 2.04869H7.62173V0H0.0507812V2.04869Z" fill="#506071"/>
        <path d="M9.68164 2.04869H11.7756V0H9.68164V2.04869Z" fill="#506071"/>
        <path d="M14.4512 2.04869H16.4743V0H14.4512V2.04869Z" fill="#506071"/>
        <path d="M18.7207 2.04869H51.9813V0H18.7207V2.04869Z" fill="#506071"/>
        <path d="M0.0507812 19.9156H0.621757V18.9945H2.07847V18.5727H0.621757V17.9622H2.16931V17.5337H0.0507812V19.9156Z" fill="#506071"/>
        <path d="M2.48242 19.9156H4.3287V19.4771H3.05673V17.5337H2.48242V19.9156Z" fill="#506071"/>
        <path d="M4.57422 18.9172C4.57422 19.2003 4.57729 19.5144 4.9374 19.7672C5.08023 19.8651 5.22296 19.9125 5.33332 19.9394C5.49224 19.9798 5.65449 19.9968 5.81674 19.9968C6.16404 19.9968 6.60529 19.9056 6.84198 19.6322C7.03671 19.4095 7.03671 19.1699 7.04009 18.9171V17.5337H6.46891V18.9373C6.47552 19.1768 6.42665 19.2543 6.37168 19.3219C6.28079 19.4299 6.14134 19.4906 5.92407 19.5109C5.75516 19.5175 5.58983 19.5244 5.40484 19.4332C5.18756 19.3254 5.14535 19.1465 5.14535 18.9339V17.5337H4.57422V18.9172Z" fill="#506071"/>
        <path d="M7.69531 19.9156H8.26962V17.5337H7.69531V19.9156Z" fill="#506071"/>
        <path fill-rule="evenodd" clip-rule="evenodd" d="M8.90625 19.9156H10.0873C10.4343 19.9124 10.8659 19.909 11.1873 19.4738C11.3462 19.2543 11.411 18.9844 11.411 18.7111C11.411 18.0972 11.0801 17.6114 10.4119 17.5473C10.3274 17.5372 10.243 17.5372 10.1588 17.5337H8.9063V19.9156H8.90625ZM10.1393 17.9555C10.3371 17.9588 10.5772 17.9622 10.7266 18.2086C10.7914 18.3164 10.84 18.4716 10.84 18.6978C10.84 18.998 10.7686 19.1632 10.7005 19.2612C10.548 19.4871 10.3143 19.4906 10.1101 19.494H9.47748V17.9555H10.1393Z" fill="#506071"/>
        <path d="M14.882 19.1093C14.8075 19.2544 14.655 19.558 14.1585 19.558C13.7237 19.558 13.3311 19.2477 13.3311 18.7283C13.3311 18.2726 13.6265 17.8982 14.1455 17.8982C14.59 17.8982 14.7684 18.1816 14.8301 18.2827L15.4596 18.2018C15.161 17.5203 14.4083 17.4595 14.1455 17.4595C13.422 17.4595 12.7344 17.8239 12.7344 18.7213C12.7344 19.5548 13.2986 19.9969 14.113 19.9969C14.6973 19.9969 15.0021 19.7975 15.1871 19.6222C15.3913 19.4265 15.4432 19.2544 15.4855 19.1061L14.882 19.1093Z" fill="#506071"/>
        <path fill-rule="evenodd" clip-rule="evenodd" d="M17.034 17.4592C16.2811 17.493 15.7168 17.9079 15.7168 18.7279C15.7168 19.4701 16.2067 19.9931 17.1313 19.9931C18.0559 19.9931 18.5297 19.46 18.5297 18.7007C18.5297 18.3026 18.3771 18.0393 18.2832 17.9214C17.9975 17.5604 17.485 17.439 17.034 17.4592ZM17.0988 17.8877C17.5564 17.8709 17.9423 18.1979 17.9423 18.731C17.9423 19.1901 17.6567 19.5678 17.1216 19.5678C16.677 19.5678 16.5081 19.3216 16.4531 19.2407C16.4109 19.1832 16.3069 19.0315 16.3069 18.7411C16.3069 18.1644 16.7159 17.9013 17.0988 17.8877Z" fill="#506071"/>
        <path d="M18.9336 19.9157H19.4787V18.6031C19.4754 18.4211 19.4754 18.3807 19.4593 18.1983C19.586 18.367 19.6343 18.4277 19.7546 18.5727L20.8902 19.9157H21.4578V17.5337H20.9096V18.7516C20.913 18.9575 20.913 19.0182 20.9321 19.2442C20.7896 19.0587 20.7637 19.0248 20.6274 18.8596L19.5049 17.5337H18.9336V19.9157H18.9336Z" fill="#506071"/>
        <path d="M21.7656 17.9689H22.6158V19.9156H23.1898V17.9689H24.04V17.5337H21.7656V17.9689Z" fill="#506071"/>
        <path fill-rule="evenodd" clip-rule="evenodd" d="M24.3457 19.9156H24.92V18.9575H25.572L26.1855 19.9156H26.8601L26.1656 18.9202C26.2566 18.9035 26.4159 18.8697 26.5387 18.772C26.7009 18.6438 26.7593 18.4276 26.7593 18.2456C26.7593 18.1072 26.727 17.9284 26.6104 17.7868C26.419 17.5571 26.1819 17.5337 25.9225 17.5337H24.3457V19.9156ZM24.92 17.9521H25.8088C26.0361 17.9521 26.0911 18.0093 26.1333 18.0668C26.1722 18.124 26.1789 18.2052 26.1789 18.2522C26.1789 18.519 25.9583 18.5356 25.8349 18.5356H24.92V17.9521H24.92Z" fill="#506071"/>
        <path fill-rule="evenodd" clip-rule="evenodd" d="M28.3893 17.4592C27.6368 17.493 27.0723 17.9079 27.0723 18.7279C27.0723 19.4701 27.5621 19.9931 28.487 19.9931C29.4114 19.9931 29.8854 19.46 29.8854 18.7007C29.8854 18.3026 29.7328 18.0393 29.6387 17.9214C29.3531 17.5604 28.8407 17.439 28.3893 17.4592ZM28.4542 17.8877C28.9118 17.8709 29.2978 18.1979 29.2978 18.731C29.2978 19.1901 29.0122 19.5678 28.4773 19.5678C28.0324 19.5678 27.8636 19.3216 27.8088 19.2407C27.7663 19.1832 27.6625 19.0315 27.6625 18.7411C27.6625 18.1644 28.0714 17.9013 28.4542 17.8877Z" fill="#506071"/>
        <path d="M30.3203 19.9156H32.1665V19.4771H30.8947V17.5337H30.3203V19.9156Z" fill="#506071"/>
        <path d="M33.4375 19.3185C33.7328 19.9226 34.3138 19.9899 34.69 19.9899C34.9785 19.9899 35.8549 19.963 35.8549 19.1971C35.8549 18.6741 35.4034 18.5727 35.1377 18.5225C35.0308 18.4988 34.5635 18.4176 34.4693 18.3973C34.2973 18.3569 34.1642 18.3164 34.1642 18.1613C34.1642 17.9351 34.4238 17.8845 34.6766 17.8845C34.7871 17.8845 34.9852 17.8982 35.1377 17.9755C35.2739 18.0465 35.3194 18.1344 35.339 18.1714L35.8836 18.0296C35.8385 17.9522 35.7377 17.7767 35.5043 17.645C35.2673 17.51 35.0114 17.4595 34.6767 17.4595C34.3138 17.4595 33.8915 17.5439 33.7006 17.8644C33.6418 17.9623 33.6094 18.0836 33.6094 18.2018C33.6094 18.7415 34.1418 18.8462 34.3527 18.8868C34.4597 18.907 34.9301 18.9813 35.0242 19.0016C35.1476 19.0249 35.3062 19.0657 35.3062 19.2376C35.3062 19.5277 34.8686 19.5513 34.7288 19.5513C34.4176 19.5513 34.0895 19.4636 33.96 19.1769L33.4375 19.3185Z" fill="#506071"/>
        <path d="M36.977 19.0214V19.9156H37.5512V19.0214L38.6445 17.5337H37.9469L37.3204 18.4481C37.2912 18.4918 37.2851 18.5053 37.2657 18.5525C37.2493 18.5053 37.2461 18.4918 37.2006 18.4311L36.5936 17.5337H35.8867L36.977 19.0214Z" fill="#506071"/>
        <path d="M38.4883 19.3185C38.7837 19.9226 39.3641 19.9899 39.7407 19.9899C40.0294 19.9899 40.9052 19.963 40.9052 19.1971C40.9052 18.6741 40.4542 18.5727 40.1887 18.5225C40.0811 18.4988 39.6143 18.4176 39.5202 18.3973C39.3482 18.3569 39.2151 18.3164 39.2151 18.1613C39.2151 17.9351 39.4745 17.8845 39.7274 17.8845C39.838 17.8845 40.0361 17.8982 40.1887 17.9755C40.3248 18.0465 40.3698 18.1344 40.3892 18.1714L40.9344 18.0296C40.8893 17.9522 40.7885 17.7767 40.5552 17.645C40.3181 17.51 40.0618 17.4595 39.7275 17.4595C39.3641 17.4595 38.9423 17.5439 38.7508 17.8644C38.6925 17.9623 38.6603 18.0836 38.6603 18.2018C38.6603 18.7415 39.1926 18.8462 39.4029 18.8868C39.5105 18.907 39.9809 18.9813 40.075 19.0016C40.1978 19.0249 40.357 19.0657 40.357 19.2376C40.357 19.5277 39.9188 19.5513 39.7796 19.5513C39.4679 19.5513 39.1403 19.4636 39.0103 19.1769L38.4883 19.3185Z" fill="#506071"/>
        <path d="M41.0273 17.9689H41.8774V19.9156H42.4517V17.9689H43.3014V17.5337H41.0273V17.9689Z" fill="#506071"/>
        <path d="M43.6035 19.9156H45.8035V19.4906H44.1778V18.9203H45.6868V18.4987H44.1778V17.9622H45.7384V17.5337H43.6035V19.9156Z" fill="#506071"/>
        <path d="M46.2441 19.9156H46.7857V18.239C46.779 18.1477 46.776 18.1274 46.7662 18.0263C46.7924 18.124 46.7985 18.1512 46.8343 18.2422L47.5191 19.9156H48.0412L48.726 18.2086C48.7583 18.124 48.768 18.0971 48.7906 18.0263C48.7777 18.1173 48.7681 18.178 48.7681 18.2488V19.9156H49.3101V17.5337H48.4891L47.8923 19.0181C47.8273 19.1835 47.8078 19.2441 47.7848 19.3456C47.7526 19.2105 47.7301 19.1464 47.6681 18.9911L47.0714 17.5337H46.2442L46.2441 19.9156Z" fill="#506071"/>
        <path d="M49.6035 19.3185C49.8988 19.9226 50.4798 19.9899 50.856 19.9899C51.1447 19.9899 52.0209 19.963 52.0209 19.1971C52.0209 18.6741 51.57 18.5727 51.3038 18.5225C51.1969 18.4988 50.7296 18.4176 50.6353 18.3973C50.4634 18.3569 50.3303 18.3164 50.3303 18.1613C50.3303 17.9351 50.5898 17.8845 50.8432 17.8845C50.9532 17.8845 51.1513 17.8982 51.3038 17.9755C51.44 18.0465 51.4856 18.1344 51.505 18.1714L52.0501 18.0296C52.0046 17.9522 51.9042 17.7767 51.6703 17.645C51.4339 17.51 51.1774 17.4595 50.8432 17.4595C50.4798 17.4595 50.058 17.5439 49.8665 17.8644C49.8082 17.9623 49.7755 18.0836 49.7755 18.2018C49.7755 18.7415 50.3077 18.8462 50.5187 18.8868C50.6256 18.907 51.096 18.9813 51.1902 19.0016C51.3135 19.0249 51.4722 19.0657 51.4722 19.2376C51.4722 19.5277 51.0346 19.5513 50.8949 19.5513C50.5837 19.5513 50.256 19.4636 50.1261 19.1769L49.6035 19.3185Z" fill="#506071"/>
    </g>
    <defs>
        <clipPath id="clip0_640_827">
            <rect width="52" height="20" fill="white"/>
        </clipPath>
    </defs>
</svg>
