<svg width="120" height="100" viewBox="0 0 120 100" fill="none" xmlns="http://www.w3.org/2000/svg">
<g clip-path="url(#clip0_164_641)">
<path d="M10.2178 47.8615H14.3356V48.7059H11.2928V50.9253H13.7535V51.76H11.2928V54.3062H14.5071V55.1441H10.2178V47.8615ZM15.8035 49.848H16.5856L16.7356 50.495C16.9596 50.2614 17.2331 50.0709 17.5398 49.9348C17.8465 49.7986 18.1803 49.7196 18.5213 49.7024C19.3606 49.7024 19.9321 50.0906 19.9321 50.9965V55.1441H18.9285V51.2941C18.9285 50.6924 18.7392 50.5241 18.2142 50.5241C17.6699 50.5842 17.1653 50.8128 16.7856 51.1712V55.1441H15.8035V49.848ZM21.2963 52.5333C21.2963 50.5468 21.9392 49.7121 23.3035 49.7121C23.8933 49.7374 24.4491 49.9694 24.8535 50.3591V47.4927H25.8571V55.1441H25.0785L24.9142 54.5941C24.7145 54.8076 24.4662 54.9794 24.1863 55.0978C23.9064 55.2161 23.6016 55.2783 23.2928 55.28C22.1713 55.28 21.2963 54.7106 21.2963 52.5333ZM24.8678 53.9277V51.0644C24.531 50.7321 24.0678 50.5275 23.5713 50.4918C22.7428 50.4918 22.3821 50.7668 22.3821 52.4686C22.3821 54.1703 22.6856 54.4971 23.4785 54.4971C23.7385 54.4927 23.9948 54.4398 24.2313 54.3419C24.4679 54.2439 24.6797 54.1029 24.8535 53.9277H24.8678ZM27.5356 49.848H28.3178L28.4785 50.5986C28.6633 50.353 28.9078 50.1492 29.1933 50.0028C29.4787 49.8564 29.7974 49.7714 30.1249 49.7541C30.1965 49.7525 30.2678 49.7624 30.3356 49.7833L30.2178 50.7539C30.102 50.7225 29.9814 50.7083 29.8606 50.7118C29.61 50.7136 29.3624 50.7626 29.1337 50.8556C28.905 50.9486 28.7002 51.0836 28.5321 51.2521V55.1344H27.5356V49.848ZM30.9249 52.4912C30.9249 50.4821 31.8356 49.7121 33.2142 49.7121C34.5928 49.7121 35.3928 50.4303 35.3928 52.3424V52.7015H31.9999C32.0213 54.1509 32.3571 54.51 33.3392 54.51C33.8516 54.5073 34.344 54.3294 34.7178 54.0118L35.2678 54.6589C34.7287 55.0822 34.0304 55.3011 33.3178 55.2703C31.7856 55.28 30.9249 54.4777 30.9249 52.4912ZM31.9963 52.0156H34.3178C34.3178 50.7991 34.0142 50.4303 33.1749 50.4303C32.4999 50.4303 32.0928 50.7474 32.0106 52.0156H31.9963ZM36.1749 54.7106L36.5963 54.0344C37.048 54.3433 37.5949 54.5164 38.1606 54.5294C38.9535 54.5294 39.1963 54.2447 39.1963 53.7465C39.1963 53.1544 38.8928 53.038 37.9606 52.805C37.1428 52.5883 36.4678 52.2065 36.4678 51.1583C36.4678 50.3883 37.0178 49.7121 38.2999 49.7121C38.865 49.6929 39.4252 49.8126 39.9213 50.0583L39.5642 50.7765C39.1879 50.5819 38.7618 50.4804 38.3285 50.4821C37.6963 50.4821 37.4071 50.6827 37.4071 51.1291C37.4071 51.5756 37.6499 51.7503 38.4571 51.9509C39.3535 52.1741 40.1713 52.4912 40.1713 53.685C40.1713 54.785 39.4821 55.2703 38.1071 55.2703C37.4143 55.2708 36.7388 55.0751 36.1749 54.7106ZM40.9463 54.7106L41.3678 54.0344C41.8194 54.3433 42.3664 54.5164 42.9321 54.5294C43.7249 54.5294 43.9713 54.2447 43.9713 53.7465C43.9713 53.1544 43.6678 53.038 42.7321 52.805C41.9178 52.6044 41.2392 52.2162 41.2392 51.168C41.2392 50.398 41.7892 49.7218 43.0713 49.7218C43.6364 49.7026 44.1966 49.8223 44.6928 50.068L44.3356 50.7862C43.9593 50.5916 43.5332 50.4901 43.0999 50.4918C42.4678 50.4918 42.1785 50.6924 42.1785 51.1389C42.1785 51.5853 42.4213 51.76 43.2285 51.9606C44.1249 52.1839 44.9428 52.5009 44.9428 53.6947C44.9428 54.7947 44.2535 55.28 42.8785 55.28C42.1846 55.2777 41.5089 55.0786 40.9463 54.7106ZM48.5999 52.4491H46.7249V51.6565H48.5999V49.7833H49.5463V51.6565H51.4285V52.4491H49.5606V54.3191H48.6142L48.5999 52.4491ZM53.7106 47.8615H54.7821V50.8412H57.6749V47.8615H58.7463V55.1441H57.6749V51.6986H54.7821V55.1441H53.7106V47.8615ZM60.1249 53.63C60.1249 52.4265 60.9071 51.8668 62.8213 51.8668H63.2999V51.4559C63.2999 50.8639 63.2178 50.5047 62.4571 50.5047C61.8546 50.5357 61.2702 50.7025 60.7571 50.99L60.3571 50.2912C61.0124 49.9132 61.7731 49.7123 62.5499 49.7121C63.6928 49.7121 64.2892 50.1747 64.2892 51.3071V55.1441H63.5071L63.3428 54.6136C63.1637 54.8128 62.9399 54.9753 62.6862 55.0902C62.4325 55.2051 62.1548 55.2698 61.8713 55.28C60.7678 55.28 60.1249 54.7203 60.1249 53.63ZM63.2999 53.9277V52.5203H62.9428C61.4713 52.5203 61.1928 52.86 61.1928 53.63C61.1928 54.3289 61.4356 54.5618 62.0071 54.5618C62.2599 54.5453 62.506 54.4802 62.7289 54.3709C62.9518 54.2615 63.1465 54.1104 63.2999 53.9277ZM65.8356 53.9277V49.848H66.8392V53.643C66.8392 54.2674 67.0713 54.4777 67.5963 54.4777C68.1321 54.4168 68.6275 54.1879 68.9963 53.8306V49.848H69.9999V55.1441H69.2213L69.0678 54.4971C68.8533 54.7302 68.5883 54.9208 68.2891 55.0572C67.9899 55.1935 67.6629 55.2727 67.3285 55.2897C67.1271 55.3057 66.9242 55.2814 66.7344 55.2185C66.5445 55.1555 66.3722 55.0556 66.2298 54.9256C66.0873 54.7956 65.9781 54.6388 65.91 54.4664C65.8419 54.2939 65.8165 54.11 65.8356 53.9277ZM71.1785 54.7106L71.5999 54.0344C72.0528 54.3398 72.5997 54.5095 73.1642 54.5197C73.9571 54.5197 74.1999 54.235 74.1999 53.7368C74.1999 53.1447 73.8963 53.0283 72.9642 52.7953C72.1463 52.5947 71.4713 52.2065 71.4713 51.1583C71.4713 50.3883 72.0213 49.7121 73.3035 49.7121C73.8685 49.6929 74.4288 49.8126 74.9249 50.0583L74.5678 50.7765C74.1915 50.5819 73.7653 50.4804 73.3321 50.4821C72.6999 50.4821 72.4106 50.6827 72.4106 51.1291C72.4106 51.5756 72.6535 51.7503 73.4606 51.9509C74.3571 52.1741 75.1749 52.4912 75.1749 53.685C75.1749 54.785 74.4856 55.2703 73.1106 55.2703C72.4179 55.2708 71.7423 55.0751 71.1785 54.7106ZM76.1499 52.4912C76.1499 50.4821 77.0606 49.7121 78.4356 49.7121C79.8106 49.7121 80.6178 50.4303 80.6178 52.3424V52.7015H77.2249C77.2463 54.1509 77.5821 54.51 78.5642 54.51C79.0766 54.5073 79.569 54.3294 79.9428 54.0118L80.4892 54.6589C79.9516 55.0823 79.2543 55.3013 78.5428 55.2703C77.0142 55.28 76.1499 54.4777 76.1499 52.4912ZM77.2213 52.0156H79.5428C79.5428 50.7991 79.2392 50.4303 78.3999 50.4303C77.7356 50.4303 77.3178 50.7474 77.2356 52.0156H77.2213ZM81.8963 49.848H82.6785L82.8428 50.5986C83.0276 50.353 83.2721 50.1492 83.5575 50.0028C83.843 49.8564 84.1617 49.7714 84.4892 49.7541C84.5596 49.7525 84.6298 49.7624 84.6963 49.7833L84.5821 50.7539C84.4662 50.7227 84.3457 50.7085 84.2249 50.7118C83.9737 50.7136 83.7256 50.7625 83.4964 50.8555C83.2671 50.9485 83.0616 51.0835 82.8928 51.2521V55.1344H81.8892L81.8963 49.848Z" fill="#1D2935"/>
<path fill-rule="evenodd" clip-rule="evenodd" d="M108.986 44.8235C108.869 44.7972 108.749 44.7842 108.629 44.7847H92.1859C91.8857 44.7846 91.5938 44.8744 91.3555 45.0399C91.1172 45.2054 90.9459 45.4376 90.8681 45.7003L88.5359 53.5847C88.4431 53.9021 88.4929 54.2399 88.6742 54.5243C88.8556 54.8086 89.1538 55.0163 89.5038 55.102C89.6205 55.1292 89.7404 55.1433 89.8609 55.1441H106.29C106.59 55.1434 106.882 55.053 107.12 54.8869C107.358 54.7209 107.53 54.4883 107.607 54.2253L109.94 46.3473C110.036 46.0307 109.99 45.6924 109.811 45.4066C109.632 45.1209 109.335 44.9111 108.986 44.8235ZM98.8359 54.1541H92.1859C92.1136 54.1532 92.0446 54.1266 91.9938 54.08C91.943 54.0334 91.9145 53.9705 91.9145 53.905V46.027C91.9145 45.9615 91.943 45.8987 91.9938 45.852C92.0446 45.8054 92.1136 45.7788 92.1859 45.7779H98.8359L98.1645 48.0426H94.8752V48.8256H97.1431L96.4716 51.0903H94.8859V51.8732H98.8466L98.8359 54.1541ZM106.496 54.08C106.547 54.0334 106.575 53.9705 106.575 53.905L106.561 46.0432C106.561 45.9777 106.532 45.9148 106.482 45.8682C106.431 45.8216 106.362 45.7949 106.29 45.7941H103.604V48.8482H102.693V45.7941H99.7324V48.8353H97.9181L97.2466 51.1H99.7466V54.1541H102.707V51.1H103.618V54.1541H106.304C106.376 54.1532 106.445 54.1266 106.496 54.08Z" fill="#1D2935"/>
</g>
<defs>
<clipPath id="clip0_164_641">
<rect width="100" height="11" fill="white" transform="translate(10 44.5)"/>
</clipPath>
</defs>
</svg>
