<svg width="100" height="71" viewBox="0 0 100 71" fill="none" xmlns="http://www.w3.org/2000/svg">
<path d="M19.1942 24.4966C17.9938 24.4966 16.2612 24.8678 13.1279 25.8815V45.107C15.8828 45.9808 17.9938 46.4919 19.1942 46.4919C21.9613 46.4919 23.5213 44.7196 23.5213 41.8766V29.1119C23.5213 26.2689 21.9613 24.4966 19.1942 24.4966ZM20.0959 41.3826C20.0959 42.4953 19.4575 42.8655 18.6941 42.8655C18.1 42.8655 17.1828 42.6395 16.4349 42.4254V28.5556C17.1828 28.3491 18.1 28.123 18.6941 28.123C19.4575 28.123 20.0959 28.4932 20.0959 29.6059V41.3826Z" fill="white"/>
<path d="M58.7556 21.0356C55.2516 20.858 53.165 22.4775 53.165 26.1857V44.6085C53.165 48.5234 55.0547 50.1343 58.7556 49.9653C62.3779 49.8006 64.2676 48.3587 64.2676 44.1964V26.6108C64.2676 22.6422 62.5582 21.2293 58.7556 21.0356ZM60.4483 44.2792C60.4483 45.3919 60.0943 45.9687 58.7556 46.0096C57.3781 46.0517 57.0042 45.4328 57.0042 44.2792V26.7217C57.0042 25.5681 57.3781 24.9289 58.7556 24.9709C60.0943 25.0118 60.4483 25.609 60.4483 26.7217V44.2792Z" fill="white"/>
<path d="M92.8174 28.2261V42.7383C97.1168 40.6001 99.5851 38.1154 99.5851 35.4531C99.5851 32.8199 97.1168 30.3481 92.8174 28.2261Z" fill="white"/>
<path d="M0.415039 35.4532C0.415039 38.1112 2.88005 40.6002 7.17836 42.734V28.2305C2.88005 30.3482 0.415039 32.82 0.415039 35.4532Z" fill="white"/>
<path d="M33.1662 43.6366C33.1662 44.7493 32.8 45.4542 31.4735 45.2852C30.1702 45.1205 29.8194 44.5427 29.8194 43.2245V22.3009C28.9542 22.3997 27.0247 22.6797 26.1982 22.8035V43.9659C26.1982 47.3449 27.7649 48.6599 31.4735 49.1043C34.8668 49.5121 36.9457 47.7161 36.9457 43.9659V21.6079C36.2376 21.6497 33.9142 21.8553 33.1662 21.9383V43.6366Z" fill="white"/>
<path d="M74.7591 36.7222L70.5659 22.4037C69.4241 22.2466 68.0466 22.0862 66.9834 21.9829V49.009C67.7313 48.9358 69.6376 48.7089 70.6212 48.5765L70.3223 32.6513L74.7589 47.9545C75.7038 47.7983 77.0812 47.5466 77.9874 47.3658V23.6186C77.0425 23.4249 75.3254 23.1204 74.4989 22.9891L74.7591 36.7222Z" fill="white"/>
<path d="M45.1582 21.1924C44.501 21.1924 42.1035 21.2784 39.8984 21.4151V49.5786C40.6464 49.6195 42.6146 49.7272 43.6778 49.7562V40.1918L45.1582 40.1887C49.1191 40.1765 50.7643 38.3185 50.7643 34.7416V26.4427C50.7643 22.9411 48.9144 21.1924 45.1582 21.1924ZM46.945 34.4446C46.945 35.6562 46.5401 36.2707 45.0044 36.275L43.6778 36.2781V25.1652C44.2687 25.1329 44.5829 25.1243 44.938 25.1243C46.5987 25.1243 46.945 25.784 46.945 27.0193V34.4446Z" fill="white"/>
<path d="M79.8574 27.7724C80.7934 27.9478 81.715 28.1426 82.6134 28.3492V46.3188C83.4399 46.1166 84.9756 45.6969 85.999 45.3794V29.1971C86.9815 29.464 87.9075 29.7309 88.755 29.9848V26.5198C86.082 25.5427 83.212 24.7475 79.8574 24.0146V27.7724Z" fill="white"/>
</svg>
