<svg width="100" height="71" viewBox="0 0 100 71" fill="none" xmlns="http://www.w3.org/2000/svg">
<path fill-rule="evenodd" clip-rule="evenodd" d="M50.0002 19.0601L0.835938 35.5L50.0002 51.9399L99.1644 35.5L50.0002 19.0601ZM26.2234 40.9251H26.2617V29.9578C26.2634 29.9512 26.268 29.9464 26.2716 29.9427C26.2743 29.9399 26.2765 29.9376 26.2765 29.9355C26.2765 29.9283 26.2725 29.9229 26.2686 29.9177C26.2658 29.9138 26.263 29.91 26.2617 29.9056V29.8872H26.2519C26.1762 29.6512 25.5803 29.4627 24.832 29.4627H24.8192V28.8176H34.9353C37.5007 28.8176 40.484 31.9538 40.484 35.5677C40.484 39.4765 37.1133 42.1117 34.9353 42.1117H24.8192V41.3922C25.5951 41.3845 26.2234 41.1814 26.2234 40.9251ZM34.6511 31.6231H29.3581V39.1883H34.6511C35.9648 39.1883 37.6197 37.9427 37.6157 35.5125C37.6118 32.9895 35.6895 31.6231 34.6511 31.6231ZM49.774 30.6802C54.0838 30.6802 56.9107 33.355 56.9107 36.6537C56.9107 40.0471 54.4781 42.2829 50.6895 42.5914H48.8596C45.071 42.2829 42.6354 40.0471 42.6354 36.6537C42.6354 33.3647 45.4387 30.6802 49.774 30.6802ZM49.7848 33.4663C47.3502 33.4663 45.7662 34.9604 45.7662 36.8132C45.7662 38.6622 47.3512 40.1602 49.7848 40.1602C52.2214 40.1602 53.8025 38.6622 53.8025 36.8132C53.8025 34.9604 52.2214 33.4663 49.7848 33.4663ZM77.1801 32.5727C77.1723 32.5814 73.3237 41.0499 73.3237 41.0499C73.3109 41.3942 73.3177 41.5634 74.127 41.5634V42.3032L68.8015 42.3428V41.5876C69.3177 41.5876 69.4603 41.4435 69.4603 41.0364C69.4603 40.8739 67.6039 36.2088 67.6039 36.2088L65.4318 40.8642C65.3806 40.9193 65.3688 40.9803 65.3688 41.048C65.3688 41.4764 65.596 41.5876 66.2017 41.5876H66.2047V42.3428L60.4604 42.3216V41.5595C60.9304 41.5479 61.3266 41.4696 61.3266 41.0189C61.3266 40.928 61.3266 40.8468 61.2952 40.7685L58.0926 32.624C58.0926 32.6224 58.0944 32.6204 58.0962 32.6182C58.0989 32.6151 58.1018 32.6118 58.0995 32.6095C58.0791 32.5727 58.0628 32.5374 58.0473 32.5038C57.9551 32.3045 57.8922 32.1685 57.1801 32.1685V31.391H62.4368V32.1685C62.0287 32.1685 61.7632 32.2023 61.7632 32.6095H61.7367L63.5292 37.8093L65.7347 31.7343H67.6039L69.3847 31.7246L71.7681 38.0588L73.8724 32.6327C73.8724 32.3957 73.7849 32.2023 73.1211 32.1907C73.1015 32.1888 72.9727 32.1888 72.9461 32.1888V31.3871L78.3414 31.3658V32.1917C78.3414 32.1917 77.8989 32.1897 77.7996 32.2081C77.4987 32.27 77.2981 32.4131 77.1801 32.5727Z" fill="white"/>
</svg>
