<svg width="100" height="71" viewBox="0 0 100 71" fill="none" xmlns="http://www.w3.org/2000/svg">
<g clip-path="url(#clip0_164_395)">
<path d="M0.217773 33.3615H4.33563V34.2059H1.29277V36.4253H3.75349V37.26H1.29277V39.8062H4.50706V40.6441H0.217773V33.3615ZM5.80349 35.348H6.58563L6.73563 35.995C6.95963 35.7614 7.23309 35.5709 7.53981 35.4348C7.84654 35.2986 8.1803 35.2196 8.52135 35.2024C9.36063 35.2024 9.93206 35.5906 9.93206 36.4965V40.6441H8.92849V36.7941C8.92849 36.1924 8.7392 36.0241 8.2142 36.0241C7.66992 36.0842 7.16526 36.3128 6.78563 36.6712V40.6441H5.80349V35.348ZM11.2963 38.0333C11.2963 36.0468 11.9392 35.2121 13.3035 35.2121C13.8933 35.2374 14.4491 35.4694 14.8535 35.8591V32.9927H15.8571V40.6441H15.0785L14.9142 40.0941C14.7145 40.3076 14.4662 40.4794 14.1863 40.5978C13.9064 40.7161 13.6016 40.7783 13.2928 40.78C12.1713 40.78 11.2963 40.2106 11.2963 38.0333ZM14.8678 39.4277V36.5644C14.531 36.2321 14.0678 36.0275 13.5713 35.9918C12.7428 35.9918 12.3821 36.2668 12.3821 37.9686C12.3821 39.6703 12.6856 39.9971 13.4785 39.9971C13.7385 39.9927 13.9948 39.9398 14.2313 39.8419C14.4679 39.7439 14.6797 39.6029 14.8535 39.4277H14.8678ZM17.5356 35.348H18.3178L18.4785 36.0986C18.6633 35.853 18.9078 35.6492 19.1933 35.5028C19.4787 35.3564 19.7974 35.2714 20.1249 35.2541C20.1965 35.2525 20.2678 35.2624 20.3356 35.2833L20.2178 36.2539C20.102 36.2225 19.9814 36.2083 19.8606 36.2118C19.61 36.2136 19.3624 36.2626 19.1337 36.3556C18.905 36.4486 18.7002 36.5836 18.5321 36.7521V40.6344H17.5356V35.348ZM20.9249 37.9912C20.9249 35.9821 21.8356 35.2121 23.2142 35.2121C24.5928 35.2121 25.3928 35.9303 25.3928 37.8424V38.2015H21.9999C22.0213 39.6509 22.3571 40.01 23.3392 40.01C23.8516 40.0073 24.344 39.8294 24.7178 39.5118L25.2678 40.1589C24.7287 40.5822 24.0304 40.8011 23.3178 40.7703C21.7856 40.78 20.9249 39.9777 20.9249 37.9912ZM21.9963 37.5156H24.3178C24.3178 36.2991 24.0142 35.9303 23.1749 35.9303C22.4999 35.9303 22.0928 36.2474 22.0106 37.5156H21.9963ZM26.1749 40.2106L26.5963 39.5344C27.048 39.8433 27.5949 40.0164 28.1606 40.0294C28.9535 40.0294 29.1963 39.7447 29.1963 39.2465C29.1963 38.6544 28.8928 38.538 27.9606 38.305C27.1428 38.0883 26.4678 37.7065 26.4678 36.6583C26.4678 35.8883 27.0178 35.2121 28.2999 35.2121C28.865 35.1929 29.4252 35.3126 29.9213 35.5583L29.5642 36.2765C29.1879 36.0819 28.7618 35.9804 28.3285 35.9821C27.6963 35.9821 27.4071 36.1827 27.4071 36.6291C27.4071 37.0756 27.6499 37.2503 28.4571 37.4509C29.3535 37.6741 30.1713 37.9912 30.1713 39.185C30.1713 40.285 29.4821 40.7703 28.1071 40.7703C27.4143 40.7708 26.7388 40.5751 26.1749 40.2106ZM30.9463 40.2106L31.3678 39.5344C31.8194 39.8433 32.3664 40.0164 32.9321 40.0294C33.7249 40.0294 33.9713 39.7447 33.9713 39.2465C33.9713 38.6544 33.6678 38.538 32.7321 38.305C31.9178 38.1044 31.2392 37.7162 31.2392 36.668C31.2392 35.898 31.7892 35.2218 33.0713 35.2218C33.6364 35.2026 34.1966 35.3223 34.6928 35.568L34.3356 36.2862C33.9593 36.0916 33.5332 35.9901 33.0999 35.9918C32.4678 35.9918 32.1785 36.1924 32.1785 36.6389C32.1785 37.0853 32.4213 37.26 33.2285 37.4606C34.1249 37.6839 34.9428 38.0009 34.9428 39.1947C34.9428 40.2947 34.2535 40.78 32.8785 40.78C32.1846 40.7777 31.5089 40.5786 30.9463 40.2106ZM38.5999 37.9491H36.7249V37.1565H38.5999V35.2833H39.5463V37.1565H41.4285V37.9491H39.5606V39.8191H38.6142L38.5999 37.9491ZM43.7106 33.3615H44.7821V36.3412H47.6749V33.3615H48.7463V40.6441H47.6749V37.1986H44.7821V40.6441H43.7106V33.3615ZM50.1249 39.13C50.1249 37.9265 50.9071 37.3668 52.8213 37.3668H53.2999V36.9559C53.2999 36.3639 53.2178 36.0047 52.4571 36.0047C51.8546 36.0357 51.2702 36.2025 50.7571 36.49L50.3571 35.7912C51.0124 35.4132 51.7731 35.2123 52.5499 35.2121C53.6928 35.2121 54.2892 35.6747 54.2892 36.8071V40.6441H53.5071L53.3428 40.1136C53.1637 40.3128 52.9399 40.4753 52.6862 40.5902C52.4325 40.7051 52.1548 40.7698 51.8713 40.78C50.7678 40.78 50.1249 40.2203 50.1249 39.13ZM53.2999 39.4277V38.0203H52.9428C51.4713 38.0203 51.1928 38.36 51.1928 39.13C51.1928 39.8289 51.4356 40.0618 52.0071 40.0618C52.2599 40.0453 52.506 39.9802 52.7289 39.8709C52.9518 39.7615 53.1465 39.6104 53.2999 39.4277ZM55.8356 39.4277V35.348H56.8392V39.143C56.8392 39.7674 57.0713 39.9777 57.5963 39.9777C58.1321 39.9168 58.6275 39.6879 58.9963 39.3306V35.348H59.9999V40.6441H59.2213L59.0678 39.9971C58.8533 40.2302 58.5883 40.4208 58.2891 40.5572C57.9899 40.6935 57.6629 40.7727 57.3285 40.7897C57.1271 40.8057 56.9242 40.7814 56.7344 40.7185C56.5445 40.6555 56.3722 40.5556 56.2298 40.4256C56.0873 40.2956 55.9781 40.1388 55.91 39.9664C55.8419 39.7939 55.8165 39.61 55.8356 39.4277ZM61.1785 40.2106L61.5999 39.5344C62.0528 39.8398 62.5997 40.0095 63.1642 40.0197C63.9571 40.0197 64.1999 39.735 64.1999 39.2368C64.1999 38.6447 63.8963 38.5283 62.9642 38.2953C62.1463 38.0947 61.4713 37.7065 61.4713 36.6583C61.4713 35.8883 62.0213 35.2121 63.3035 35.2121C63.8685 35.1929 64.4288 35.3126 64.9249 35.5583L64.5678 36.2765C64.1915 36.0819 63.7653 35.9804 63.3321 35.9821C62.6999 35.9821 62.4106 36.1827 62.4106 36.6291C62.4106 37.0756 62.6535 37.2503 63.4606 37.4509C64.3571 37.6741 65.1749 37.9912 65.1749 39.185C65.1749 40.285 64.4856 40.7703 63.1106 40.7703C62.4179 40.7708 61.7423 40.5751 61.1785 40.2106ZM66.1499 37.9912C66.1499 35.9821 67.0606 35.2121 68.4356 35.2121C69.8106 35.2121 70.6178 35.9303 70.6178 37.8424V38.2015H67.2249C67.2463 39.6509 67.5821 40.01 68.5642 40.01C69.0766 40.0073 69.569 39.8294 69.9428 39.5118L70.4892 40.1589C69.9516 40.5823 69.2543 40.8013 68.5428 40.7703C67.0142 40.78 66.1499 39.9777 66.1499 37.9912ZM67.2213 37.5156H69.5428C69.5428 36.2991 69.2392 35.9303 68.3999 35.9303C67.7356 35.9303 67.3178 36.2474 67.2356 37.5156H67.2213ZM71.8963 35.348H72.6785L72.8428 36.0986C73.0276 35.853 73.2721 35.6492 73.5575 35.5028C73.843 35.3564 74.1617 35.2714 74.4892 35.2541C74.5596 35.2525 74.6298 35.2624 74.6963 35.2833L74.5821 36.2539C74.4662 36.2227 74.3457 36.2085 74.2249 36.2118C73.9737 36.2136 73.7256 36.2625 73.4964 36.3555C73.2671 36.4485 73.0616 36.5835 72.8928 36.7521V40.6344H71.8892L71.8963 35.348Z" fill="white"/>
<path fill-rule="evenodd" clip-rule="evenodd" d="M98.9859 30.3235C98.8691 30.2972 98.7492 30.2842 98.6288 30.2847H82.1859C81.8857 30.2846 81.5938 30.3744 81.3555 30.5399C81.1172 30.7054 80.9459 30.9376 80.8681 31.2003L78.5359 39.0847C78.4431 39.4021 78.4929 39.7399 78.6742 40.0243C78.8556 40.3086 79.1538 40.5163 79.5038 40.602C79.6205 40.6292 79.7404 40.6433 79.8609 40.6441H96.2895C96.5901 40.6434 96.8821 40.553 97.1203 40.3869C97.3585 40.2209 97.5297 39.9883 97.6074 39.7253L99.9395 31.8473C100.036 31.5307 99.9897 31.1924 99.8109 30.9066C99.6321 30.6209 99.3354 30.4111 98.9859 30.3235ZM88.8359 39.6541H82.1859C82.1136 39.6532 82.0446 39.6266 81.9938 39.58C81.943 39.5334 81.9145 39.4705 81.9145 39.405V31.527C81.9145 31.4615 81.943 31.3987 81.9938 31.352C82.0446 31.3054 82.1136 31.2788 82.1859 31.2779H88.8359L88.1645 33.5426H84.8752V34.3256H87.1431L86.4716 36.5903H84.8859V37.3732H88.8466L88.8359 39.6541ZM96.4959 39.58C96.5467 39.5334 96.5752 39.4705 96.5752 39.405L96.5609 31.5432C96.5609 31.4777 96.5325 31.4148 96.4817 31.3682C96.4308 31.3216 96.3618 31.2949 96.2895 31.2941H93.6038V34.3482H92.6931V31.2941H89.7324V34.3353H87.9181L87.2466 36.6H89.7466V39.6541H92.7073V36.6H93.6181V39.6541H96.3038C96.3761 39.6532 96.4451 39.6266 96.4959 39.58Z" fill="white"/>
</g>
<defs>
<clipPath id="clip0_164_395">
<rect width="100" height="11" fill="white" transform="translate(0 30)"/>
</clipPath>
</defs>
</svg>
