<svg width="100" height="71" viewBox="0 0 100 71" fill="none" xmlns="http://www.w3.org/2000/svg">
<g clip-path="url(#clip0_340_6234)">
<path d="M27.9594 28.2749H32.496V44.492H27.9594V42.9367C27.5164 43.4651 27.2507 43.7759 26.4267 44.2102C25.5133 44.7085 23.9901 44.9559 22.9885 44.9559C21.9869 44.9559 20.1315 44.8013 19.0704 43.2481C18.2776 42.0685 18.1289 41.1056 18.1289 38.4641V28.2749H22.6941V38.3392C22.6941 39.0549 22.6941 39.7695 23.047 40.2666C23.3128 40.6381 24.0708 41.1546 25.1766 41.1546C25.4418 41.1546 26.251 41.072 26.9282 40.6677C27.9007 40.047 27.9288 39.2395 27.9593 38.3713V28.2749H27.9594Z" fill="white"/>
<path d="M4.42547 36.3376C4.42547 37.5181 4.60409 39.0113 5.13364 39.9756C5.72231 40.9679 6.78428 41.4952 7.81591 41.4952C9.02212 41.4952 9.78803 40.781 10.1724 40.2834C10.9962 39.1354 11.0843 37.0241 11.0843 36.3065C11.0843 33.7294 10.317 31.2452 7.75384 31.3999C4.4565 31.5871 4.42547 35.376 4.42547 36.3376ZM4.54458 22.6416V29.8475C5.19128 29.1349 6.34143 27.892 8.9632 27.892C11.4368 27.892 15.6059 29.6917 15.6059 36.1517C15.6059 37.7994 15.3391 39.7259 14.6639 41.1546C13.868 42.985 11.8778 45.0357 8.81453 45.0357C6.10724 45.0357 4.86842 43.546 4.30892 42.893L4.48409 44.6009H0.12793V22.6416H4.54458Z" fill="white"/>
<path d="M40.485 30.0659C41.4856 29.1655 42.5763 28.4488 44.9331 28.1997V32.4268L43.431 32.6743C41.2518 33.0796 40.6031 33.419 40.6031 35.471V44.601H36.0664V28.3564H40.4849V30.0659H40.485Z" fill="white"/>
<path d="M47.1426 22.6738H51.5892V33.9458L56.5668 28.3861H62.0162L56.7135 34.1648L62.6952 44.6011H57.4509L53.5029 37.6127L51.5578 39.5397V44.6011H47.1426V22.6738Z" fill="white"/>
<path d="M73.6291 34.4762C73.5394 33.7933 73.4193 32.8927 72.7737 32.1772C72.2135 31.5871 71.3601 31.2757 70.5668 31.2757C69.4732 31.2757 68.7093 31.8357 68.2656 32.3318C67.6485 33.0475 67.5017 33.7933 67.3531 34.4763H73.6291V34.4762ZM78.1332 40.4717C77.6048 41.3093 77.0721 42.1158 76.2768 42.8932C74.952 44.1969 72.9509 45.1901 70.4754 45.1901C65.91 45.1901 62.7012 42.1158 62.7012 36.8047C62.7012 32.8927 64.5242 27.8604 70.5945 27.8604C71.5068 27.8604 74.1586 27.9537 76.1311 30.19C78.1331 32.4563 78.2513 35.6257 78.3075 37.457H67.3255C67.5755 39.5171 68.4959 41.4591 70.7667 41.3935C73.3545 41.3196 73.8348 39.84 74.7176 38.6372L78.1332 40.4717Z" fill="white"/>
<path d="M85.2917 30.0659C86.2886 29.1655 87.3824 28.4488 89.7369 28.1997V32.4268L88.2367 32.6743C86.0573 33.0796 85.4076 33.419 85.4076 35.471V44.601H80.8721V28.3564H85.2917V30.0659Z" fill="white"/>
<path d="M92.5361 28.7275V23.6978H97.0443V28.7598H100.022V32.3406H97.013V38.9775C96.9853 39.9755 96.9853 40.8111 98.1912 40.8111L99.8122 40.7494V44.476C98.8427 44.6312 98.2532 44.7255 97.4253 44.7255C95.8641 44.7255 94.1583 44.6312 93.1879 43.1391C92.5686 42.1775 92.5361 41.0306 92.5361 39.4757V28.6409" fill="white"/>
<path d="M0.0986328 19.995H14.6581V16H0.0986328V19.995Z" fill="white"/>
<path d="M18.6191 19.995H22.6459V16H18.6191V19.995Z" fill="white"/>
<path d="M27.793 19.995H31.6835V16H27.793V19.995Z" fill="white"/>
<path d="M36.001 19.995H99.9636V16H36.001V19.995Z" fill="white"/>
<path d="M0.0986328 54.8352H1.19666V53.0391H3.99804V52.2165H1.19666V51.026H4.17272V50.1904H0.0986328V54.8352Z" fill="white"/>
<path d="M4.77637 54.8352H8.32691V53.98H5.8808V50.1904H4.77637V54.8352Z" fill="white"/>
<path d="M8.7959 52.8882C8.7959 53.4403 8.80181 54.0527 9.49432 54.5458C9.769 54.7367 10.0435 54.8291 10.2557 54.8815C10.5613 54.9603 10.8733 54.9935 11.1854 54.9935C11.8532 54.9935 12.7018 54.8156 13.157 54.2825C13.5315 53.8483 13.5315 53.381 13.538 52.8881V50.1904H12.4395V52.9275C12.4523 53.3946 12.3583 53.5455 12.2525 53.6775C12.0778 53.8881 11.8096 54.0064 11.3918 54.046C11.0669 54.059 10.749 54.0724 10.3932 53.8944C9.97541 53.6842 9.89422 53.3354 9.89422 52.9208V50.1905H8.7959V52.8882Z" fill="white"/>
<path d="M14.7988 54.8352H15.9033V50.1904H14.7988V54.8352Z" fill="white"/>
<path fill-rule="evenodd" clip-rule="evenodd" d="M17.1299 54.8352H19.4011C20.0685 54.8289 20.8984 54.8222 21.5165 53.9737C21.8221 53.5455 21.9466 53.0193 21.9466 52.4864C21.9466 51.2893 21.3103 50.342 20.0254 50.217C19.8629 50.1972 19.7005 50.1972 19.5386 50.1904H17.13V54.8352H17.1299ZM19.5011 51.013C19.8815 51.0194 20.3432 51.026 20.6306 51.5065C20.7551 51.7167 20.8486 52.0193 20.8486 52.4604C20.8486 53.0458 20.7113 53.368 20.5804 53.5591C20.287 53.9996 19.8378 54.0064 19.4451 54.013H18.2284V51.013H19.5011Z" fill="white"/>
<path d="M28.6203 53.2625C28.477 53.5454 28.1837 54.1375 27.229 54.1375C26.3928 54.1375 25.6378 53.5325 25.6378 52.5195C25.6378 51.631 26.2058 50.9009 27.2039 50.9009C28.0588 50.9009 28.4019 51.4536 28.5204 51.6507L29.7311 51.493C29.1567 50.1639 27.7093 50.0454 27.2039 50.0454C25.8126 50.0454 24.4902 50.756 24.4902 52.5059C24.4902 54.1314 25.5754 54.9933 27.1415 54.9933C28.265 54.9933 28.8512 54.6046 29.207 54.2627C29.5997 53.8812 29.6996 53.5454 29.7809 53.2564L28.6203 53.2625Z" fill="white"/>
<path fill-rule="evenodd" clip-rule="evenodd" d="M32.7587 50.0456C31.3108 50.1116 30.2256 50.9206 30.2256 52.5197C30.2256 53.967 31.1677 54.9868 32.9458 54.9868C34.7239 54.9868 35.6349 53.9473 35.6349 52.4667C35.6349 51.6903 35.3416 51.177 35.161 50.9471C34.6116 50.243 33.6259 50.0063 32.7587 50.0456ZM32.8832 50.8812C33.7632 50.8486 34.5054 51.4863 34.5054 52.5258C34.5054 53.421 33.9561 54.1576 32.9271 54.1576C32.0722 54.1576 31.7474 53.6775 31.6415 53.5196C31.5604 53.4076 31.3605 53.1117 31.3605 52.5454C31.3605 51.4209 32.147 50.9078 32.8832 50.8812Z" fill="white"/>
<path d="M36.4111 54.8354H37.4594V52.2757C37.453 51.9208 37.453 51.8421 37.4221 51.4863C37.6657 51.8155 37.7587 51.9338 37.99 52.2166L40.1738 54.8353H41.2654V50.1905H40.2112V52.5653C40.2176 52.9669 40.2176 53.0852 40.2545 53.5259C39.9804 53.1642 39.9306 53.0982 39.6684 52.7759L37.5098 50.1904H36.4112V54.8354H36.4111Z" fill="white"/>
<path d="M41.8594 51.039H43.4944V54.8352H44.5982V51.039H46.2332V50.1904H41.8594V51.039Z" fill="white"/>
<path fill-rule="evenodd" clip-rule="evenodd" d="M46.8184 54.8352H47.9227V52.9669H49.1767L50.3565 54.8352H51.6538L50.3182 52.8941C50.4932 52.8615 50.7994 52.7956 51.0357 52.6052C51.3476 52.3551 51.4598 51.9336 51.4598 51.5787C51.4598 51.3088 51.3979 50.96 51.1735 50.6839C50.8055 50.236 50.3496 50.1904 49.8506 50.1904H46.8184V54.8352ZM47.9227 51.0064H49.632C50.0692 51.0064 50.1748 51.118 50.256 51.2299C50.3309 51.3415 50.3438 51.4998 50.3438 51.5915C50.3438 52.1118 49.9194 52.1442 49.6822 52.1442H47.9228V51.0064H47.9227Z" fill="white"/>
<path fill-rule="evenodd" clip-rule="evenodd" d="M54.5972 50.0456C53.1501 50.1116 52.0645 50.9206 52.0645 52.5197C52.0645 53.967 53.0064 54.9868 54.7851 54.9868C56.5628 54.9868 57.4743 53.9473 57.4743 52.4667C57.4743 51.6903 57.1808 51.177 56.9998 50.9471C56.4507 50.243 55.4652 50.0063 54.5972 50.0456ZM54.7221 50.8812C55.6021 50.8486 56.3443 51.4863 56.3443 52.5258C56.3443 53.421 55.7951 54.1576 54.7665 54.1576C53.911 54.1576 53.5862 53.6775 53.4809 53.5196C53.3991 53.4076 53.1994 53.1117 53.1994 52.5454C53.1994 51.4209 53.9858 50.9078 54.7221 50.8812Z" fill="white"/>
<path d="M58.3086 54.8352H61.859V53.98H59.4131V50.1904H58.3086V54.8352Z" fill="white"/>
<path d="M64.3027 53.6705C64.8706 54.8484 65.9879 54.9797 66.7113 54.9797C67.2663 54.9797 68.9515 54.9274 68.9515 53.4338C68.9515 52.414 68.0832 52.2163 67.5724 52.1183C67.3669 52.0721 66.4681 51.9138 66.287 51.8742C65.9562 51.7954 65.7003 51.7165 65.7003 51.4139C65.7003 50.9728 66.1994 50.8742 66.6857 50.8742C66.8981 50.8742 67.2791 50.9008 67.5724 51.0516C67.8343 51.1902 67.9218 51.3616 67.9594 51.4337L69.0068 51.1571C68.92 51.0062 68.7262 50.6641 68.2773 50.4072C67.8216 50.144 67.3294 50.0454 66.6858 50.0454C65.9879 50.0454 65.1758 50.21 64.8086 50.835C64.6955 51.0259 64.6334 51.2625 64.6334 51.493C64.6334 52.5453 65.6571 52.7494 66.0627 52.8287C66.2684 52.8681 67.1731 53.0129 67.3541 53.0525C67.5913 53.098 67.8963 53.1775 67.8963 53.5127C67.8963 54.0784 67.0548 54.1245 66.786 54.1245C66.1876 54.1245 65.5565 53.9535 65.3076 53.3945L64.3027 53.6705Z" fill="white"/>
<path d="M71.1103 53.0914V54.8352H72.2147V53.0914L74.3171 50.1904H72.9755L71.7707 51.9736C71.7146 52.0588 71.7028 52.0852 71.6655 52.1771C71.634 52.0852 71.628 52.0588 71.5404 51.9403L70.3731 50.1904H69.0137L71.1103 53.0914Z" fill="white"/>
<path d="M74.0176 53.6705C74.5857 54.8484 75.7019 54.9797 76.4261 54.9797C76.9813 54.9797 78.6656 54.9274 78.6656 53.4338C78.6656 52.414 77.7983 52.2163 77.2876 52.1183C77.0807 52.0721 76.1831 51.9138 76.002 51.8742C75.6713 51.7954 75.4153 51.7165 75.4153 51.4139C75.4153 50.9728 75.9142 50.8742 76.4005 50.8742C76.6131 50.8742 76.9941 50.9008 77.2876 51.0516C77.5493 51.1902 77.6359 51.3616 77.6732 51.4337L78.7216 51.1571C78.635 51.0062 78.441 50.6641 77.9924 50.4072C77.5365 50.144 77.0435 50.0454 76.4006 50.0454C75.7019 50.0454 74.8907 50.21 74.5225 50.835C74.4103 51.0259 74.3483 51.2625 74.3483 51.493C74.3483 52.5453 75.3721 52.7494 75.7765 52.8287C75.9834 52.8681 76.8879 53.0129 77.069 53.0525C77.3051 53.098 77.6113 53.1775 77.6113 53.5127C77.6113 54.0784 76.7686 54.1245 76.5009 54.1245C75.9015 54.1245 75.2715 53.9535 75.0215 53.3945L74.0176 53.6705Z" fill="white"/>
<path d="M78.9014 51.039H80.5361V54.8352H81.6405V51.039H83.2746V50.1904H78.9014V51.039Z" fill="white"/>
<path d="M83.8535 54.8352H88.0842V54.0064H84.9578V52.8942H87.8598V52.0723H84.9578V51.026H87.9591V50.1904H83.8535V54.8352Z" fill="white"/>
<path d="M88.9326 54.8352H89.974V51.5657C89.9613 51.3878 89.9554 51.3482 89.9367 51.151C89.9869 51.3415 89.9986 51.3945 90.0675 51.572L91.3844 54.8352H92.3885L93.7054 51.5065C93.7676 51.3415 93.7862 51.2892 93.8296 51.151C93.8049 51.3285 93.7863 51.4469 93.7863 51.5848V54.8352H94.8287V50.1904H93.2499L92.1021 53.0851C91.9771 53.4076 91.9397 53.5258 91.8954 53.7236C91.8334 53.4602 91.7902 53.3353 91.671 53.0323L90.5235 50.1904H88.9327L88.9326 54.8352Z" fill="white"/>
<path d="M95.3936 53.6705C95.9614 54.8484 97.0788 54.9797 97.8021 54.9797C98.3573 54.9797 100.042 54.9274 100.042 53.4338C100.042 52.414 99.1752 52.2163 98.6634 52.1183C98.4577 52.0721 97.5591 51.9138 97.3778 51.8742C97.0472 51.7954 96.7913 51.7165 96.7913 51.4139C96.7913 50.9728 97.2902 50.8742 97.7775 50.8742C97.9891 50.8742 98.37 50.9008 98.6634 51.0516C98.9253 51.1902 99.0129 51.3616 99.0502 51.4337L100.099 51.1571C100.011 51.0062 99.818 50.6641 99.3681 50.4072C98.9135 50.144 98.4203 50.0454 97.7775 50.0454C97.0788 50.0454 96.2675 50.21 95.8994 50.835C95.7871 51.0259 95.7243 51.2625 95.7243 51.493C95.7243 52.5453 96.7478 52.7494 97.1535 52.8287C97.3592 52.8681 98.2638 53.0129 98.4448 53.0525C98.682 53.098 98.9872 53.1775 98.9872 53.5127C98.9872 54.0784 98.1456 54.1245 97.8769 54.1245C97.2785 54.1245 96.6484 53.9535 96.3985 53.3945L95.3936 53.6705Z" fill="white"/>
</g>
<defs>
<clipPath id="clip0_340_6234">
<rect width="100" height="39" fill="white" transform="translate(0 16)"/>
</clipPath>
</defs>
</svg>
