<svg width="120" height="100" viewBox="0 0 120 100" fill="none" xmlns="http://www.w3.org/2000/svg">
<g clip-path="url(#clip0_340_6267)">
<path d="M37.9594 42.7754H42.496V58.9925H37.9594V57.4372C37.5164 57.9655 37.2507 58.2764 36.4267 58.7106C35.5133 59.209 33.9901 59.4564 32.9885 59.4564C31.9869 59.4564 30.1315 59.3018 29.0704 57.7486C28.2776 56.569 28.1289 55.6061 28.1289 52.9646V42.7754H32.6941V52.8397C32.6941 53.5553 32.6941 54.27 33.047 54.7671C33.3128 55.1386 34.0708 55.6551 35.1766 55.6551C35.4418 55.6551 36.251 55.5725 36.9282 55.1682C37.9007 54.5475 37.9288 53.74 37.9593 52.8718V42.7754H37.9594Z" fill="#1D2935"/>
<path d="M14.4255 50.8376C14.4255 52.0181 14.6041 53.5113 15.1336 54.4756C15.7223 55.4679 16.7843 55.9952 17.8159 55.9952C19.0221 55.9952 19.788 55.281 20.1724 54.7834C20.9962 53.6354 21.0843 51.5241 21.0843 50.8065C21.0843 48.2294 20.317 45.7452 17.7538 45.8999C14.4565 46.0871 14.4255 49.876 14.4255 50.8376ZM14.5446 37.1416V44.3475C15.1913 43.6349 16.3414 42.392 18.9632 42.392C21.4368 42.392 25.6059 44.1917 25.6059 50.6517C25.6059 52.2994 25.3391 54.2259 24.6639 55.6546C23.868 57.485 21.8778 59.5357 18.8145 59.5357C16.1072 59.5357 14.8684 58.046 14.3089 57.393L14.4841 59.1009H10.1279V37.1416H14.5446Z" fill="#1D2935"/>
<path d="M50.485 44.5664C51.4856 43.6659 52.5763 42.9493 54.9331 42.7002V46.9272L53.431 47.1748C51.2518 47.5801 50.6031 47.9195 50.6031 49.9715V59.1015H46.0664V42.8569H50.4849V44.5664H50.485Z" fill="#1D2935"/>
<path d="M57.1426 37.1738H61.5892V48.4458L66.5668 42.8861H72.0162L66.7135 48.6648L72.6952 59.1011H67.4509L63.5029 52.1127L61.5578 54.0397V59.1011H57.1426V37.1738Z" fill="#1D2935"/>
<path d="M83.6291 48.9762C83.5394 48.2933 83.4193 47.3927 82.7737 46.6772C82.2135 46.0871 81.3601 45.7757 80.5668 45.7757C79.4732 45.7757 78.7093 46.3357 78.2656 46.8318C77.6485 47.5475 77.5017 48.2933 77.3531 48.9763H83.6291V48.9762ZM88.1332 54.9717C87.6048 55.8093 87.0721 56.6158 86.2768 57.3932C84.952 58.6969 82.9509 59.6901 80.4754 59.6901C75.91 59.6901 72.7012 56.6158 72.7012 51.3047C72.7012 47.3927 74.5242 42.3604 80.5945 42.3604C81.5068 42.3604 84.1586 42.4537 86.1311 44.69C88.1331 46.9563 88.2513 50.1257 88.3075 51.957H77.3255C77.5755 54.0171 78.4959 55.9591 80.7667 55.8935C83.3545 55.8196 83.8348 54.34 84.7176 53.1372L88.1332 54.9717Z" fill="#1D2935"/>
<path d="M95.2917 44.5659C96.2886 43.6655 97.3824 42.9488 99.7369 42.6997V46.9268L98.2367 47.1743C96.0573 47.5796 95.4076 47.919 95.4076 49.971V59.101H90.8721V42.8564H95.2917V44.5659Z" fill="#1D2935"/>
<path d="M102.536 43.2275V38.1978H107.044V43.2598H110.022V46.8406H107.013V53.4775C106.985 54.4755 106.985 55.3111 108.191 55.3111L109.812 55.2494V58.976C108.843 59.1312 108.253 59.2255 107.425 59.2255C105.864 59.2255 104.158 59.1312 103.188 57.6391C102.569 56.6775 102.536 55.5306 102.536 53.9757V43.1409" fill="#1D2935"/>
<path d="M10.0986 34.495H24.6581V30.5H10.0986V34.495Z" fill="#1D2935"/>
<path d="M28.6191 34.495H32.6459V30.5H28.6191V34.495Z" fill="#1D2935"/>
<path d="M37.793 34.495H41.6835V30.5H37.793V34.495Z" fill="#1D2935"/>
<path d="M46.001 34.495H109.964V30.5H46.001V34.495Z" fill="#1D2935"/>
<path d="M10.0986 69.3352H11.1967V67.5391H13.998V66.7165H11.1967V65.526H14.1727V64.6904H10.0986V69.3352Z" fill="#1D2935"/>
<path d="M14.7764 69.3352H18.3269V68.48H15.8808V64.6904H14.7764V69.3352Z" fill="#1D2935"/>
<path d="M18.7959 67.3882C18.7959 67.9403 18.8018 68.5527 19.4943 69.0458C19.769 69.2367 20.0435 69.3291 20.2557 69.3815C20.5613 69.4603 20.8733 69.4935 21.1854 69.4935C21.8532 69.4935 22.7018 69.3156 23.157 68.7825C23.5315 68.3483 23.5315 67.881 23.538 67.3881V64.6904H22.4395V67.4275C22.4523 67.8946 22.3583 68.0455 22.2525 68.1775C22.0778 68.3881 21.8096 68.5064 21.3918 68.546C21.0669 68.559 20.749 68.5724 20.3932 68.3944C19.9754 68.1842 19.8942 67.8354 19.8942 67.4208V64.6905H18.7959V67.3882Z" fill="#1D2935"/>
<path d="M24.7988 69.3352H25.9033V64.6904H24.7988V69.3352Z" fill="#1D2935"/>
<path fill-rule="evenodd" clip-rule="evenodd" d="M27.1299 69.3352H29.4011C30.0685 69.3289 30.8984 69.3222 31.5165 68.4737C31.8221 68.0455 31.9466 67.5193 31.9466 66.9864C31.9466 65.7893 31.3103 64.842 30.0254 64.717C29.8629 64.6972 29.7005 64.6972 29.5386 64.6904H27.13V69.3352H27.1299ZM29.5011 65.513C29.8815 65.5194 30.3432 65.526 30.6306 66.0065C30.7551 66.2167 30.8486 66.5193 30.8486 66.9604C30.8486 67.5458 30.7113 67.868 30.5804 68.0591C30.287 68.4996 29.8378 68.5064 29.4451 68.513H28.2284V65.513H29.5011Z" fill="#1D2935"/>
<path d="M38.6203 67.763C38.477 68.0459 38.1837 68.638 37.229 68.638C36.3928 68.638 35.6378 68.0329 35.6378 67.02C35.6378 66.1315 36.2058 65.4014 37.2039 65.4014C38.0588 65.4014 38.4019 65.9541 38.5204 66.1512L39.7311 65.9935C39.1567 64.6644 37.7093 64.5459 37.2039 64.5459C35.8126 64.5459 34.4902 65.2565 34.4902 67.0064C34.4902 68.6319 35.5754 69.4938 37.1415 69.4938C38.265 69.4938 38.8512 69.1051 39.207 68.7632C39.5997 68.3817 39.6996 68.0459 39.7809 67.7569L38.6203 67.763Z" fill="#1D2935"/>
<path fill-rule="evenodd" clip-rule="evenodd" d="M42.7587 64.5456C41.3108 64.6116 40.2256 65.4206 40.2256 67.0197C40.2256 68.467 41.1677 69.4868 42.9458 69.4868C44.7239 69.4868 45.6349 68.4473 45.6349 66.9667C45.6349 66.1903 45.3416 65.677 45.161 65.4471C44.6116 64.743 43.6259 64.5063 42.7587 64.5456ZM42.8832 65.3812C43.7632 65.3486 44.5054 65.9863 44.5054 67.0258C44.5054 67.921 43.9561 68.6576 42.9271 68.6576C42.0722 68.6576 41.7474 68.1775 41.6415 68.0196C41.5604 67.9076 41.3605 67.6117 41.3605 67.0454C41.3605 65.9209 42.147 65.4078 42.8832 65.3812Z" fill="#1D2935"/>
<path d="M46.4111 69.3354H47.4594V66.7757C47.453 66.4208 47.453 66.3421 47.4221 65.9863C47.6657 66.3155 47.7587 66.4338 47.99 66.7166L50.1738 69.3353H51.2654V64.6905H50.2112V67.0653C50.2176 67.4669 50.2176 67.5852 50.2545 68.0259C49.9804 67.6642 49.9306 67.5982 49.6684 67.2759L47.5098 64.6904H46.4112V69.3354H46.4111Z" fill="#1D2935"/>
<path d="M51.8594 65.539H53.4944V69.3352H54.5982V65.539H56.2332V64.6904H51.8594V65.539Z" fill="#1D2935"/>
<path fill-rule="evenodd" clip-rule="evenodd" d="M56.8184 69.3352H57.9227V67.4669H59.1767L60.3565 69.3352H61.6538L60.3182 67.3941C60.4932 67.3615 60.7994 67.2956 61.0357 67.1052C61.3476 66.8551 61.4598 66.4336 61.4598 66.0787C61.4598 65.8088 61.3979 65.46 61.1735 65.1839C60.8055 64.736 60.3496 64.6904 59.8506 64.6904H56.8184V69.3352ZM57.9227 65.5064H59.632C60.0692 65.5064 60.1748 65.618 60.256 65.7299C60.3309 65.8415 60.3438 65.9998 60.3438 66.0915C60.3438 66.6118 59.9194 66.6442 59.6822 66.6442H57.9228V65.5064H57.9227Z" fill="#1D2935"/>
<path fill-rule="evenodd" clip-rule="evenodd" d="M64.5972 64.5456C63.1501 64.6116 62.0645 65.4206 62.0645 67.0197C62.0645 68.467 63.0064 69.4868 64.7851 69.4868C66.5628 69.4868 67.4743 68.4473 67.4743 66.9667C67.4743 66.1903 67.1808 65.677 66.9998 65.4471C66.4507 64.743 65.4652 64.5063 64.5972 64.5456ZM64.7221 65.3812C65.6021 65.3486 66.3443 65.9863 66.3443 67.0258C66.3443 67.921 65.7951 68.6576 64.7665 68.6576C63.911 68.6576 63.5862 68.1775 63.4809 68.0196C63.3991 67.9076 63.1994 67.6117 63.1994 67.0454C63.1994 65.9209 63.9858 65.4078 64.7221 65.3812Z" fill="#1D2935"/>
<path d="M68.3086 69.3352H71.859V68.48H69.4131V64.6904H68.3086V69.3352Z" fill="#1D2935"/>
<path d="M74.3027 68.171C74.8706 69.3489 75.9879 69.4802 76.7113 69.4802C77.2663 69.4802 78.9515 69.4279 78.9515 67.9342C78.9515 66.9145 78.0832 66.7168 77.5724 66.6188C77.3669 66.5726 76.4681 66.4142 76.287 66.3747C75.9562 66.2959 75.7003 66.217 75.7003 65.9144C75.7003 65.4733 76.1994 65.3747 76.6857 65.3747C76.8981 65.3747 77.2791 65.4013 77.5724 65.5521C77.8343 65.6907 77.9218 65.8621 77.9594 65.9342L79.0068 65.6576C78.92 65.5067 78.7262 65.1646 78.2773 64.9076C77.8216 64.6445 77.3294 64.5459 76.6858 64.5459C75.9879 64.5459 75.1758 64.7105 74.8086 65.3355C74.6955 65.5264 74.6334 65.763 74.6334 65.9935C74.6334 67.0458 75.6571 67.2499 76.0627 67.3292C76.2684 67.3686 77.1731 67.5134 77.3541 67.553C77.5913 67.5985 77.8963 67.6779 77.8963 68.0132C77.8963 68.5789 77.0548 68.625 76.786 68.625C76.1876 68.625 75.5565 68.454 75.3076 67.895L74.3027 68.171Z" fill="#1D2935"/>
<path d="M81.1103 67.5914V69.3352H82.2147V67.5914L84.3171 64.6904H82.9755L81.7707 66.4736C81.7146 66.5588 81.7028 66.5852 81.6655 66.6771C81.634 66.5852 81.628 66.5588 81.5404 66.4403L80.3731 64.6904H79.0137L81.1103 67.5914Z" fill="#1D2935"/>
<path d="M84.0176 68.171C84.5857 69.3489 85.7019 69.4802 86.4261 69.4802C86.9813 69.4802 88.6656 69.4279 88.6656 67.9342C88.6656 66.9145 87.7983 66.7168 87.2876 66.6188C87.0807 66.5726 86.1831 66.4142 86.002 66.3747C85.6713 66.2959 85.4153 66.217 85.4153 65.9144C85.4153 65.4733 85.9142 65.3747 86.4005 65.3747C86.6131 65.3747 86.9941 65.4013 87.2876 65.5521C87.5493 65.6907 87.6359 65.8621 87.6732 65.9342L88.7216 65.6576C88.635 65.5067 88.441 65.1646 87.9924 64.9076C87.5365 64.6445 87.0435 64.5459 86.4006 64.5459C85.7019 64.5459 84.8907 64.7105 84.5225 65.3355C84.4103 65.5264 84.3483 65.763 84.3483 65.9935C84.3483 67.0458 85.3721 67.2499 85.7765 67.3292C85.9834 67.3686 86.8879 67.5134 87.069 67.553C87.3051 67.5985 87.6113 67.6779 87.6113 68.0132C87.6113 68.5789 86.7686 68.625 86.5009 68.625C85.9015 68.625 85.2715 68.454 85.0215 67.895L84.0176 68.171Z" fill="#1D2935"/>
<path d="M88.9014 65.539H90.5361V69.3352H91.6405V65.539H93.2746V64.6904H88.9014V65.539Z" fill="#1D2935"/>
<path d="M93.8535 69.3352H98.0842V68.5064H94.9578V67.3942H97.8598V66.5723H94.9578V65.526H97.9591V64.6904H93.8535V69.3352Z" fill="#1D2935"/>
<path d="M98.9326 69.3352H99.974V66.0657C99.9613 65.8878 99.9554 65.8482 99.9367 65.651C99.9869 65.8415 99.9986 65.8945 100.067 66.072L101.384 69.3352H102.388L103.705 66.0065C103.768 65.8415 103.786 65.7892 103.83 65.651C103.805 65.8285 103.786 65.9469 103.786 66.0848V69.3352H104.829V64.6904H103.25L102.102 67.5851C101.977 67.9076 101.94 68.0258 101.895 68.2236C101.833 67.9602 101.79 67.8353 101.671 67.5323L100.523 64.6904H98.9327L98.9326 69.3352Z" fill="#1D2935"/>
<path d="M105.394 68.1705C105.961 69.3484 107.079 69.4797 107.802 69.4797C108.357 69.4797 110.042 69.4274 110.042 67.9338C110.042 66.914 109.175 66.7163 108.663 66.6183C108.458 66.5721 107.559 66.4138 107.378 66.3742C107.047 66.2954 106.791 66.2165 106.791 65.9139C106.791 65.4728 107.29 65.3742 107.777 65.3742C107.989 65.3742 108.37 65.4008 108.663 65.5516C108.925 65.6902 109.013 65.8616 109.05 65.9337L110.099 65.6571C110.011 65.5062 109.818 65.1641 109.368 64.9072C108.913 64.644 108.42 64.5454 107.777 64.5454C107.079 64.5454 106.268 64.71 105.899 65.335C105.787 65.5259 105.724 65.7625 105.724 65.993C105.724 67.0453 106.748 67.2494 107.153 67.3287C107.359 67.3681 108.264 67.5129 108.445 67.5525C108.682 67.598 108.987 67.6775 108.987 68.0127C108.987 68.5784 108.146 68.6245 107.877 68.6245C107.278 68.6245 106.648 68.4535 106.398 67.8945L105.394 68.1705Z" fill="#1D2935"/>
</g>
<defs>
<clipPath id="clip0_340_6267">
<rect width="100" height="39" fill="white" transform="translate(10 30.5)"/>
</clipPath>
</defs>
</svg>
