<svg width="100" height="71" viewBox="0 0 100 71" fill="none" xmlns="http://www.w3.org/2000/svg">
<path fill-rule="evenodd" clip-rule="evenodd" d="M40.7682 31.9884C42.9759 31.9884 44.7763 33.8529 44.7763 36.1399C44.7763 38.4269 42.9759 40.2912 40.7682 40.2912C38.5605 40.2912 36.7601 38.4266 36.7601 36.1399C36.7601 33.8532 38.5605 31.9884 40.7682 31.9884ZM40.654 8.32324H60.3048C65.5582 8.32324 69.8572 12.7758 69.8572 18.2179V36.2576C69.8572 41.6997 65.5585 46.1525 60.3048 46.1525H57.2102V40.2909H60.3048C62.4462 40.2909 64.1982 38.4763 64.1982 36.2576V18.2179C64.1982 15.9997 62.4462 14.1848 60.3048 14.1848H40.654C38.5125 14.1848 36.7603 15.9997 36.7603 18.2179V20.4665L33.9308 17.5357L31.1016 20.4665V18.2179C31.1016 12.7758 35.4 8.32324 40.654 8.32324ZM36.7601 22.4226V27.0312C38.0174 26.4336 39.3848 26.1249 40.7682 26.1265C46.0923 26.1265 50.4348 30.6246 50.4348 36.1393C50.4348 37.6193 50.1209 39.0248 49.56 40.2906H55.8748V46.1522H40.654C35.4 46.1522 31.1016 41.6997 31.1016 36.2573V22.422L33.9308 19.4918L36.7601 22.4226ZM65.986 50.3224C67.7098 50.3224 69.1167 51.829 69.1167 53.6759C69.1167 54.8077 68.5869 55.8124 67.7805 56.4193C68.5869 57.0271 69.1167 58.0314 69.1167 59.1638C69.1167 61.0107 67.7098 62.5173 65.986 62.5173H57.2099V60.3033H58.2491V52.5359H57.2099V50.3224H65.986ZM62.4047 52.5362H64.3353C64.448 52.5365 64.556 52.583 64.6357 52.6655C64.7153 52.748 64.7602 52.8599 64.7605 52.9766V54.9405C64.7602 55.0572 64.7153 55.1691 64.6357 55.2516C64.556 55.3341 64.448 55.3806 64.3353 55.381H62.4047V52.5362ZM62.4047 57.4591H64.3353C64.4481 57.4594 64.5562 57.506 64.6359 57.5886C64.7155 57.6713 64.7604 57.7833 64.7605 57.9001V59.8634C64.7602 59.9801 64.7153 60.092 64.6357 60.1745C64.556 60.2571 64.448 60.3036 64.3353 60.3039H62.4047V57.4591ZM53.556 50.3224H55.8751V54.1407H53.5566V54.1401C53.556 54.1401 53.556 54.1407 53.556 54.1407C52.2066 52.7018 49.1319 51.707 48.6231 52.8435C47.9348 54.3813 51.3811 54.3153 53.8732 54.9914C57.2845 55.917 57.1959 60.088 54.4726 61.7884C53.4932 62.4006 52.2091 62.7498 50.7798 62.6646C49.4315 62.5842 48.1982 62.3695 47.1318 61.9651C46.9523 61.8971 46.9672 61.9895 46.9672 62.0932V62.5194H44.6484V58.7005H46.9672V58.701C48.3166 60.14 51.8947 60.902 52.4029 59.7649C53.4071 57.5218 44.4776 59.088 44.4776 54.1117C44.4776 51.6774 46.5891 49.8424 49.7431 50.0313C51.092 50.1123 52.325 50.4717 53.3917 50.8761C53.5709 50.9441 53.556 50.8523 53.5566 50.748L53.556 50.3224ZM31.8415 60.3036H32.7545V52.5362H31.8415V50.3227H37.8237V52.5362H36.9107V55.2371L39.2289 52.5362H38.4517V50.3227H43.8154V52.5362H42.4965C42.3392 52.5362 42.2758 52.4958 42.078 52.7517L39.7994 55.67L41.3709 55.7575C42.2368 55.8057 42.5655 56.3885 42.6673 57.3768C42.7534 58.2121 42.66 59.0314 42.6906 59.8498C42.7058 60.267 42.6183 60.3036 43.0008 60.3036H43.759V62.5176H41.4865C39.1144 62.5176 38.6435 61.8218 38.6211 60.2989C38.6127 59.7237 38.6048 59.063 38.5975 58.3446C38.5967 58.2618 38.5487 58.1952 38.4362 58.1999H36.9107V60.3033H37.8237V62.5173H31.8415V60.3036Z" fill="white"/>
</svg>
