<svg width="120" height="100" viewBox="0 0 120 100" fill="none" xmlns="http://www.w3.org/2000/svg">
<g clip-path="url(#clip0_164_561)">
<path d="M29.1942 38.9966C27.9938 38.9966 26.2612 39.3678 23.1279 40.3815V59.607C25.8828 60.4808 27.9938 60.9919 29.1942 60.9919C31.9613 60.9919 33.5213 59.2196 33.5213 56.3766V43.6119C33.5213 40.7689 31.9613 38.9966 29.1942 38.9966ZM30.0959 55.8826C30.0959 56.9953 29.4575 57.3655 28.6941 57.3655C28.1 57.3655 27.1828 57.1395 26.4349 56.9254V43.0556C27.1828 42.8491 28.1 42.623 28.6941 42.623C29.4575 42.623 30.0959 42.9932 30.0959 44.1059V55.8826Z" fill="#1D2935"/>
<path d="M68.7556 35.5356C65.2516 35.358 63.165 36.9775 63.165 40.6857V59.1085C63.165 63.0234 65.0547 64.6343 68.7556 64.4653C72.3779 64.3006 74.2676 62.8587 74.2676 58.6964V41.1108C74.2676 37.1422 72.5582 35.7293 68.7556 35.5356ZM70.4483 58.7792C70.4483 59.8919 70.0943 60.4687 68.7556 60.5096C67.3781 60.5517 67.0042 59.9328 67.0042 58.7792V41.2217C67.0042 40.0681 67.3781 39.4289 68.7556 39.4709C70.0943 39.5118 70.4483 40.109 70.4483 41.2217V58.7792Z" fill="#1D2935"/>
<path d="M102.817 42.7261V57.2383C107.117 55.1001 109.585 52.6154 109.585 49.9531C109.585 47.3199 107.117 44.8481 102.817 42.7261Z" fill="#1D2935"/>
<path d="M10.415 49.9532C10.415 52.6112 12.8801 55.1002 17.1784 57.234V42.7305C12.8801 44.8482 10.415 47.32 10.415 49.9532Z" fill="#1D2935"/>
<path d="M43.1662 58.1366C43.1662 59.2493 42.8 59.9542 41.4735 59.7852C40.1702 59.6205 39.8194 59.0427 39.8194 57.7245V36.8009C38.9542 36.8997 37.0247 37.1797 36.1982 37.3035V58.4659C36.1982 61.8449 37.7649 63.1599 41.4735 63.6043C44.8668 64.0121 46.9457 62.2161 46.9457 58.4659V36.1079C46.2376 36.1497 43.9142 36.3553 43.1662 36.4383V58.1366Z" fill="#1D2935"/>
<path d="M84.7591 51.2222L80.5659 36.9037C79.4241 36.7466 78.0466 36.5862 76.9834 36.4829V63.509C77.7313 63.4358 79.6376 63.2089 80.6212 63.0765L80.3223 47.1513L84.7589 62.4545C85.7038 62.2983 87.0812 62.0466 87.9874 61.8658V38.1186C87.0425 37.9249 85.3254 37.6204 84.4989 37.4891L84.7591 51.2222Z" fill="#1D2935"/>
<path d="M55.1582 35.6924C54.501 35.6924 52.1035 35.7784 49.8984 35.9151V64.0786C50.6464 64.1195 52.6146 64.2272 53.6778 64.2562V54.6918L55.1582 54.6887C59.1191 54.6765 60.7643 52.8185 60.7643 49.2416V40.9427C60.7643 37.4411 58.9144 35.6924 55.1582 35.6924ZM56.945 48.9446C56.945 50.1562 56.5401 50.7707 55.0044 50.775L53.6778 50.7781V39.6652C54.2687 39.6329 54.5829 39.6243 54.938 39.6243C56.5987 39.6243 56.945 40.284 56.945 41.5193V48.9446Z" fill="#1D2935"/>
<path d="M89.8574 42.2724C90.7934 42.4478 91.715 42.6426 92.6134 42.8492V60.8188C93.4399 60.6166 94.9756 60.1969 95.999 59.8794V43.6971C96.9815 43.964 97.9075 44.2309 98.755 44.4848V41.0198C96.082 40.0427 93.212 39.2475 89.8574 38.5146V42.2724Z" fill="#1D2935"/>
</g>
<defs>
<clipPath id="clip0_164_561">
<rect width="100" height="29.7619" fill="white" transform="translate(10 35.1191)"/>
</clipPath>
</defs>
</svg>
