<svg width="120" height="100" viewBox="0 0 120 100" fill="none" xmlns="http://www.w3.org/2000/svg">
<path fill-rule="evenodd" clip-rule="evenodd" d="M60.0002 33.5601L10.8359 50L60.0002 66.4399L109.164 50L60.0002 33.5601ZM36.2234 55.4251H36.2617V44.4578C36.2634 44.4512 36.268 44.4464 36.2716 44.4427C36.2743 44.4399 36.2765 44.4376 36.2765 44.4355C36.2765 44.4283 36.2725 44.4229 36.2686 44.4177C36.2658 44.4138 36.263 44.41 36.2617 44.4056V44.3872H36.2519C36.1762 44.1512 35.5803 43.9627 34.832 43.9627H34.8192V43.3176H44.9353C47.5007 43.3176 50.484 46.4538 50.484 50.0677C50.484 53.9765 47.1133 56.6117 44.9353 56.6117H34.8192V55.8922C35.5951 55.8845 36.2234 55.6814 36.2234 55.4251ZM44.6511 46.1231H39.3581V53.6883H44.6511C45.9648 53.6883 47.6197 52.4427 47.6157 50.0125C47.6118 47.4895 45.6895 46.1231 44.6511 46.1231ZM59.774 45.1802C64.0838 45.1802 66.9107 47.855 66.9107 51.1537C66.9107 54.5471 64.4781 56.7829 60.6895 57.0914H58.8596C55.071 56.7829 52.6354 54.5471 52.6354 51.1537C52.6354 47.8647 55.4387 45.1802 59.774 45.1802ZM59.7848 47.9663C57.3502 47.9663 55.7662 49.4604 55.7662 51.3132C55.7662 53.1622 57.3512 54.6602 59.7848 54.6602C62.2214 54.6602 63.8025 53.1622 63.8025 51.3132C63.8025 49.4604 62.2214 47.9663 59.7848 47.9663ZM87.1801 47.0727C87.1723 47.0814 83.3237 55.5499 83.3237 55.5499C83.3109 55.8942 83.3177 56.0634 84.127 56.0634V56.8032L78.8015 56.8428V56.0876C79.3177 56.0876 79.4603 55.9435 79.4603 55.5364C79.4603 55.3739 77.6039 50.7088 77.6039 50.7088L75.4318 55.3642C75.3806 55.4193 75.3688 55.4803 75.3688 55.548C75.3688 55.9764 75.596 56.0876 76.2017 56.0876H76.2047V56.8428L70.4604 56.8216V56.0595C70.9304 56.0479 71.3266 55.9696 71.3266 55.5189C71.3266 55.428 71.3266 55.3468 71.2952 55.2685L68.0926 47.124C68.0926 47.1224 68.0944 47.1204 68.0962 47.1182C68.0989 47.1151 68.1018 47.1118 68.0995 47.1095C68.0791 47.0727 68.0628 47.0374 68.0473 47.0038C67.9551 46.8045 67.8922 46.6685 67.1801 46.6685V45.891H72.4368V46.6685C72.0287 46.6685 71.7632 46.7023 71.7632 47.1095H71.7367L73.5292 52.3093L75.7347 46.2343H77.6039L79.3847 46.2246L81.7681 52.5588L83.8724 47.1327C83.8724 46.8957 83.7849 46.7023 83.1211 46.6907C83.1015 46.6888 82.9727 46.6888 82.9461 46.6888V45.8871L88.3414 45.8658V46.6917C88.3414 46.6917 87.8989 46.6897 87.7996 46.7081C87.4987 46.77 87.2981 46.9131 87.1801 47.0727Z" fill="#1D2935"/>
</svg>
