<svg width="82" height="101" viewBox="0 0 82 101" fill="none" xmlns="http://www.w3.org/2000/svg">
    <path d="M25.6721 10.4856C23.4401 6.81036 20.8442 3.33089 17.9491 0.135731H28.4409C29.2667 1.0406 30.0768 1.97834 30.851 2.92512C28.9623 5.32399 27.2214 7.86573 25.6721 10.4856Z" fill="#007932"/>
    <path d="M28.3805 0.27051C29.1667 1.13347 29.938 2.02596 30.6772 2.92703C28.8574 5.24636 27.1755 7.69809 25.6702 10.2232C23.5134 6.69797 21.0214 3.35422 18.2526 0.270986L28.3805 0.27051ZM28.5007 0.000476215H17.6427C20.6609 3.30136 23.3544 6.90133 25.6731 10.7499C27.2679 8.03242 29.0542 5.41781 31.0238 2.92322C30.2109 1.925 29.3692 0.950117 28.5007 0.000476215Z" fill="white"/>
    <path d="M25.6721 10.4856C23.4401 6.81036 20.8442 3.33089 17.9491 0.135731H28.4409C29.2653 1.0387 30.0754 1.97643 30.851 2.92512C28.9637 5.32351 27.2214 7.86573 25.6721 10.4856Z" fill="url(#paint0_linear_640_11613)"/>
    <path d="M28.3805 0.27051C29.1652 1.13157 29.9366 2.02406 30.6772 2.92703C28.8584 5.24541 27.1755 7.69714 25.6702 10.2232C23.5134 6.69797 21.0214 3.35422 18.2526 0.270986L28.3805 0.27051ZM28.5007 0.000476215H17.6427C20.6609 3.30136 23.3544 6.90133 25.6731 10.7499C27.2679 8.03242 29.0542 5.41781 31.0238 2.92322C30.2109 1.925 29.3692 0.950117 28.5007 0.000476215Z" fill="white"/>
    <path d="M43.3153 10.4856C41.0833 6.81036 38.4869 3.33089 35.5918 0.135731H46.0836C46.9085 1.03918 47.7181 1.97739 48.4937 2.92512C46.6045 5.32542 44.8632 7.86716 43.3153 10.4856Z" fill="#00588A"/>
    <path d="M46.0232 0.27051C46.8084 1.13204 47.5797 2.02454 48.3199 2.92703C46.4996 5.24731 44.8177 7.69857 43.3134 10.2227C41.1565 6.69749 38.6645 3.35375 35.8963 0.27051H46.0232ZM46.1434 0.000476215H35.2859C38.304 3.30136 40.9976 6.90133 43.3163 10.7499C44.9106 8.03242 46.6973 5.41781 48.667 2.92369C47.8536 1.92548 47.0119 0.950593 46.1434 0.000476215Z" fill="white"/>
    <path d="M43.3153 10.4856C41.0833 6.81036 38.4869 3.33089 35.5918 0.135731H46.0836C46.9075 1.0387 47.7176 1.97643 48.4937 2.92512C46.6059 5.32351 44.8646 7.86573 43.3153 10.4856Z" fill="url(#paint1_linear_640_11613)"/>
    <path d="M46.0232 0.27051C46.8084 1.13204 47.5797 2.02454 48.3199 2.92703C46.501 5.24541 44.8187 7.69666 43.3134 10.2227C41.1565 6.69749 38.6645 3.35375 35.8963 0.27051H46.0232ZM46.1434 0.000476215H35.2859C38.304 3.30136 40.9976 6.90133 43.3163 10.7499C44.9106 8.03242 46.6973 5.41781 48.667 2.92369C47.8536 1.92548 47.0119 0.950593 46.1434 0.000476215Z" fill="white"/>
    <path d="M35.5913 91.8842C45.6953 80.7362 51.6617 66.9611 52.8495 52.0279L52.861 51.8821H35.2183C35.3534 50.14 35.4218 48.3693 35.4218 46.6172C35.4218 44.8651 35.3534 43.0948 35.2183 41.3527H52.8615L52.85 41.207C52.4876 36.6507 51.6584 32.1244 50.3848 27.7525C51.7062 23.3305 53.5055 19.0357 55.7337 14.9828C60.9135 24.654 63.6506 35.5868 63.6506 46.6177C63.6506 63.3993 57.4127 79.4722 46.0836 91.8847L35.5913 91.8842Z" fill="black"/>
    <path d="M55.7313 15.2676C60.8249 24.8645 63.5141 35.6925 63.5141 46.6172C63.5141 63.3445 57.3031 79.3674 46.0228 91.7489H35.8958C45.8973 80.6185 51.8029 66.9016 52.9855 52.0388L53.0085 51.7473H35.3648C35.4927 50.0486 35.5573 48.3241 35.5573 46.6172C35.5573 44.9103 35.4927 43.1863 35.3648 41.4875H53.0085L52.9855 41.196C52.6231 36.644 51.7958 32.1216 50.5256 27.7525C51.8192 23.4329 53.5701 19.2357 55.7313 15.2676ZM55.7346 14.699C53.4384 18.8376 51.5966 23.2105 50.2426 27.7515C51.5056 32.0768 52.3459 36.5812 52.7145 41.2175H35.0714C35.2131 42.9986 35.2859 44.7993 35.2859 46.6172C35.2859 48.435 35.2136 50.2362 35.0714 52.0174H52.7145C51.4927 67.3702 45.1069 81.2767 35.2854 92.0195H46.1429C57.1049 80.0304 63.7861 64.1003 63.7861 46.6172C63.7856 35.0715 60.8718 24.2025 55.7346 14.699Z" fill="black"/>
    <path d="M35.5913 91.4789C45.6953 80.3309 51.6617 66.5558 52.8495 51.6226L52.861 51.4768H35.2183C35.3534 49.7347 35.4218 47.964 35.4218 46.2119C35.4218 44.4598 35.3534 42.6896 35.2183 40.9474H52.8615L52.85 40.8017C52.4876 36.2454 51.6584 31.7192 50.3848 27.3472C51.7062 22.9252 53.5055 18.6304 55.7337 14.5775C60.9135 24.2487 63.6506 35.1815 63.6506 46.2124C63.6506 62.994 57.4127 79.0669 46.0836 91.4794L35.5913 91.4789Z" fill="black"/>
    <path d="M55.7313 14.8623C60.8249 24.4592 63.5141 35.2872 63.5141 46.2119C63.5141 62.9392 57.3031 78.9621 46.0228 91.3437H35.8958C45.8973 80.2132 51.8029 66.4963 52.9855 51.6335L53.0085 51.3421H35.3648C35.4927 49.6433 35.5573 47.9188 35.5573 46.2119C35.5573 44.505 35.4927 42.781 35.3648 41.0822H53.0085L52.9855 40.7907C52.6231 36.2388 51.7958 31.7163 50.5256 27.3472C51.8192 23.0276 53.5701 18.8304 55.7313 14.8623ZM55.7346 14.2941C53.4384 18.4328 51.5966 22.8057 50.2426 27.3467C51.5056 31.672 52.3459 36.1764 52.7145 40.8127H35.0714C35.2131 42.5938 35.2859 44.3945 35.2859 46.2124C35.2859 48.0302 35.2136 49.8314 35.0714 51.6126H52.7145C51.4927 66.9654 45.1069 80.8719 35.2854 91.6146H46.1429C57.1049 79.6255 63.7861 63.6955 63.7861 46.2124C63.7856 34.6662 60.8718 23.7977 55.7346 14.2941Z" fill="black"/>
    <path d="M35.5913 91.4789C45.6953 80.3309 51.6617 66.5558 52.8495 51.6226L52.861 51.4768H35.2183C35.3534 49.7347 35.4218 47.964 35.4218 46.2119C35.4218 44.4598 35.3534 42.6896 35.2183 40.9474H52.8615L52.85 40.8017C52.4876 36.2454 51.6584 31.7192 50.3848 27.3472C51.7062 22.9252 53.5055 18.6304 55.7337 14.5775C60.9135 24.2487 63.6506 35.1815 63.6506 46.2124C63.6506 62.994 57.4127 79.0669 46.0836 91.4794L35.5913 91.4789Z" fill="black"/>
    <path d="M55.7313 14.8623C60.8249 24.4592 63.5141 35.2872 63.5141 46.2119C63.5141 62.9392 57.3031 78.9621 46.0228 91.3437H35.8958C45.8973 80.2132 51.8029 66.4963 52.9855 51.6335L53.0085 51.3421H35.3648C35.4927 49.6433 35.5573 47.9188 35.5573 46.2119C35.5573 44.505 35.4927 42.781 35.3648 41.0822H53.0085L52.9855 40.7907C52.6231 36.2388 51.7958 31.7163 50.5256 27.3472C51.8192 23.0276 53.5701 18.8304 55.7313 14.8623ZM55.7346 14.2941C53.4384 18.4328 51.5966 22.8057 50.2426 27.3467C51.5056 31.672 52.3459 36.1764 52.7145 40.8127H35.0714C35.2131 42.5938 35.2859 44.3945 35.2859 46.2124C35.2859 48.0302 35.2136 49.8314 35.0714 51.6126H52.7145C51.4927 66.9654 45.1069 80.8719 35.2854 91.6146H46.1429C57.1049 79.6255 63.7861 63.6955 63.7861 46.2124C63.7856 34.6662 60.8718 23.7977 55.7346 14.2941Z" fill="black"/>
    <path d="M35.5913 91.0741C45.6953 79.926 51.6617 66.151 52.8495 51.2178L52.861 51.072H35.2183C35.3534 49.3299 35.4218 47.5592 35.4218 45.8071C35.4218 44.055 35.3534 42.2847 35.2183 40.5426H52.8615L52.85 40.3969C52.4876 35.8406 51.6584 31.3143 50.3848 26.9424C51.7062 22.5204 53.5055 18.2256 55.7337 14.1727C60.9135 23.8439 63.6506 34.7767 63.6506 45.8076C63.6506 62.5892 57.4127 78.6621 46.0836 91.0746L35.5913 91.0741Z" fill="black"/>
    <path d="M55.7313 14.457C60.8249 24.0539 63.5141 34.8819 63.5141 45.8066C63.5141 62.5339 57.3031 78.5568 46.0228 90.9384H35.8958C45.8973 79.8079 51.8029 66.091 52.9855 51.2282L53.0085 50.9368H35.3648C35.4927 49.238 35.5573 47.5135 35.5573 45.8066C35.5573 44.0997 35.4927 42.3757 35.3648 40.6769H53.0085L52.9855 40.3855C52.6231 35.8335 51.7958 31.311 50.5256 26.9419C51.8192 22.6228 53.5701 18.4251 55.7313 14.457ZM55.7346 13.8889C53.4384 18.0275 51.5966 22.4004 50.2426 26.9414C51.5056 31.2667 52.3459 35.7711 52.7145 40.4074H35.0714C35.2131 42.1885 35.2859 43.9892 35.2859 45.8071C35.2859 47.6249 35.2136 49.4261 35.0714 51.2073H52.7145C51.4927 66.5601 45.1069 80.4666 35.2854 91.2094H46.1429C57.1049 79.2203 63.7861 63.2902 63.7861 45.8071C63.7856 34.2609 60.8718 23.3924 55.7346 13.8889Z" fill="black"/>
    <path d="M35.5913 91.4789C45.6953 80.3309 51.6617 66.5558 52.8495 51.6226L52.861 51.4768H35.2183C35.3534 49.7347 35.4218 47.964 35.4218 46.2119C35.4218 44.4598 35.3534 42.6896 35.2183 40.9474H52.8615L52.85 40.8017C52.4876 36.2454 51.6584 31.7192 50.3848 27.3472C51.7062 22.9252 53.5055 18.6304 55.7337 14.5775C60.9135 24.2487 63.6506 35.1815 63.6506 46.2124C63.6506 62.994 57.4127 79.0669 46.0836 91.4794L35.5913 91.4789Z" fill="black"/>
    <path d="M55.7313 14.8623C60.8249 24.4592 63.5141 35.2872 63.5141 46.2119C63.5141 62.9392 57.3031 78.9621 46.0228 91.3437H35.8958C45.8973 80.2132 51.8029 66.4963 52.9855 51.6335L53.0085 51.3421H35.3648C35.4927 49.6433 35.5573 47.9188 35.5573 46.2119C35.5573 44.505 35.4927 42.781 35.3648 41.0822H53.0085L52.9855 40.7907C52.6231 36.2388 51.7958 31.7163 50.5256 27.3472C51.8192 23.0276 53.5701 18.8304 55.7313 14.8623ZM55.7346 14.2941C53.4384 18.4328 51.5966 22.8057 50.2426 27.3467C51.5056 31.672 52.3459 36.1764 52.7145 40.8127H35.0714C35.2131 42.5938 35.2859 44.3945 35.2859 46.2124C35.2859 48.0302 35.2136 49.8314 35.0714 51.6126H52.7145C51.4927 66.9654 45.1069 80.8719 35.2854 91.6146H46.1429C57.1049 79.6255 63.7861 63.6955 63.7861 46.2124C63.7856 34.6662 60.8718 23.7977 55.7346 14.2941Z" fill="black"/>
    <path d="M35.5913 91.0741C45.6953 79.926 51.6617 66.151 52.8495 51.2178L52.861 51.072H35.2183C35.3534 49.3299 35.4218 47.5592 35.4218 45.8071C35.4218 44.055 35.3534 42.2847 35.2183 40.5426H52.8615L52.85 40.3969C52.4876 35.8406 51.6584 31.3143 50.3848 26.9424C51.7062 22.5204 53.5055 18.2256 55.7337 14.1727C60.9135 23.8439 63.6506 34.7767 63.6506 45.8076C63.6506 62.5892 57.4127 78.6621 46.0836 91.0746L35.5913 91.0741Z" fill="black"/>
    <path d="M55.7313 14.457C60.8249 24.0539 63.5141 34.8819 63.5141 45.8066C63.5141 62.5339 57.3031 78.5568 46.0228 90.9384H35.8958C45.8973 79.8079 51.8029 66.091 52.9855 51.2282L53.0085 50.9368H35.3648C35.4927 49.238 35.5573 47.5135 35.5573 45.8066C35.5573 44.0997 35.4927 42.3757 35.3648 40.6769H53.0085L52.9855 40.3855C52.6231 35.8335 51.7958 31.311 50.5256 26.9419C51.8192 22.6228 53.5701 18.4251 55.7313 14.457ZM55.7346 13.8889C53.4384 18.0275 51.5966 22.4004 50.2426 26.9414C51.5056 31.2667 52.3459 35.7711 52.7145 40.4074H35.0714C35.2131 42.1885 35.2859 43.9892 35.2859 45.8071C35.2859 47.6249 35.2136 49.4261 35.0714 51.2073H52.7145C51.4927 66.5601 45.1069 80.4666 35.2854 91.2094H46.1429C57.1049 79.2203 63.7861 63.2902 63.7861 45.8071C63.7856 34.2609 60.8718 23.3924 55.7346 13.8889Z" fill="black"/>
    <path d="M35.5913 91.0741C45.6953 79.926 51.6617 66.151 52.8495 51.2178L52.861 51.072H35.2183C35.3534 49.3299 35.4218 47.5592 35.4218 45.8071C35.4218 44.055 35.3534 42.2847 35.2183 40.5426H52.8615L52.85 40.3969C52.4876 35.8406 51.6584 31.3143 50.3848 26.9424C51.7062 22.5204 53.5055 18.2256 55.7337 14.1727C60.9135 23.8439 63.6506 34.7767 63.6506 45.8076C63.6506 62.5892 57.4127 78.6621 46.0836 91.0746L35.5913 91.0741Z" fill="black"/>
    <path d="M55.7313 14.457C60.8249 24.0539 63.5141 34.8819 63.5141 45.8066C63.5141 62.5339 57.3031 78.5568 46.0228 90.9384H35.8958C45.8973 79.8079 51.8029 66.091 52.9855 51.2282L53.0085 50.9368H35.3648C35.4927 49.238 35.5573 47.5135 35.5573 45.8066C35.5573 44.0997 35.4927 42.3757 35.3648 40.6769H53.0085L52.9855 40.3855C52.6231 35.8335 51.7958 31.311 50.5256 26.9419C51.8192 22.6228 53.5701 18.4251 55.7313 14.457ZM55.7346 13.8889C53.4384 18.0275 51.5966 22.4004 50.2426 26.9414C51.5056 31.2667 52.3459 35.7711 52.7145 40.4074H35.0714C35.2131 42.1885 35.2859 43.9892 35.2859 45.8071C35.2859 47.6249 35.2136 49.4261 35.0714 51.2073H52.7145C51.4927 66.5601 45.1069 80.4666 35.2854 91.2094H46.1429C57.1049 79.2203 63.7861 63.2902 63.7861 45.8071C63.7856 34.2609 60.8718 23.3924 55.7346 13.8889Z" fill="black"/>
    <path d="M35.5913 90.6688C45.6953 79.5208 51.6617 65.7457 52.8495 50.8125L52.861 50.6667H35.2183C35.3534 48.9246 35.4218 47.1539 35.4218 45.4018C35.4218 43.6497 35.3534 41.8795 35.2183 40.1373H52.8615L52.85 39.9916C52.4876 35.4353 51.6584 30.9091 50.3848 26.5371C51.7062 22.1151 53.5055 17.8203 55.7337 13.7674C60.9135 23.4386 63.6506 34.3714 63.6506 45.4023C63.6506 62.1839 57.4127 78.2568 46.0836 90.6693L35.5913 90.6688Z" fill="#00588A"/>
    <path d="M55.7313 14.0522C60.8249 23.6491 63.5141 34.4771 63.5141 45.4018C63.5141 62.1291 57.3031 78.152 46.0228 90.5336H35.8958C45.8973 79.4031 51.8029 65.6862 52.9855 50.8234L53.0085 50.532H35.3648C35.4927 48.8332 35.5573 47.1087 35.5573 45.4018C35.5573 43.6949 35.4927 41.9709 35.3648 40.2721H53.0085L52.9855 39.9807C52.6231 35.4287 51.7958 30.9062 50.5256 26.5371C51.8192 22.2175 53.5701 18.0203 55.7313 14.0522ZM55.7346 13.4836C53.4384 17.6222 51.5966 21.9951 50.2426 26.5361C51.5056 30.8614 52.3459 35.3658 52.7145 40.0021H35.0714C35.2131 41.7833 35.2859 43.584 35.2859 45.4018C35.2859 47.2196 35.2136 49.0208 35.0714 50.802H52.7145C51.4927 66.1548 45.1069 80.0613 35.2854 90.8041H46.1429C57.1049 78.815 63.7861 62.8849 63.7861 45.4018C63.7856 33.8561 60.8718 22.9871 55.7346 13.4836Z" fill="white"/>
    <path d="M35.5913 90.6688C45.6953 79.5208 51.6617 65.7457 52.8495 50.8125L52.861 50.6667H35.2183C35.3534 48.9246 35.4218 47.1539 35.4218 45.4018C35.4218 43.6497 35.3534 41.8795 35.2183 40.1373H52.8615L52.85 39.9916C52.4876 35.4353 51.6584 30.9091 50.3848 26.5371C51.7062 22.1151 53.5055 17.8203 55.7337 13.7674C60.9135 23.4386 63.6506 34.3714 63.6506 45.4023C63.6506 62.1839 57.4127 78.2568 46.0836 90.6693L35.5913 90.6688Z" fill="url(#paint2_linear_640_11613)"/>
    <path d="M55.7313 14.0522C60.8249 23.6491 63.5141 34.4771 63.5141 45.4018C63.5141 62.1291 57.3031 78.152 46.0228 90.5336H35.8958C45.8973 79.4031 51.8029 65.6862 52.9855 50.8234L53.0085 50.532H35.3648C35.4927 48.8332 35.5573 47.1087 35.5573 45.4018C35.5573 43.6949 35.4927 41.9709 35.3648 40.2721H53.0085L52.9855 39.9807C52.6231 35.4287 51.7958 30.9062 50.5256 26.5371C51.8192 22.2175 53.5701 18.0203 55.7313 14.0522ZM55.7346 13.4836C53.4384 17.6222 51.5966 21.9951 50.2426 26.5361C51.5056 30.8614 52.3459 35.3658 52.7145 40.0021H35.0714C35.2131 41.7833 35.2859 43.584 35.2859 45.4018C35.2859 47.2196 35.2136 49.0208 35.0714 50.802H52.7145C51.4927 66.1548 45.1069 80.0613 35.2854 90.8041H46.1429C57.1049 78.815 63.7861 62.8849 63.7861 45.4018C63.7856 33.8561 60.8718 22.9871 55.7346 13.4836Z" fill="white"/>
    <path d="M17.7035 91.8842C6.37387 79.4712 0.135971 63.3983 0.135971 46.6172C0.135971 29.8365 6.37339 13.7641 17.703 1.35112H28.1943C16.9245 13.7879 10.7216 29.8513 10.7216 46.6172C10.7216 63.3831 16.925 79.4465 28.1948 91.8842H17.7035Z" fill="black"/>
    <path d="M27.8903 1.4859C16.7268 13.916 10.5861 29.9189 10.5861 46.6172C10.5861 63.3154 16.7273 79.3188 27.8908 91.7489H17.7633C6.48255 79.3674 0.271463 63.344 0.271463 46.6172C0.271463 29.8908 6.48255 13.8679 17.7629 1.4859H27.8903ZM28.5002 1.21586H17.6427C6.68124 13.205 1.56992e-07 29.135 1.56992e-07 46.6172C1.56992e-07 64.0998 6.68172 80.0304 17.6432 92.0195H28.5007C17.5388 80.0304 10.8571 64.1003 10.8571 46.6172C10.8576 29.1346 17.5388 13.2045 28.5002 1.21586Z" fill="black"/>
    <path d="M17.7035 91.4789C6.37387 79.066 0.135971 62.993 0.135971 46.2119C0.135971 29.4313 6.37339 13.3588 17.703 0.945831H28.1943C16.9245 13.3826 10.7216 29.446 10.7216 46.2119C10.7216 62.9778 16.925 79.0412 28.1948 91.4789H17.7035Z" fill="black"/>
    <path d="M27.8903 1.08061C16.7268 13.5112 10.5861 29.5141 10.5861 46.2119C10.5861 62.9101 16.7273 78.9135 27.8908 91.3437H17.7633C6.48255 78.9621 0.271463 62.9387 0.271463 46.2119C0.271463 29.4855 6.48255 13.4626 17.7629 1.08061H27.8903ZM28.5002 0.810576H17.6427C6.68124 12.7997 1.56992e-07 28.7297 1.56992e-07 46.2119C1.56992e-07 63.6945 6.68172 79.6251 17.6432 91.6142H28.5007C17.5388 79.6251 10.8571 63.695 10.8571 46.2119C10.8576 28.7293 17.5388 12.7992 28.5002 0.810576Z" fill="black"/>
    <path d="M17.7035 91.4789C6.37387 79.066 0.135971 62.993 0.135971 46.2119C0.135971 29.4313 6.37339 13.3588 17.703 0.945831H28.1943C16.9245 13.3826 10.7216 29.446 10.7216 46.2119C10.7216 62.9778 16.925 79.0412 28.1948 91.4789H17.7035Z" fill="black"/>
    <path d="M27.8903 1.08061C16.7268 13.5112 10.5861 29.5141 10.5861 46.2119C10.5861 62.9101 16.7273 78.9135 27.8908 91.3437H17.7633C6.48255 78.9621 0.271463 62.9387 0.271463 46.2119C0.271463 29.4855 6.48255 13.4626 17.7629 1.08061H27.8903ZM28.5002 0.810576H17.6427C6.68124 12.7997 1.56992e-07 28.7297 1.56992e-07 46.2119C1.56992e-07 63.6945 6.68172 79.6251 17.6432 91.6142H28.5007C17.5388 79.6251 10.8571 63.695 10.8571 46.2119C10.8576 28.7293 17.5388 12.7992 28.5002 0.810576Z" fill="black"/>
    <path d="M17.7035 91.0741C6.37387 78.6611 0.135971 62.5882 0.135971 45.8071C0.135971 29.0264 6.37339 12.954 17.703 0.541019H28.1943C16.9245 12.9778 10.7216 29.0412 10.7216 45.8071C10.7216 62.573 16.925 78.6364 28.1948 91.0741H17.7035Z" fill="black"/>
    <path d="M27.8903 0.675321C16.7273 13.1059 10.5861 29.1088 10.5861 45.8066C10.5861 62.5049 16.7273 78.5083 27.8908 90.9384H17.7633C6.48255 78.5568 0.271463 62.5334 0.271463 45.8066C0.271463 29.0803 6.48255 13.0573 17.7629 0.675321H27.8903ZM28.5002 0.405288H17.6427C6.68124 12.3944 1.56992e-07 28.3244 1.56992e-07 45.8066C1.56992e-07 63.2892 6.68172 79.2198 17.6432 91.2089H28.5007C17.5388 79.2198 10.8571 63.2897 10.8571 45.8066C10.8576 28.3244 17.5388 12.3944 28.5002 0.405288Z" fill="black"/>
    <path d="M17.7035 91.4789C6.37387 79.066 0.135971 62.993 0.135971 46.2119C0.135971 29.4313 6.37339 13.3588 17.703 0.945831H28.1943C16.9245 13.3826 10.7216 29.446 10.7216 46.2119C10.7216 62.9778 16.925 79.0412 28.1948 91.4789H17.7035Z" fill="black"/>
    <path d="M27.8903 1.08061C16.7268 13.5112 10.5861 29.5141 10.5861 46.2119C10.5861 62.9101 16.7273 78.9135 27.8908 91.3437H17.7633C6.48255 78.9621 0.271463 62.9387 0.271463 46.2119C0.271463 29.4855 6.48255 13.4626 17.7629 1.08061H27.8903ZM28.5002 0.810576H17.6427C6.68124 12.7997 1.56992e-07 28.7297 1.56992e-07 46.2119C1.56992e-07 63.6945 6.68172 79.6251 17.6432 91.6142H28.5007C17.5388 79.6251 10.8571 63.695 10.8571 46.2119C10.8576 28.7293 17.5388 12.7992 28.5002 0.810576Z" fill="black"/>
    <path d="M17.7035 91.0741C6.37387 78.6611 0.135971 62.5882 0.135971 45.8071C0.135971 29.0264 6.37339 12.954 17.703 0.541019H28.1943C16.9245 12.9778 10.7216 29.0412 10.7216 45.8071C10.7216 62.573 16.925 78.6364 28.1948 91.0741H17.7035Z" fill="black"/>
    <path d="M27.8903 0.675321C16.7273 13.1059 10.5861 29.1088 10.5861 45.8066C10.5861 62.5049 16.7273 78.5083 27.8908 90.9384H17.7633C6.48255 78.5568 0.271463 62.5334 0.271463 45.8066C0.271463 29.0803 6.48255 13.0573 17.7629 0.675321H27.8903ZM28.5002 0.405288H17.6427C6.68124 12.3944 1.56992e-07 28.3244 1.56992e-07 45.8066C1.56992e-07 63.2892 6.68172 79.2198 17.6432 91.2089H28.5007C17.5388 79.2198 10.8571 63.2897 10.8571 45.8066C10.8576 28.3244 17.5388 12.3944 28.5002 0.405288Z" fill="black"/>
    <path d="M17.7035 91.0741C6.37387 78.6611 0.135971 62.5882 0.135971 45.8071C0.135971 29.0264 6.37339 12.954 17.703 0.541019H28.1943C16.9245 12.9778 10.7216 29.0412 10.7216 45.8071C10.7216 62.573 16.925 78.6364 28.1948 91.0741H17.7035Z" fill="black"/>
    <path d="M27.8903 0.675321C16.7273 13.1059 10.5861 29.1088 10.5861 45.8066C10.5861 62.5049 16.7273 78.5083 27.8908 90.9384H17.7633C6.48255 78.5568 0.271463 62.5334 0.271463 45.8066C0.271463 29.0803 6.48255 13.0573 17.7629 0.675321H27.8903ZM28.5002 0.405288H17.6427C6.68124 12.3944 1.56992e-07 28.3244 1.56992e-07 45.8066C1.56992e-07 63.2892 6.68172 79.2198 17.6432 91.2089H28.5007C17.5388 79.2198 10.8571 63.2897 10.8571 45.8066C10.8576 28.3244 17.5388 12.3944 28.5002 0.405288Z" fill="black"/>
    <path d="M17.7035 90.6688C6.37387 78.2559 0.135971 62.1829 0.135971 45.4018C0.135971 28.6212 6.37339 12.5487 17.703 0.135731H28.1943C16.9245 12.5725 10.7216 28.6359 10.7216 45.4018C10.7216 62.1677 16.925 78.2311 28.1948 90.6688H17.7035Z" fill="#007932"/>
    <path d="M27.8903 0.27051C16.7268 12.7006 10.5861 28.7035 10.5861 45.4018C10.5861 62.1 16.7273 78.1034 27.8908 90.5336H17.7633C6.48255 78.152 0.271463 62.1286 0.271463 45.4018C0.271463 28.6754 6.48255 12.6525 17.7629 0.27051H27.8903ZM28.5007 0.000476215H17.6427C6.68124 11.9896 0 27.9196 0 45.4018C0 62.8844 6.68172 78.815 17.6432 90.8041H28.5007C17.5388 78.815 10.8571 62.8849 10.8571 45.4018C10.8576 27.9192 17.5393 11.9891 28.5007 0.000476215Z" fill="white"/>
    <path d="M35.3467 90.6688C26.5339 81.0129 20.7686 69.1462 18.6668 56.337H29.249C31.3403 69.1338 37.0726 80.9957 45.8379 90.6688H35.3467Z" fill="#00588A"/>
    <path d="M29.1332 56.4727C31.2278 69.1519 36.8916 80.9119 45.5335 90.534H35.4065C26.6704 80.9452 20.9424 69.1757 18.8267 56.4727H29.1332ZM29.3644 56.2022H18.5073C20.6427 69.4095 26.6297 81.3353 35.2863 90.8036H46.1439C37.4872 81.3358 31.4997 69.41 29.3644 56.2022Z" fill="white"/>
    <path d="M18.6668 34.4666C20.7681 21.6584 26.533 9.79168 35.3462 0.135731H45.8379C37.0721 9.80788 31.3398 21.6698 29.249 34.4666H18.6668Z" fill="#00588A"/>
    <path d="M45.533 0.27051C36.8916 9.8917 31.2278 21.6522 29.1332 34.3319H18.8267C20.9419 21.6289 26.6699 9.85931 35.406 0.270033L45.533 0.27051ZM46.1434 0.000476215H35.2859C26.6297 9.46879 20.6422 21.3945 18.5073 34.6019H29.3644C31.4993 21.3945 37.4868 9.46831 46.1434 0.000476215Z" fill="white"/>
    <path d="M36.3095 34.4666C38.4113 21.6579 44.1761 9.79121 52.9884 0.135255H63.4802C54.7148 9.8074 48.983 21.6693 46.8917 34.4666H36.3095Z" fill="#007932"/>
    <path d="M63.1761 0.27051C54.5348 9.8917 48.871 21.6522 46.7763 34.3323H36.4694C38.5846 21.6293 44.3126 9.85979 53.0487 0.27051H63.1761ZM63.7861 0.000476215H52.9285C44.2719 9.46879 38.2849 21.3945 36.15 34.6019H47.0071C49.1424 21.3945 55.1294 9.46831 63.7861 0.000476215Z" fill="white"/>
    <path d="M36.3095 34.4666C38.4113 21.6579 44.1761 9.79121 52.9884 0.135255H63.4802C54.7148 9.8074 48.983 21.6693 46.8917 34.4666H36.3095Z" fill="url(#paint3_linear_640_11613)"/>
    <path d="M63.1761 0.27051C54.5348 9.8917 48.871 21.6522 46.7763 34.3323H36.4694C38.5846 21.6293 44.3126 9.85979 53.0487 0.27051H63.1761ZM63.7861 0.000476215H52.9285C44.2719 9.46879 38.2849 21.3945 36.15 34.6019H47.0071C49.1424 21.3945 55.1294 9.46831 63.7861 0.000476215Z" fill="white"/>
    <path d="M53.234 91.8842C64.5042 79.4465 70.7072 63.3826 70.7072 46.6172C70.7072 29.8513 64.5042 13.7879 53.2345 1.35112H63.7262C75.0554 13.7641 81.2933 29.837 81.2933 46.6172C81.2933 63.3983 75.0554 79.4712 63.7258 91.8842H53.234Z" fill="black"/>
    <path d="M63.6659 1.4859C74.9467 13.8679 81.1573 29.8913 81.1573 46.6172C81.1573 63.344 74.9462 79.3674 63.6654 91.7489H53.5385C64.702 79.3184 70.8436 63.3154 70.8436 46.6172C70.8436 29.9189 64.702 13.916 53.539 1.4859H63.6659ZM63.7861 1.21586H52.9285C63.8905 13.2045 70.5717 29.1346 70.5717 46.6172C70.5717 64.0998 63.89 80.0304 52.9281 92.0195H63.7856C74.7475 80.0304 81.4293 64.1003 81.4293 46.6172C81.4293 29.1346 74.7475 13.2045 63.7861 1.21586Z" fill="black"/>
    <path d="M53.234 91.4789C64.5042 79.0412 70.7072 62.9773 70.7072 46.2119C70.7072 29.446 64.5042 13.3826 53.2345 0.945831H63.7262C75.0554 13.3588 81.2933 29.4317 81.2933 46.2119C81.2933 62.993 75.0554 79.066 63.7258 91.4789H53.234Z" fill="black"/>
    <path d="M63.6659 1.08061C74.9467 13.4626 81.1573 29.486 81.1573 46.2119C81.1573 62.9387 74.9462 78.9621 63.6654 91.3437H53.5385C64.702 78.9131 70.8436 62.9101 70.8436 46.2119C70.8436 29.5136 64.702 13.5112 53.539 1.08061H63.6659ZM63.7861 0.810576H52.9285C63.8905 12.7992 70.5717 28.7293 70.5717 46.2119C70.5717 63.6945 63.89 79.6251 52.9281 91.6142H63.7856C74.7475 79.6251 81.4293 63.695 81.4293 46.2119C81.4293 28.7297 74.7475 12.7997 63.7861 0.810576Z" fill="black"/>
    <path d="M53.234 91.4789C64.5042 79.0412 70.7072 62.9773 70.7072 46.2119C70.7072 29.446 64.5042 13.3826 53.2345 0.945831H63.7262C75.0554 13.3588 81.2933 29.4317 81.2933 46.2119C81.2933 62.993 75.0554 79.066 63.7258 91.4789H53.234Z" fill="black"/>
    <path d="M63.6659 1.08061C74.9467 13.4626 81.1573 29.486 81.1573 46.2119C81.1573 62.9387 74.9462 78.9621 63.6654 91.3437H53.5385C64.702 78.9131 70.8436 62.9101 70.8436 46.2119C70.8436 29.5136 64.702 13.5112 53.539 1.08061H63.6659ZM63.7861 0.810576H52.9285C63.8905 12.7992 70.5717 28.7293 70.5717 46.2119C70.5717 63.6945 63.89 79.6251 52.9281 91.6142H63.7856C74.7475 79.6251 81.4293 63.695 81.4293 46.2119C81.4293 28.7297 74.7475 12.7997 63.7861 0.810576Z" fill="black"/>
    <path d="M53.234 91.0741C64.5042 78.6364 70.7072 62.5725 70.7072 45.8071C70.7072 29.0412 64.5042 12.9778 53.2345 0.541019H63.7262C75.0554 12.954 81.2933 29.0269 81.2933 45.8071C81.2933 62.5882 75.0554 78.6611 63.7258 91.0741H53.234Z" fill="black"/>
    <path d="M63.6659 0.675321C74.9467 13.0573 81.1573 29.0807 81.1573 45.8066C81.1573 62.5334 74.9462 78.5568 63.6654 90.9384H53.5385C64.702 78.5078 70.8436 62.5049 70.8436 45.8066C70.8436 29.1084 64.7025 13.1054 53.539 0.675321H63.6659ZM63.7861 0.405288H52.9285C63.8905 12.3939 70.5717 28.324 70.5717 45.8066C70.5717 63.2892 63.89 79.2198 52.9281 91.2089H63.7856C74.7475 79.2198 81.4293 63.2897 81.4293 45.8066C81.4293 28.3244 74.7475 12.3944 63.7861 0.405288Z" fill="black"/>
    <path d="M53.234 91.4789C64.5042 79.0412 70.7072 62.9773 70.7072 46.2119C70.7072 29.446 64.5042 13.3826 53.2345 0.945831H63.7262C75.0554 13.3588 81.2933 29.4317 81.2933 46.2119C81.2933 62.993 75.0554 79.066 63.7258 91.4789H53.234Z" fill="black"/>
    <path d="M63.6659 1.08061C74.9467 13.4626 81.1573 29.486 81.1573 46.2119C81.1573 62.9387 74.9462 78.9621 63.6654 91.3437H53.5385C64.702 78.9131 70.8436 62.9101 70.8436 46.2119C70.8436 29.5136 64.702 13.5112 53.539 1.08061H63.6659ZM63.7861 0.810576H52.9285C63.8905 12.7992 70.5717 28.7293 70.5717 46.2119C70.5717 63.6945 63.89 79.6251 52.9281 91.6142H63.7856C74.7475 79.6251 81.4293 63.695 81.4293 46.2119C81.4293 28.7297 74.7475 12.7997 63.7861 0.810576Z" fill="black"/>
    <path d="M53.234 91.0741C64.5042 78.6364 70.7072 62.5725 70.7072 45.8071C70.7072 29.0412 64.5042 12.9778 53.2345 0.541019H63.7262C75.0554 12.954 81.2933 29.0269 81.2933 45.8071C81.2933 62.5882 75.0554 78.6611 63.7258 91.0741H53.234Z" fill="black"/>
    <path d="M63.6659 0.675321C74.9467 13.0573 81.1573 29.0807 81.1573 45.8066C81.1573 62.5334 74.9462 78.5568 63.6654 90.9384H53.5385C64.702 78.5078 70.8436 62.5049 70.8436 45.8066C70.8436 29.1084 64.7025 13.1054 53.539 0.675321H63.6659ZM63.7861 0.405288H52.9285C63.8905 12.3939 70.5717 28.324 70.5717 45.8066C70.5717 63.2892 63.89 79.2198 52.9281 91.2089H63.7856C74.7475 79.2198 81.4293 63.2897 81.4293 45.8066C81.4293 28.3244 74.7475 12.3944 63.7861 0.405288Z" fill="black"/>
    <path d="M53.234 91.0741C64.5042 78.6364 70.7072 62.5725 70.7072 45.8071C70.7072 29.0412 64.5042 12.9778 53.2345 0.541019H63.7262C75.0554 12.954 81.2933 29.0269 81.2933 45.8071C81.2933 62.5882 75.0554 78.6611 63.7258 91.0741H53.234Z" fill="black"/>
    <path d="M63.6659 0.675321C74.9467 13.0573 81.1573 29.0807 81.1573 45.8066C81.1573 62.5334 74.9462 78.5568 63.6654 90.9384H53.5385C64.702 78.5078 70.8436 62.5049 70.8436 45.8066C70.8436 29.1084 64.7025 13.1054 53.539 0.675321H63.6659ZM63.7861 0.405288H52.9285C63.8905 12.3939 70.5717 28.324 70.5717 45.8066C70.5717 63.2892 63.89 79.2198 52.9281 91.2089H63.7856C74.7475 79.2198 81.4293 63.2897 81.4293 45.8066C81.4293 28.3244 74.7475 12.3944 63.7861 0.405288Z" fill="black"/>
    <path d="M53.234 90.6688C64.5042 78.2311 70.7072 62.1672 70.7072 45.4018C70.7072 28.6359 64.5042 12.5725 53.2345 0.135731H63.7262C75.0554 12.5487 81.2933 28.6216 81.2933 45.4018C81.2933 62.1829 75.0554 78.2559 63.7258 90.6688H53.234Z" fill="#007932"/>
    <path d="M63.6659 0.27051C74.9467 12.6525 81.1573 28.6759 81.1573 45.4018C81.1573 62.1286 74.9462 78.152 63.6654 90.5336H53.5385C64.702 78.103 70.8436 62.1 70.8436 45.4018C70.8436 28.7035 64.7025 12.7006 53.539 0.27051H63.6659ZM63.7861 0.000476215H52.9285C63.8905 11.9891 70.5717 27.9192 70.5717 45.4018C70.5717 62.8844 63.89 78.815 52.9281 90.8041H63.7856C74.7475 78.815 81.4293 62.8849 81.4293 45.4018C81.4293 27.9192 74.7475 11.9896 63.7861 0.000476215Z" fill="white"/>
    <path d="M34.5375 34.4666C34.1014 31.7973 33.4972 29.1298 32.7412 26.5361C34.0631 22.1132 35.8623 17.8184 38.0905 13.7665C41.5659 20.253 43.9301 27.2153 45.1198 34.4671L34.5375 34.4666Z" fill="#00588A"/>
    <path d="M38.0891 14.0513C41.4677 20.4144 43.7778 27.2338 44.9599 34.3319H34.6529C34.2192 31.7077 33.624 29.0869 32.8824 26.5366C34.1765 22.2161 35.9269 18.0189 38.0891 14.0513ZM38.0919 13.4831C35.7953 17.6217 33.9534 21.9946 32.5995 26.5357C33.3665 29.1617 33.9774 31.8539 34.4217 34.6019H45.2792C44.0622 27.0733 41.5937 19.961 38.0919 13.4831Z" fill="white"/>
    <path d="M80.4344 0.264318C80.7441 0.44053 80.9874 0.682465 81.164 0.989646C81.3412 1.29778 81.4297 1.63877 81.4297 2.01358C81.4297 2.38839 81.3397 2.73177 81.1588 3.04323C80.9778 3.3547 80.7317 3.60044 80.4205 3.78047C80.1093 3.96001 79.7651 4.05002 79.3883 4.05002C79.0115 4.05002 78.6682 3.96001 78.3594 3.78047C78.0496 3.60044 77.8055 3.35565 77.6269 3.04609C77.4478 2.73653 77.3583 2.39649 77.3583 2.02454C77.3583 1.65401 77.4478 1.3135 77.6269 1.00346C77.8055 0.693895 78.0506 0.449103 78.3623 0.269081C78.6735 0.0895349 79.0196 0 79.4002 0C79.7809 0 80.1251 0.088106 80.4344 0.264318ZM80.3338 3.63473C80.6187 3.46805 80.8432 3.2423 81.0084 2.95751C81.1736 2.67271 81.2569 2.35791 81.2569 2.01406C81.2569 1.67021 81.1755 1.35731 81.0142 1.07632C80.8528 0.794384 80.6307 0.572928 80.3482 0.410527C80.0652 0.248126 79.7493 0.166687 79.3997 0.166687C79.0498 0.166687 78.7323 0.249078 78.448 0.413384C78.1636 0.578643 77.9395 0.802956 77.7767 1.08775C77.613 1.37255 77.5311 1.68545 77.5311 2.02549C77.5311 2.36601 77.613 2.6789 77.7767 2.9637C77.94 3.24897 78.1631 3.47329 78.4451 3.63807C78.728 3.80237 79.0421 3.88524 79.3883 3.88524C79.7344 3.88524 80.049 3.80047 80.3338 3.63473ZM80.2673 2.07407C80.173 2.19837 80.0394 2.28695 79.8666 2.34076L80.4258 3.20135H80.1835L79.653 2.38648C79.6229 2.39077 79.5721 2.39268 79.5032 2.39268H78.8401V3.20135H78.6151V0.849152H79.5027C79.7794 0.849152 79.9996 0.918685 80.1629 1.0587C80.3266 1.19824 80.408 1.38446 80.408 1.61782C80.4085 1.79784 80.3616 1.95024 80.2673 2.07407ZM80.0049 2.04549C80.128 1.94405 80.1892 1.80165 80.1892 1.61829C80.1892 1.43875 80.128 1.29826 80.0049 1.19681C79.8819 1.09537 79.709 1.04441 79.4859 1.04441H78.8343V2.19789H79.4859C79.709 2.19741 79.8824 2.14646 80.0049 2.04549Z" fill="#007932"/>
    <path d="M21.2646 100.445V100.911H17.6436V95.8175H21.1545V96.2838H18.1842V98.0959H20.8323V98.5541H18.1842V100.446L21.2646 100.445ZM23.7264 100.619C23.319 100.397 22.9996 100.088 22.7679 99.6923C22.5367 99.2965 22.4208 98.8541 22.4208 98.3636C22.4208 97.8745 22.5367 97.4311 22.7679 97.0363C22.9996 96.6405 23.3204 96.3319 23.7303 96.1085C24.1396 95.8852 24.5983 95.7742 25.1053 95.7742C25.4859 95.7742 25.8368 95.8366 26.1586 95.9628C26.4808 96.0895 26.7542 96.2738 26.9777 96.5162L26.6345 96.8586C26.2347 96.4557 25.7296 96.2543 25.1201 96.2543C24.7156 96.2543 24.3474 96.3457 24.0156 96.5305C23.6838 96.7153 23.4243 96.9672 23.2366 97.2877C23.049 97.6078 22.9551 97.9669 22.9551 98.364C22.9551 98.7622 23.049 99.1213 23.2366 99.4413C23.4248 99.7614 23.6843 100.014 24.0156 100.199C24.3469 100.383 24.7151 100.475 25.1201 100.475C25.7349 100.475 26.2395 100.271 26.6345 99.8642L26.9777 100.206C26.7542 100.449 26.4794 100.634 26.1552 100.762C25.8306 100.891 25.4787 100.955 25.0981 100.955C24.5906 100.954 24.1334 100.842 23.7264 100.619ZM29.249 100.616C28.8363 100.39 28.5151 100.081 28.2834 99.6885C28.0516 99.2956 27.9358 98.8541 27.9358 98.3636C27.9358 97.8745 28.0512 97.4325 28.2834 97.0396C28.5151 96.6472 28.8363 96.3376 29.249 96.1123C29.6608 95.8861 30.1204 95.7742 30.6274 95.7742C31.1344 95.7742 31.5921 95.8852 31.9991 96.1085C32.406 96.3319 32.7273 96.6405 32.9609 97.0363C33.1951 97.4311 33.3119 97.8745 33.3119 98.3636C33.3119 98.8541 33.1951 99.2965 32.9609 99.6923C32.7273 100.088 32.406 100.397 31.9991 100.619C31.5917 100.842 31.1344 100.954 30.6274 100.954C30.1204 100.954 29.6613 100.841 29.249 100.616ZM31.7252 100.201C32.0522 100.019 32.3079 99.7671 32.4932 99.4442C32.6789 99.1213 32.7709 98.7612 32.7709 98.3631C32.7709 97.9659 32.6789 97.6054 32.4932 97.2825C32.3079 96.9605 32.0522 96.7081 31.7252 96.5257C31.3978 96.3438 31.0329 96.2533 30.6279 96.2533C30.2229 96.2533 29.8566 96.3438 29.5272 96.5257C29.1978 96.7081 28.9388 96.9605 28.7516 97.2825C28.5639 97.6054 28.4701 97.9659 28.4701 98.3631C28.4701 98.7612 28.5639 99.1213 28.7516 99.4442C28.9393 99.7671 29.1983 100.019 29.5272 100.201C29.8566 100.383 30.2229 100.474 30.6279 100.474C31.0329 100.474 31.3978 100.383 31.7252 100.201ZM38.9958 95.8171L36.7284 100.911H36.1946L33.9271 95.8171H34.5126L36.4727 100.241L38.4481 95.8171H38.9958ZM43.1583 99.5499H40.3053L39.691 100.911H39.1275L41.4687 95.8171H42.0025L44.3437 100.911H43.773L43.1583 99.5499ZM42.9605 99.1137L41.732 96.3776L40.5035 99.1137H42.9605ZM45.5574 95.8171H46.0989V100.445H48.9662V100.911H45.5574V95.8171ZM54.101 95.8171L51.8331 100.911H51.2998L49.0323 95.8171H49.6174L51.5779 100.241L53.5533 95.8171H54.101ZM58.827 100.445V100.911H55.2061V95.8175H58.7169V96.2838H55.7475V98.0959H58.3947V98.5541H55.7475V100.446L58.827 100.445ZM60.7837 100.772C60.4352 100.651 60.1656 100.491 59.9756 100.292L60.1872 99.8771C60.3725 100.062 60.6185 100.21 60.9259 100.324C61.2333 100.438 61.5498 100.496 61.8768 100.496C62.3349 100.496 62.6792 100.411 62.908 100.245C63.1374 100.077 63.2523 99.8595 63.2523 99.5932C63.2523 99.3894 63.1895 99.2265 63.0655 99.106C62.9406 98.9846 62.7883 98.8913 62.6078 98.8255C62.4273 98.7603 62.1769 98.6888 61.8547 98.6112C61.4693 98.5141 61.1624 98.4217 60.9331 98.3307C60.7038 98.2412 60.507 98.104 60.3447 97.9202C60.1814 97.7349 60.0986 97.4863 60.0986 97.1706C60.0986 96.9134 60.1675 96.68 60.3035 96.4681C60.4404 96.2576 60.6506 96.0885 60.9331 95.9618C61.2156 95.8356 61.5665 95.7733 61.9864 95.7733C62.2789 95.7733 62.5652 95.8128 62.8458 95.8928C63.1263 95.9733 63.3691 96.0833 63.574 96.2238L63.3906 96.6534C63.1761 96.5119 62.9463 96.4067 62.7031 96.3367C62.4589 96.2662 62.2205 96.2309 61.9864 96.2309C61.5373 96.2309 61.1998 96.3171 60.9733 96.4891C60.7464 96.6615 60.6329 96.8834 60.6329 97.1549C60.6329 97.3587 60.6952 97.522 60.8201 97.6459C60.9441 97.7697 61.1002 97.8635 61.2879 97.9297C61.4755 97.9959 61.7279 98.0669 62.0453 98.1445C62.4206 98.2359 62.7247 98.3274 62.9559 98.4169C63.1871 98.5064 63.3839 98.6426 63.5443 98.8241C63.7052 99.0065 63.7861 99.2522 63.7861 99.5632C63.7861 99.8204 63.7162 100.054 63.5769 100.266C63.4385 100.476 63.225 100.643 62.9372 100.767C62.649 100.891 62.2957 100.953 61.8763 100.953C61.4966 100.954 61.1323 100.893 60.7837 100.772Z" fill="black"/>
    <path d="M21.2646 100.378V100.843H17.6436V95.7499H21.1545V96.2162H18.1842V98.0283H20.8323V98.4864H18.1842V100.379L21.2646 100.378ZM23.7264 100.551C23.319 100.329 22.9996 100.02 22.7679 99.6247C22.5367 99.2289 22.4208 98.7865 22.4208 98.2959C22.4208 97.8068 22.5367 97.3634 22.7679 96.9686C22.9996 96.5729 23.3204 96.2643 23.7303 96.0409C24.1396 95.8175 24.5983 95.7066 25.1053 95.7066C25.4859 95.7066 25.8368 95.769 26.1586 95.8952C26.4808 96.0219 26.7542 96.2062 26.9777 96.4486L26.6345 96.791C26.2347 96.3881 25.7296 96.1866 25.1201 96.1866C24.7156 96.1866 24.3474 96.2781 24.0156 96.4629C23.6838 96.6476 23.4243 96.8996 23.2366 97.2201C23.049 97.5401 22.9551 97.8992 22.9551 98.2964C22.9551 98.6946 23.049 99.0537 23.2366 99.3737C23.4248 99.6937 23.6843 99.9466 24.0156 100.131C24.3469 100.315 24.7151 100.408 25.1201 100.408C25.7349 100.408 26.2395 100.204 26.6345 99.7966L26.9777 100.138C26.7542 100.381 26.4794 100.566 26.1552 100.695C25.8306 100.824 25.4787 100.888 25.0981 100.888C24.5906 100.887 24.1334 100.775 23.7264 100.551ZM29.249 100.548C28.8363 100.322 28.5151 100.013 28.2834 99.6209C28.0516 99.228 27.9358 98.7865 27.9358 98.2959C27.9358 97.8068 28.0512 97.3649 28.2834 96.972C28.5151 96.5795 28.8363 96.27 29.249 96.0447C29.6608 95.8185 30.1204 95.7066 30.6274 95.7066C31.1344 95.7066 31.5921 95.8175 31.9991 96.0409C32.406 96.2643 32.7273 96.5729 32.9609 96.9686C33.1951 97.3634 33.3119 97.8068 33.3119 98.2959C33.3119 98.7865 33.1951 99.2289 32.9609 99.6247C32.7273 100.02 32.406 100.329 31.9991 100.551C31.5917 100.775 31.1344 100.887 30.6274 100.887C30.1204 100.887 29.6613 100.773 29.249 100.548ZM31.7252 100.134C32.0522 99.9514 32.3079 99.6994 32.4932 99.3765C32.6789 99.0537 32.7709 98.6936 32.7709 98.2955C32.7709 97.8983 32.6789 97.5377 32.4932 97.2149C32.3079 96.8929 32.0522 96.6405 31.7252 96.4581C31.3978 96.2762 31.0329 96.1857 30.6279 96.1857C30.2229 96.1857 29.8566 96.2762 29.5272 96.4581C29.1978 96.6405 28.9388 96.8929 28.7516 97.2149C28.5639 97.5377 28.4701 97.8983 28.4701 98.2955C28.4701 98.6936 28.5639 99.0537 28.7516 99.3765C28.9393 99.6994 29.1983 99.9514 29.5272 100.134C29.8566 100.315 30.2229 100.407 30.6279 100.407C31.0329 100.407 31.3978 100.315 31.7252 100.134ZM38.9958 95.7494L36.7284 100.843H36.1946L33.9271 95.7494H34.5126L36.4727 100.174L38.4481 95.7494H38.9958ZM43.1583 99.4823H40.3053L39.691 100.843H39.1275L41.4687 95.7494H42.0025L44.3437 100.843H43.773L43.1583 99.4823ZM42.9605 99.046L41.732 96.31L40.5035 99.046H42.9605ZM45.5574 95.7494H46.0989V100.378H48.9662V100.843H45.5574V95.7494ZM54.101 95.7494L51.8331 100.843H51.2998L49.0323 95.7494H49.6174L51.5779 100.174L53.5533 95.7494H54.101ZM58.827 100.378V100.843H55.2061V95.7499H58.7169V96.2162H55.7475V98.0283H58.3947V98.4864H55.7475V100.379L58.827 100.378ZM60.7837 100.705C60.4352 100.583 60.1656 100.424 59.9756 100.225L60.1872 99.8095C60.3725 99.9942 60.6185 100.143 60.9259 100.257C61.2333 100.37 61.5498 100.428 61.8768 100.428C62.3349 100.428 62.6792 100.344 62.908 100.177C63.1374 100.009 63.2523 99.7918 63.2523 99.5256C63.2523 99.3218 63.1895 99.1589 63.0655 99.0384C62.9406 98.917 62.7883 98.8236 62.6078 98.7579C62.4273 98.6927 62.1769 98.6212 61.8547 98.5436C61.4693 98.4464 61.1624 98.354 60.9331 98.2631C60.7038 98.1735 60.507 98.0364 60.3447 97.8526C60.1814 97.6673 60.0986 97.4187 60.0986 97.1029C60.0986 96.8458 60.1675 96.6124 60.3035 96.4005C60.4404 96.19 60.6506 96.0209 60.9331 95.8942C61.2156 95.768 61.5665 95.7056 61.9864 95.7056C62.2789 95.7056 62.5652 95.7451 62.8458 95.8252C63.1263 95.9056 63.3691 96.0157 63.574 96.1562L63.3906 96.5857C63.1761 96.4443 62.9463 96.339 62.7031 96.269C62.4589 96.1985 62.2205 96.1633 61.9864 96.1633C61.5373 96.1633 61.1998 96.2495 60.9733 96.4214C60.7464 96.5938 60.6329 96.8158 60.6329 97.0872C60.6329 97.2911 60.6952 97.4544 60.8201 97.5782C60.9441 97.7021 61.1002 97.7959 61.2879 97.8621C61.4755 97.9283 61.7279 97.9992 62.0453 98.0769C62.4206 98.1683 62.7247 98.2597 62.9559 98.3493C63.1871 98.4388 63.3839 98.575 63.5443 98.7565C63.7052 98.9389 63.7861 99.1846 63.7861 99.4956C63.7861 99.7528 63.7162 99.9862 63.5769 100.198C63.4385 100.409 63.225 100.576 62.9372 100.7C62.649 100.823 62.2957 100.886 61.8763 100.886C61.4966 100.887 61.1323 100.826 60.7837 100.705Z" fill="black"/>
    <path d="M21.2646 100.378V100.843H17.6436V95.7499H21.1545V96.2162H18.1842V98.0283H20.8323V98.4864H18.1842V100.379L21.2646 100.378ZM23.7264 100.551C23.319 100.329 22.9996 100.02 22.7679 99.6247C22.5367 99.2289 22.4208 98.7865 22.4208 98.2959C22.4208 97.8068 22.5367 97.3634 22.7679 96.9686C22.9996 96.5729 23.3204 96.2643 23.7303 96.0409C24.1396 95.8175 24.5983 95.7066 25.1053 95.7066C25.4859 95.7066 25.8368 95.769 26.1586 95.8952C26.4808 96.0219 26.7542 96.2062 26.9777 96.4486L26.6345 96.791C26.2347 96.3881 25.7296 96.1866 25.1201 96.1866C24.7156 96.1866 24.3474 96.2781 24.0156 96.4629C23.6838 96.6476 23.4243 96.8996 23.2366 97.2201C23.049 97.5401 22.9551 97.8992 22.9551 98.2964C22.9551 98.6946 23.049 99.0537 23.2366 99.3737C23.4248 99.6937 23.6843 99.9466 24.0156 100.131C24.3469 100.315 24.7151 100.408 25.1201 100.408C25.7349 100.408 26.2395 100.204 26.6345 99.7966L26.9777 100.138C26.7542 100.381 26.4794 100.566 26.1552 100.695C25.8306 100.824 25.4787 100.888 25.0981 100.888C24.5906 100.887 24.1334 100.775 23.7264 100.551ZM29.249 100.548C28.8363 100.322 28.5151 100.013 28.2834 99.6209C28.0516 99.228 27.9358 98.7865 27.9358 98.2959C27.9358 97.8068 28.0512 97.3649 28.2834 96.972C28.5151 96.5795 28.8363 96.27 29.249 96.0447C29.6608 95.8185 30.1204 95.7066 30.6274 95.7066C31.1344 95.7066 31.5921 95.8175 31.9991 96.0409C32.406 96.2643 32.7273 96.5729 32.9609 96.9686C33.1951 97.3634 33.3119 97.8068 33.3119 98.2959C33.3119 98.7865 33.1951 99.2289 32.9609 99.6247C32.7273 100.02 32.406 100.329 31.9991 100.551C31.5917 100.775 31.1344 100.887 30.6274 100.887C30.1204 100.887 29.6613 100.773 29.249 100.548ZM31.7252 100.134C32.0522 99.9514 32.3079 99.6994 32.4932 99.3765C32.6789 99.0537 32.7709 98.6936 32.7709 98.2955C32.7709 97.8983 32.6789 97.5377 32.4932 97.2149C32.3079 96.8929 32.0522 96.6405 31.7252 96.4581C31.3978 96.2762 31.0329 96.1857 30.6279 96.1857C30.2229 96.1857 29.8566 96.2762 29.5272 96.4581C29.1978 96.6405 28.9388 96.8929 28.7516 97.2149C28.5639 97.5377 28.4701 97.8983 28.4701 98.2955C28.4701 98.6936 28.5639 99.0537 28.7516 99.3765C28.9393 99.6994 29.1983 99.9514 29.5272 100.134C29.8566 100.315 30.2229 100.407 30.6279 100.407C31.0329 100.407 31.3978 100.315 31.7252 100.134ZM38.9958 95.7494L36.7284 100.843H36.1946L33.9271 95.7494H34.5126L36.4727 100.174L38.4481 95.7494H38.9958ZM43.1583 99.4823H40.3053L39.691 100.843H39.1275L41.4687 95.7494H42.0025L44.3437 100.843H43.773L43.1583 99.4823ZM42.9605 99.046L41.732 96.31L40.5035 99.046H42.9605ZM45.5574 95.7494H46.0989V100.378H48.9662V100.843H45.5574V95.7494ZM54.101 95.7494L51.8331 100.843H51.2998L49.0323 95.7494H49.6174L51.5779 100.174L53.5533 95.7494H54.101ZM58.827 100.378V100.843H55.2061V95.7499H58.7169V96.2162H55.7475V98.0283H58.3947V98.4864H55.7475V100.379L58.827 100.378ZM60.7837 100.705C60.4352 100.583 60.1656 100.424 59.9756 100.225L60.1872 99.8095C60.3725 99.9942 60.6185 100.143 60.9259 100.257C61.2333 100.37 61.5498 100.428 61.8768 100.428C62.3349 100.428 62.6792 100.344 62.908 100.177C63.1374 100.009 63.2523 99.7918 63.2523 99.5256C63.2523 99.3218 63.1895 99.1589 63.0655 99.0384C62.9406 98.917 62.7883 98.8236 62.6078 98.7579C62.4273 98.6927 62.1769 98.6212 61.8547 98.5436C61.4693 98.4464 61.1624 98.354 60.9331 98.2631C60.7038 98.1735 60.507 98.0364 60.3447 97.8526C60.1814 97.6673 60.0986 97.4187 60.0986 97.1029C60.0986 96.8458 60.1675 96.6124 60.3035 96.4005C60.4404 96.19 60.6506 96.0209 60.9331 95.8942C61.2156 95.768 61.5665 95.7056 61.9864 95.7056C62.2789 95.7056 62.5652 95.7451 62.8458 95.8252C63.1263 95.9056 63.3691 96.0157 63.574 96.1562L63.3906 96.5857C63.1761 96.4443 62.9463 96.339 62.7031 96.269C62.4589 96.1985 62.2205 96.1633 61.9864 96.1633C61.5373 96.1633 61.1998 96.2495 60.9733 96.4214C60.7464 96.5938 60.6329 96.8158 60.6329 97.0872C60.6329 97.2911 60.6952 97.4544 60.8201 97.5782C60.9441 97.7021 61.1002 97.7959 61.2879 97.8621C61.4755 97.9283 61.7279 97.9992 62.0453 98.0769C62.4206 98.1683 62.7247 98.2597 62.9559 98.3493C63.1871 98.4388 63.3839 98.575 63.5443 98.7565C63.7052 98.9389 63.7861 99.1846 63.7861 99.4956C63.7861 99.7528 63.7162 99.9862 63.5769 100.198C63.4385 100.409 63.225 100.576 62.9372 100.7C62.649 100.823 62.2957 100.886 61.8763 100.886C61.4966 100.887 61.1323 100.826 60.7837 100.705Z" fill="black"/>
    <path d="M21.2646 100.31V100.776H17.6436V95.6823H21.1545V96.1485H18.1842V97.9607H20.8323V98.4188H18.1842V100.311L21.2646 100.31ZM23.7264 100.484C23.319 100.262 22.9996 99.9528 22.7679 99.5575C22.5367 99.1618 22.4208 98.7193 22.4208 98.2288C22.4208 97.7397 22.5367 97.2963 22.7679 96.9015C22.9996 96.5057 23.3204 96.1971 23.7303 95.9737C24.1396 95.7504 24.5983 95.6394 25.1053 95.6394C25.4859 95.6394 25.8368 95.7018 26.1586 95.828C26.4808 95.9547 26.7542 96.139 26.9777 96.3814L26.6345 96.7238C26.2347 96.3209 25.7296 96.1195 25.1201 96.1195C24.7156 96.1195 24.3474 96.2109 24.0156 96.3957C23.6838 96.5805 23.4243 96.8324 23.2366 97.1529C23.049 97.473 22.9551 97.8321 22.9551 98.2293C22.9551 98.6274 23.049 98.9865 23.2366 99.3065C23.4248 99.6266 23.6843 99.8795 24.0156 100.064C24.3469 100.248 24.7151 100.34 25.1201 100.34C25.7349 100.34 26.2395 100.137 26.6345 99.7294L26.9773 100.069C26.7537 100.312 26.4789 100.498 26.1547 100.626C25.8301 100.755 25.4782 100.819 25.0976 100.819C24.5906 100.82 24.1334 100.707 23.7264 100.484ZM29.249 100.481C28.8363 100.255 28.5151 99.9461 28.2834 99.5537C28.0516 99.1608 27.9358 98.7193 27.9358 98.2288C27.9358 97.7397 28.0512 97.2977 28.2834 96.9048C28.5151 96.5124 28.8363 96.2028 29.249 95.9776C29.6608 95.7513 30.1204 95.6394 30.6274 95.6394C31.1344 95.6394 31.5921 95.7504 31.9991 95.9737C32.406 96.1971 32.7273 96.5057 32.9609 96.9015C33.1951 97.2963 33.3119 97.7397 33.3119 98.2288C33.3119 98.7193 33.1951 99.1618 32.9609 99.5575C32.7273 99.9528 32.406 100.262 31.9991 100.484C31.5917 100.708 31.1344 100.82 30.6274 100.82C30.1204 100.82 29.6613 100.706 29.249 100.481ZM31.7252 100.067C32.0522 99.8842 32.3079 99.6323 32.4932 99.3094C32.6789 98.9865 32.7709 98.6265 32.7709 98.2283C32.7709 97.8311 32.6789 97.4706 32.4932 97.1477C32.3079 96.8258 32.0522 96.5733 31.7252 96.3909C31.3978 96.209 31.0329 96.1185 30.6279 96.1185C30.2229 96.1185 29.8566 96.209 29.5272 96.3909C29.1978 96.5733 28.9388 96.8258 28.7516 97.1477C28.5639 97.4706 28.4701 97.8311 28.4701 98.2283C28.4701 98.6265 28.5639 98.9865 28.7516 99.3094C28.9393 99.6323 29.1983 99.8842 29.5272 100.067C29.8566 100.248 30.2229 100.34 30.6279 100.34C31.0329 100.34 31.3978 100.248 31.7252 100.067ZM38.9958 95.6823L36.7284 100.776H36.1946L33.9271 95.6823H34.5126L36.4727 100.107L38.4481 95.6823H38.9958ZM43.1583 99.4146H40.3053L39.691 100.775H39.1275L41.4687 95.6818H42.0025L44.3437 100.775H43.773L43.1583 99.4146ZM42.9605 98.9784L41.732 96.2424L40.5035 98.9784H42.9605ZM45.5574 95.6823H46.0989V100.31H48.9662V100.776H45.5574V95.6823ZM54.101 95.6823L51.8331 100.776H51.2998L49.0323 95.6823H49.6174L51.5779 100.107L53.5533 95.6823H54.101ZM58.827 100.31V100.776H55.2061V95.6823H58.7169V96.1485H55.7475V97.9607H58.3947V98.4188H55.7475V100.311L58.827 100.31ZM60.7837 100.638C60.4352 100.516 60.1656 100.357 59.9756 100.158L60.1872 99.7423C60.3725 99.9271 60.6185 100.076 60.9259 100.19C61.2333 100.303 61.5498 100.361 61.8768 100.361C62.3349 100.361 62.6792 100.277 62.908 100.11C63.1374 99.9419 63.2523 99.7247 63.2523 99.4585C63.2523 99.2546 63.1895 99.0918 63.0655 98.9713C62.9406 98.8498 62.7883 98.7565 62.6078 98.6908C62.4273 98.6255 62.1769 98.5541 61.8547 98.4764C61.4693 98.3793 61.1624 98.2869 60.9331 98.1959C60.7038 98.1064 60.507 97.9692 60.3447 97.7854C60.1814 97.6001 60.0986 97.3515 60.0986 97.0358C60.0986 96.7786 60.1675 96.5453 60.3035 96.3333C60.4404 96.1228 60.6506 95.9537 60.9331 95.8271C61.2156 95.7009 61.5665 95.6385 61.9864 95.6385C62.2789 95.6385 62.5652 95.678 62.8458 95.758C63.1263 95.8385 63.3691 95.9485 63.574 96.089L63.3906 96.5186C63.1761 96.3771 62.9463 96.2719 62.7031 96.2019C62.4589 96.1314 62.2205 96.0961 61.9864 96.0961C61.5373 96.0961 61.1998 96.1824 60.9733 96.3543C60.7464 96.5267 60.6329 96.7486 60.6329 97.0201C60.6329 97.2239 60.6952 97.3873 60.8201 97.5111C60.9441 97.6349 61.1002 97.7287 61.2879 97.7949C61.4755 97.8611 61.7279 97.9321 62.0453 98.0097C62.4206 98.1012 62.7247 98.1926 62.9559 98.2821C63.1871 98.3717 63.3839 98.5079 63.5443 98.6893C63.7052 98.8717 63.7861 99.1175 63.7861 99.4285C63.7861 99.6856 63.7162 99.919 63.5769 100.131C63.4385 100.341 63.225 100.509 62.9372 100.632C62.649 100.756 62.2957 100.819 61.8763 100.819C61.4966 100.82 61.1323 100.759 60.7837 100.638Z" fill="black"/>
    <path d="M21.2646 100.378V100.843H17.6436V95.7499H21.1545V96.2162H18.1842V98.0283H20.8323V98.4864H18.1842V100.379L21.2646 100.378ZM23.7264 100.551C23.319 100.329 22.9996 100.02 22.7679 99.6247C22.5367 99.2289 22.4208 98.7865 22.4208 98.2959C22.4208 97.8068 22.5367 97.3634 22.7679 96.9686C22.9996 96.5729 23.3204 96.2643 23.7303 96.0409C24.1396 95.8175 24.5983 95.7066 25.1053 95.7066C25.4859 95.7066 25.8368 95.769 26.1586 95.8952C26.4808 96.0219 26.7542 96.2062 26.9777 96.4486L26.6345 96.791C26.2347 96.3881 25.7296 96.1866 25.1201 96.1866C24.7156 96.1866 24.3474 96.2781 24.0156 96.4629C23.6838 96.6476 23.4243 96.8996 23.2366 97.2201C23.049 97.5401 22.9551 97.8992 22.9551 98.2964C22.9551 98.6946 23.049 99.0537 23.2366 99.3737C23.4248 99.6937 23.6843 99.9466 24.0156 100.131C24.3469 100.315 24.7151 100.408 25.1201 100.408C25.7349 100.408 26.2395 100.204 26.6345 99.7966L26.9777 100.138C26.7542 100.381 26.4794 100.566 26.1552 100.695C25.8306 100.824 25.4787 100.888 25.0981 100.888C24.5906 100.887 24.1334 100.775 23.7264 100.551ZM29.249 100.548C28.8363 100.322 28.5151 100.013 28.2834 99.6209C28.0516 99.228 27.9358 98.7865 27.9358 98.2959C27.9358 97.8068 28.0512 97.3649 28.2834 96.972C28.5151 96.5795 28.8363 96.27 29.249 96.0447C29.6608 95.8185 30.1204 95.7066 30.6274 95.7066C31.1344 95.7066 31.5921 95.8175 31.9991 96.0409C32.406 96.2643 32.7273 96.5729 32.9609 96.9686C33.1951 97.3634 33.3119 97.8068 33.3119 98.2959C33.3119 98.7865 33.1951 99.2289 32.9609 99.6247C32.7273 100.02 32.406 100.329 31.9991 100.551C31.5917 100.775 31.1344 100.887 30.6274 100.887C30.1204 100.887 29.6613 100.773 29.249 100.548ZM31.7252 100.134C32.0522 99.9514 32.3079 99.6994 32.4932 99.3765C32.6789 99.0537 32.7709 98.6936 32.7709 98.2955C32.7709 97.8983 32.6789 97.5377 32.4932 97.2149C32.3079 96.8929 32.0522 96.6405 31.7252 96.4581C31.3978 96.2762 31.0329 96.1857 30.6279 96.1857C30.2229 96.1857 29.8566 96.2762 29.5272 96.4581C29.1978 96.6405 28.9388 96.8929 28.7516 97.2149C28.5639 97.5377 28.4701 97.8983 28.4701 98.2955C28.4701 98.6936 28.5639 99.0537 28.7516 99.3765C28.9393 99.6994 29.1983 99.9514 29.5272 100.134C29.8566 100.315 30.2229 100.407 30.6279 100.407C31.0329 100.407 31.3978 100.315 31.7252 100.134ZM38.9958 95.7494L36.7284 100.843H36.1946L33.9271 95.7494H34.5126L36.4727 100.174L38.4481 95.7494H38.9958ZM43.1583 99.4823H40.3053L39.691 100.843H39.1275L41.4687 95.7494H42.0025L44.3437 100.843H43.773L43.1583 99.4823ZM42.9605 99.046L41.732 96.31L40.5035 99.046H42.9605ZM45.5574 95.7494H46.0989V100.378H48.9662V100.843H45.5574V95.7494ZM54.101 95.7494L51.8331 100.843H51.2998L49.0323 95.7494H49.6174L51.5779 100.174L53.5533 95.7494H54.101ZM58.827 100.378V100.843H55.2061V95.7499H58.7169V96.2162H55.7475V98.0283H58.3947V98.4864H55.7475V100.379L58.827 100.378ZM60.7837 100.705C60.4352 100.583 60.1656 100.424 59.9756 100.225L60.1872 99.8095C60.3725 99.9942 60.6185 100.143 60.9259 100.257C61.2333 100.37 61.5498 100.428 61.8768 100.428C62.3349 100.428 62.6792 100.344 62.908 100.177C63.1374 100.009 63.2523 99.7918 63.2523 99.5256C63.2523 99.3218 63.1895 99.1589 63.0655 99.0384C62.9406 98.917 62.7883 98.8236 62.6078 98.7579C62.4273 98.6927 62.1769 98.6212 61.8547 98.5436C61.4693 98.4464 61.1624 98.354 60.9331 98.2631C60.7038 98.1735 60.507 98.0364 60.3447 97.8526C60.1814 97.6673 60.0986 97.4187 60.0986 97.1029C60.0986 96.8458 60.1675 96.6124 60.3035 96.4005C60.4404 96.19 60.6506 96.0209 60.9331 95.8942C61.2156 95.768 61.5665 95.7056 61.9864 95.7056C62.2789 95.7056 62.5652 95.7451 62.8458 95.8252C63.1263 95.9056 63.3691 96.0157 63.574 96.1562L63.3906 96.5857C63.1761 96.4443 62.9463 96.339 62.7031 96.269C62.4589 96.1985 62.2205 96.1633 61.9864 96.1633C61.5373 96.1633 61.1998 96.2495 60.9733 96.4214C60.7464 96.5938 60.6329 96.8158 60.6329 97.0872C60.6329 97.2911 60.6952 97.4544 60.8201 97.5782C60.9441 97.7021 61.1002 97.7959 61.2879 97.8621C61.4755 97.9283 61.7279 97.9992 62.0453 98.0769C62.4206 98.1683 62.7247 98.2597 62.9559 98.3493C63.1871 98.4388 63.3839 98.575 63.5443 98.7565C63.7052 98.9389 63.7861 99.1846 63.7861 99.4956C63.7861 99.7528 63.7162 99.9862 63.5769 100.198C63.4385 100.409 63.225 100.576 62.9372 100.7C62.649 100.823 62.2957 100.886 61.8763 100.886C61.4966 100.887 61.1323 100.826 60.7837 100.705Z" fill="black"/>
    <path d="M21.2646 100.31V100.776H17.6436V95.6823H21.1545V96.1485H18.1842V97.9607H20.8323V98.4188H18.1842V100.311L21.2646 100.31ZM23.7264 100.484C23.319 100.262 22.9996 99.9528 22.7679 99.5575C22.5367 99.1618 22.4208 98.7193 22.4208 98.2288C22.4208 97.7397 22.5367 97.2963 22.7679 96.9015C22.9996 96.5057 23.3204 96.1971 23.7303 95.9737C24.1396 95.7504 24.5983 95.6394 25.1053 95.6394C25.4859 95.6394 25.8368 95.7018 26.1586 95.828C26.4808 95.9547 26.7542 96.139 26.9777 96.3814L26.6345 96.7238C26.2347 96.3209 25.7296 96.1195 25.1201 96.1195C24.7156 96.1195 24.3474 96.2109 24.0156 96.3957C23.6838 96.5805 23.4243 96.8324 23.2366 97.1529C23.049 97.473 22.9551 97.8321 22.9551 98.2293C22.9551 98.6274 23.049 98.9865 23.2366 99.3065C23.4248 99.6266 23.6843 99.8795 24.0156 100.064C24.3469 100.248 24.7151 100.34 25.1201 100.34C25.7349 100.34 26.2395 100.137 26.6345 99.7294L26.9773 100.069C26.7537 100.312 26.4789 100.498 26.1547 100.626C25.8301 100.755 25.4782 100.819 25.0976 100.819C24.5906 100.82 24.1334 100.707 23.7264 100.484ZM29.249 100.481C28.8363 100.255 28.5151 99.9461 28.2834 99.5537C28.0516 99.1608 27.9358 98.7193 27.9358 98.2288C27.9358 97.7397 28.0512 97.2977 28.2834 96.9048C28.5151 96.5124 28.8363 96.2028 29.249 95.9776C29.6608 95.7513 30.1204 95.6394 30.6274 95.6394C31.1344 95.6394 31.5921 95.7504 31.9991 95.9737C32.406 96.1971 32.7273 96.5057 32.9609 96.9015C33.1951 97.2963 33.3119 97.7397 33.3119 98.2288C33.3119 98.7193 33.1951 99.1618 32.9609 99.5575C32.7273 99.9528 32.406 100.262 31.9991 100.484C31.5917 100.708 31.1344 100.82 30.6274 100.82C30.1204 100.82 29.6613 100.706 29.249 100.481ZM31.7252 100.067C32.0522 99.8842 32.3079 99.6323 32.4932 99.3094C32.6789 98.9865 32.7709 98.6265 32.7709 98.2283C32.7709 97.8311 32.6789 97.4706 32.4932 97.1477C32.3079 96.8258 32.0522 96.5733 31.7252 96.3909C31.3978 96.209 31.0329 96.1185 30.6279 96.1185C30.2229 96.1185 29.8566 96.209 29.5272 96.3909C29.1978 96.5733 28.9388 96.8258 28.7516 97.1477C28.5639 97.4706 28.4701 97.8311 28.4701 98.2283C28.4701 98.6265 28.5639 98.9865 28.7516 99.3094C28.9393 99.6323 29.1983 99.8842 29.5272 100.067C29.8566 100.248 30.2229 100.34 30.6279 100.34C31.0329 100.34 31.3978 100.248 31.7252 100.067ZM38.9958 95.6823L36.7284 100.776H36.1946L33.9271 95.6823H34.5126L36.4727 100.107L38.4481 95.6823H38.9958ZM43.1583 99.4146H40.3053L39.691 100.775H39.1275L41.4687 95.6818H42.0025L44.3437 100.775H43.773L43.1583 99.4146ZM42.9605 98.9784L41.732 96.2424L40.5035 98.9784H42.9605ZM45.5574 95.6823H46.0989V100.31H48.9662V100.776H45.5574V95.6823ZM54.101 95.6823L51.8331 100.776H51.2998L49.0323 95.6823H49.6174L51.5779 100.107L53.5533 95.6823H54.101ZM58.827 100.31V100.776H55.2061V95.6823H58.7169V96.1485H55.7475V97.9607H58.3947V98.4188H55.7475V100.311L58.827 100.31ZM60.7837 100.638C60.4352 100.516 60.1656 100.357 59.9756 100.158L60.1872 99.7423C60.3725 99.9271 60.6185 100.076 60.9259 100.19C61.2333 100.303 61.5498 100.361 61.8768 100.361C62.3349 100.361 62.6792 100.277 62.908 100.11C63.1374 99.9419 63.2523 99.7247 63.2523 99.4585C63.2523 99.2546 63.1895 99.0918 63.0655 98.9713C62.9406 98.8498 62.7883 98.7565 62.6078 98.6908C62.4273 98.6255 62.1769 98.5541 61.8547 98.4764C61.4693 98.3793 61.1624 98.2869 60.9331 98.1959C60.7038 98.1064 60.507 97.9692 60.3447 97.7854C60.1814 97.6001 60.0986 97.3515 60.0986 97.0358C60.0986 96.7786 60.1675 96.5453 60.3035 96.3333C60.4404 96.1228 60.6506 95.9537 60.9331 95.8271C61.2156 95.7009 61.5665 95.6385 61.9864 95.6385C62.2789 95.6385 62.5652 95.678 62.8458 95.758C63.1263 95.8385 63.3691 95.9485 63.574 96.089L63.3906 96.5186C63.1761 96.3771 62.9463 96.2719 62.7031 96.2019C62.4589 96.1314 62.2205 96.0961 61.9864 96.0961C61.5373 96.0961 61.1998 96.1824 60.9733 96.3543C60.7464 96.5267 60.6329 96.7486 60.6329 97.0201C60.6329 97.2239 60.6952 97.3873 60.8201 97.5111C60.9441 97.6349 61.1002 97.7287 61.2879 97.7949C61.4755 97.8611 61.7279 97.9321 62.0453 98.0097C62.4206 98.1012 62.7247 98.1926 62.9559 98.2821C63.1871 98.3717 63.3839 98.5079 63.5443 98.6893C63.7052 98.8717 63.7861 99.1175 63.7861 99.4285C63.7861 99.6856 63.7162 99.919 63.5769 100.131C63.4385 100.341 63.225 100.509 62.9372 100.632C62.649 100.756 62.2957 100.819 61.8763 100.819C61.4966 100.82 61.1323 100.759 60.7837 100.638Z" fill="black"/>
    <path d="M21.2646 100.31V100.776H17.6436V95.6823H21.1545V96.1485H18.1842V97.9607H20.8323V98.4188H18.1842V100.311L21.2646 100.31ZM23.7264 100.484C23.319 100.262 22.9996 99.9528 22.7679 99.5575C22.5367 99.1618 22.4208 98.7193 22.4208 98.2288C22.4208 97.7397 22.5367 97.2963 22.7679 96.9015C22.9996 96.5057 23.3204 96.1971 23.7303 95.9737C24.1396 95.7504 24.5983 95.6394 25.1053 95.6394C25.4859 95.6394 25.8368 95.7018 26.1586 95.828C26.4808 95.9547 26.7542 96.139 26.9777 96.3814L26.6345 96.7238C26.2347 96.3209 25.7296 96.1195 25.1201 96.1195C24.7156 96.1195 24.3474 96.2109 24.0156 96.3957C23.6838 96.5805 23.4243 96.8324 23.2366 97.1529C23.049 97.473 22.9551 97.8321 22.9551 98.2293C22.9551 98.6274 23.049 98.9865 23.2366 99.3065C23.4248 99.6266 23.6843 99.8795 24.0156 100.064C24.3469 100.248 24.7151 100.34 25.1201 100.34C25.7349 100.34 26.2395 100.137 26.6345 99.7294L26.9773 100.069C26.7537 100.312 26.4789 100.498 26.1547 100.626C25.8301 100.755 25.4782 100.819 25.0976 100.819C24.5906 100.82 24.1334 100.707 23.7264 100.484ZM29.249 100.481C28.8363 100.255 28.5151 99.9461 28.2834 99.5537C28.0516 99.1608 27.9358 98.7193 27.9358 98.2288C27.9358 97.7397 28.0512 97.2977 28.2834 96.9048C28.5151 96.5124 28.8363 96.2028 29.249 95.9776C29.6608 95.7513 30.1204 95.6394 30.6274 95.6394C31.1344 95.6394 31.5921 95.7504 31.9991 95.9737C32.406 96.1971 32.7273 96.5057 32.9609 96.9015C33.1951 97.2963 33.3119 97.7397 33.3119 98.2288C33.3119 98.7193 33.1951 99.1618 32.9609 99.5575C32.7273 99.9528 32.406 100.262 31.9991 100.484C31.5917 100.708 31.1344 100.82 30.6274 100.82C30.1204 100.82 29.6613 100.706 29.249 100.481ZM31.7252 100.067C32.0522 99.8842 32.3079 99.6323 32.4932 99.3094C32.6789 98.9865 32.7709 98.6265 32.7709 98.2283C32.7709 97.8311 32.6789 97.4706 32.4932 97.1477C32.3079 96.8258 32.0522 96.5733 31.7252 96.3909C31.3978 96.209 31.0329 96.1185 30.6279 96.1185C30.2229 96.1185 29.8566 96.209 29.5272 96.3909C29.1978 96.5733 28.9388 96.8258 28.7516 97.1477C28.5639 97.4706 28.4701 97.8311 28.4701 98.2283C28.4701 98.6265 28.5639 98.9865 28.7516 99.3094C28.9393 99.6323 29.1983 99.8842 29.5272 100.067C29.8566 100.248 30.2229 100.34 30.6279 100.34C31.0329 100.34 31.3978 100.248 31.7252 100.067ZM38.9958 95.6823L36.7284 100.776H36.1946L33.9271 95.6823H34.5126L36.4727 100.107L38.4481 95.6823H38.9958ZM43.1583 99.4146H40.3053L39.691 100.775H39.1275L41.4687 95.6818H42.0025L44.3437 100.775H43.773L43.1583 99.4146ZM42.9605 98.9784L41.732 96.2424L40.5035 98.9784H42.9605ZM45.5574 95.6823H46.0989V100.31H48.9662V100.776H45.5574V95.6823ZM54.101 95.6823L51.8331 100.776H51.2998L49.0323 95.6823H49.6174L51.5779 100.107L53.5533 95.6823H54.101ZM58.827 100.31V100.776H55.2061V95.6823H58.7169V96.1485H55.7475V97.9607H58.3947V98.4188H55.7475V100.311L58.827 100.31ZM60.7837 100.638C60.4352 100.516 60.1656 100.357 59.9756 100.158L60.1872 99.7423C60.3725 99.9271 60.6185 100.076 60.9259 100.19C61.2333 100.303 61.5498 100.361 61.8768 100.361C62.3349 100.361 62.6792 100.277 62.908 100.11C63.1374 99.9419 63.2523 99.7247 63.2523 99.4585C63.2523 99.2546 63.1895 99.0918 63.0655 98.9713C62.9406 98.8498 62.7883 98.7565 62.6078 98.6908C62.4273 98.6255 62.1769 98.5541 61.8547 98.4764C61.4693 98.3793 61.1624 98.2869 60.9331 98.1959C60.7038 98.1064 60.507 97.9692 60.3447 97.7854C60.1814 97.6001 60.0986 97.3515 60.0986 97.0358C60.0986 96.7786 60.1675 96.5453 60.3035 96.3333C60.4404 96.1228 60.6506 95.9537 60.9331 95.8271C61.2156 95.7009 61.5665 95.6385 61.9864 95.6385C62.2789 95.6385 62.5652 95.678 62.8458 95.758C63.1263 95.8385 63.3691 95.9485 63.574 96.089L63.3906 96.5186C63.1761 96.3771 62.9463 96.2719 62.7031 96.2019C62.4589 96.1314 62.2205 96.0961 61.9864 96.0961C61.5373 96.0961 61.1998 96.1824 60.9733 96.3543C60.7464 96.5267 60.6329 96.7486 60.6329 97.0201C60.6329 97.2239 60.6952 97.3873 60.8201 97.5111C60.9441 97.6349 61.1002 97.7287 61.2879 97.7949C61.4755 97.8611 61.7279 97.9321 62.0453 98.0097C62.4206 98.1012 62.7247 98.1926 62.9559 98.2821C63.1871 98.3717 63.3839 98.5079 63.5443 98.6893C63.7052 98.8717 63.7861 99.1175 63.7861 99.4285C63.7861 99.6856 63.7162 99.919 63.5769 100.131C63.4385 100.341 63.225 100.509 62.9372 100.632C62.649 100.756 62.2957 100.819 61.8763 100.819C61.4966 100.82 61.1323 100.759 60.7837 100.638Z" fill="black"/>
    <path d="M21.2646 100.243V100.709H17.6436V95.6151H21.1545V96.0814H18.1842V97.8935H20.8323V98.3517H18.1842V100.244L21.2646 100.243ZM23.7264 100.417C23.319 100.194 22.9996 99.8852 22.7679 99.4899C22.5367 99.0941 22.4208 98.6517 22.4208 98.1612C22.4208 97.672 22.5367 97.2287 22.7679 96.8338C22.9996 96.4381 23.3204 96.1295 23.7303 95.9061C24.1396 95.6828 24.5983 95.5718 25.1053 95.5718C25.4859 95.5718 25.8368 95.6342 26.1586 95.7604C26.4808 95.8871 26.7542 96.0714 26.9777 96.3138L26.6345 96.6562C26.2347 96.2533 25.7296 96.0518 25.1201 96.0518C24.7156 96.0518 24.3474 96.1433 24.0156 96.3281C23.6838 96.5129 23.4243 96.7648 23.2366 97.0853C23.049 97.4053 22.9551 97.7644 22.9551 98.1616C22.9551 98.5598 23.049 98.9189 23.2366 99.2389C23.4248 99.5589 23.6843 99.8118 24.0156 99.9961C24.3469 100.18 24.7151 100.273 25.1201 100.273C25.7349 100.273 26.2395 100.069 26.6345 99.6618L26.9777 100.003C26.7542 100.246 26.4794 100.431 26.1552 100.56C25.8306 100.689 25.4787 100.753 25.0981 100.753C24.5906 100.752 24.1334 100.64 23.7264 100.417ZM29.249 100.413C28.8363 100.188 28.5151 99.8785 28.2834 99.4861C28.0516 99.0932 27.9358 98.6517 27.9358 98.1612C27.9358 97.672 28.0512 97.2301 28.2834 96.8372C28.5151 96.4448 28.8363 96.1352 29.249 95.9099C29.6608 95.6837 30.1204 95.5718 30.6274 95.5718C31.1344 95.5718 31.5921 95.6828 31.9991 95.9061C32.406 96.1295 32.7273 96.4381 32.9609 96.8338C33.1951 97.2287 33.3119 97.672 33.3119 98.1612C33.3119 98.6517 33.1951 99.0941 32.9609 99.4899C32.7273 99.8852 32.406 100.194 31.9991 100.417C31.5917 100.64 31.1344 100.752 30.6274 100.752C30.1204 100.752 29.6613 100.639 29.249 100.413ZM31.7252 99.999C32.0522 99.8166 32.3079 99.5647 32.4932 99.2418C32.6789 98.9189 32.7709 98.5588 32.7709 98.1607C32.7709 97.7635 32.6789 97.403 32.4932 97.0801C32.3079 96.7581 32.0522 96.5057 31.7252 96.3233C31.3978 96.1414 31.0329 96.0509 30.6279 96.0509C30.2229 96.0509 29.8566 96.1414 29.5272 96.3233C29.1978 96.5057 28.9388 96.7581 28.7516 97.0801C28.5639 97.403 28.4701 97.7635 28.4701 98.1607C28.4701 98.5588 28.5639 98.9189 28.7516 99.2418C28.9393 99.5647 29.1983 99.8166 29.5272 99.999C29.8566 100.18 30.2229 100.272 30.6279 100.272C31.0329 100.272 31.3978 100.18 31.7252 99.999ZM38.9958 95.6147L36.7284 100.708H36.1946L33.9271 95.6147H34.5126L36.4727 100.039L38.4481 95.6147H38.9958ZM43.1583 99.3475H40.3053L39.691 100.708H39.1275L41.4687 95.6147H42.0025L44.3437 100.708H43.773L43.1583 99.3475ZM42.9605 98.9112L41.732 96.1752L40.5035 98.9112H42.9605ZM45.5574 95.6147H46.0989V100.243H48.9662V100.709H45.5574V95.6147ZM54.101 95.6147L51.8331 100.708H51.2998L49.0323 95.6147H49.6174L51.5779 100.039L53.5533 95.6147H54.101ZM58.827 100.243V100.709H55.2061V95.6151H58.7169V96.0814H55.7475V97.8935H58.3947V98.3517H55.7475V100.244L58.827 100.243ZM60.7837 100.57C60.4352 100.449 60.1656 100.289 59.9756 100.09L60.1872 99.6747C60.3725 99.8595 60.6185 100.008 60.9259 100.122C61.2333 100.236 61.5498 100.293 61.8768 100.293C62.3349 100.293 62.6792 100.209 62.908 100.042C63.1374 99.8742 63.2523 99.6571 63.2523 99.3908C63.2523 99.187 63.1895 99.0241 63.0655 98.9036C62.9406 98.7822 62.7883 98.6888 62.6078 98.6231C62.4273 98.5579 62.1769 98.4864 61.8547 98.4088C61.4693 98.3117 61.1624 98.2193 60.9331 98.1283C60.7038 98.0388 60.507 97.9016 60.3447 97.7178C60.1814 97.5325 60.0986 97.2839 60.0986 96.9682C60.0986 96.711 60.1675 96.4776 60.3035 96.2657C60.4404 96.0552 60.6506 95.8861 60.9331 95.7594C61.2156 95.6332 61.5665 95.5708 61.9864 95.5708C62.2789 95.5708 62.5652 95.6104 62.8458 95.6904C63.1263 95.7709 63.3691 95.8809 63.574 96.0214L63.3906 96.4509C63.1761 96.3095 62.9463 96.2042 62.7031 96.1342C62.4589 96.0638 62.2205 96.0285 61.9864 96.0285C61.5373 96.0285 61.1998 96.1147 60.9733 96.2866C60.7464 96.459 60.6329 96.681 60.6329 96.9524C60.6329 97.1563 60.6952 97.3196 60.8201 97.4434C60.9441 97.5673 61.1002 97.6611 61.2879 97.7273C61.4755 97.7935 61.7279 97.8645 62.0453 97.9421C62.4206 98.0335 62.7247 98.125 62.9559 98.2145C63.1871 98.304 63.3839 98.4402 63.5443 98.6217C63.7052 98.8041 63.7861 99.0498 63.7861 99.3608C63.7861 99.618 63.7162 99.8514 63.5769 100.063C63.4385 100.274 63.225 100.441 62.9372 100.565C62.649 100.689 62.2957 100.751 61.8763 100.751C61.4966 100.752 61.1323 100.691 60.7837 100.57Z" fill="#007932"/>
    <defs>
        <linearGradient id="paint0_linear_640_11613" x1="24.5486" y1="0.551416" x2="80.6866" y2="36.5634" gradientUnits="userSpaceOnUse">
            <stop/>
            <stop offset="1" stop-opacity="0"/>
        </linearGradient>
        <linearGradient id="paint1_linear_640_11613" x1="24.5495" y1="0.549096" x2="80.6866" y2="36.5592" gradientUnits="userSpaceOnUse">
            <stop/>
            <stop offset="1" stop-opacity="0"/>
        </linearGradient>
        <linearGradient id="paint2_linear_640_11613" x1="75.6078" y1="-1.93328" x2="58.7367" y2="108.001" gradientUnits="userSpaceOnUse">
            <stop stop-opacity="0"/>
            <stop offset="0.9" stop-opacity="0"/>
            <stop offset="1"/>
        </linearGradient>
        <linearGradient id="paint3_linear_640_11613" x1="13.558" y1="99.3497" x2="58.0047" y2="0.684905" gradientUnits="userSpaceOnUse">
            <stop/>
            <stop offset="0.2" stop-opacity="0"/>
            <stop offset="0.8" stop-opacity="0"/>
            <stop offset="1"/>
        </linearGradient>
    </defs>
</svg>
